<svg xmlns="http://www.w3.org/2000/svg" viewBox="0 0 512 315.1"><path class="st0" d="M502.4 169.4c.2-.3.5-.6.7-.9.1-.2.2-.3.3-.5.3-.4.5-.9.8-1.3.1-.1.1-.3.2-.4.2-.3.3-.7.5-1 .1-.2.2-.4.2-.6.1-.3.2-.6.3-1 .1-.2.1-.4.2-.6.1-.5.3-1 .4-1.5v-.3c.1-.4.1-.9.2-1.3v-.5c0-.4.1-.8.1-1.2v-.4c0-1.1-.1-2.1-.3-3.2 0-.2-.1-.3-.1-.5-.1-.4-.2-.7-.3-1.1-.1-.2-.1-.4-.2-.6-.1-.3-.2-.7-.4-1-.1-.2-.1-.4-.2-.5-.2-.5-.4-.9-.6-1.4-.1-.2-.2-.4-.3-.5-.2-.3-.4-.6-.5-.9-.1-.2-.2-.3-.3-.5-.3-.4-.5-.7-.8-1.1-.1-.1-.1-.2-.2-.2-.4-.4-.7-.9-1.1-1.3l-.1-.1L367.8 11.7c-7.2-7.2-19-7.2-26.2 0-7.2 7.2-7.2 19 0 26.2l101.5 101.5h-419c-10.2 0-18.5 8.3-18.5 18.5s8.3 18.5 18.5 18.5h419L341.6 278c-7.2 7.2-7.2 19 0 26.2 3.6 3.6 8.4 5.4 13.1 5.4s9.5-1.8 13.1-5.4L501 171.1c.4-.4.8-.8 1.1-1.3.1-.1.2-.2.3-.4z"/></svg>