<svg xmlns="http://www.w3.org/2000/svg" viewBox="0 0 512 388.6"><path d="M481.4 184.9c-25-34.4-90.7-122-115.8-156.4C353.1 16 337.4 6.6 318.7 6.6c-34.4 0-62.6 28.2-62.6 62.6 0-34.4-28.2-62.6-62.6-62.6-18.8 0-34.4 9.4-46.9 21.9-25 31.3-90.7 118.9-115.8 156.4-15.6 18.8-25 43.8-25 72C5.8 325.7 62.1 382 130.9 382s125.2-56.3 125.2-125.2c0 68.8 56.3 125.2 125.2 125.2s125.2-56.3 125.2-125.2c-.1-28.1-9.5-53.1-25.1-71.9zM130.9 319.4c-34.4 0-62.6-28.2-62.6-62.6s28.2-62.6 62.6-62.6 62.6 28.2 62.6 62.6-28.2 62.6-62.6 62.6zm250.3 0c-34.4 0-62.6-28.2-62.6-62.6s28.2-62.6 62.6-62.6 62.6 28.2 62.6 62.6-28.2 62.6-62.6 62.6z" /></svg>