<svg xmlns="http://www.w3.org/2000/svg" viewBox="0 0 512 338"><path d="M177.7 152.4l-.9-.9c-15.5-14.3-36.2-23-58.9-23-48.2 0-87.4 39.5-87.4 88.1s39.2 88.1 87.4 88.1 87.4-39.5 87.4-88.1c0-25.3-10.6-48.1-27.6-64.2zm-59.8 141c-42 0-76.1-34.4-76.1-76.8 0-42.3 34.1-76.8 76.1-76.8s76.1 34.4 76.1 76.8-34.2 76.8-76.1 76.8zm275.8-164.9c-48.2 0-87.4 39.5-87.4 88.1s39.2 88.1 87.4 88.1 87.4-39.5 87.4-88.1-39.2-88.1-87.4-88.1zm0 164.9c-42 0-76.1-34.4-76.1-76.8 0-42.3 34.1-76.8 76.1-76.8s76.1 34.4 76.1 76.8-34.1 76.8-76.1 76.8z"/><path d="M491.6 158.2c-.2-.4-.3-.7-.6-1l-.2-.3c-2.9-4.7-6.1-9.2-9.6-13.5L410.5 44l-.1-.1c-14.1-22.4-38.1-35.7-64.5-35.7-19.9 0-38.8 7.7-53.1 21.6-13.2 12.9-21.3 29.9-23 48.2-5 1.1-10.1 1.6-15.2 1.5-4.3-.1-8.7-.6-13-1.5-1.7-18.3-9.7-35.3-23-48.2-14.3-14-33.2-21.6-53.1-21.6-26.4 0-50.5 13.4-64.6 35.8l-70.7 99.3c-3.5 4.3-6.7 8.8-9.6 13.5l-.2.3c-.2.3-.4.7-.6 1C9.8 175.3 4 195.3 4 216.6c0 63.3 51.1 114.7 113.9 114.7 42.7 0 80-23.8 99.5-59 12.8-7.6 26.1-11.4 39.5-11.2 12.7.2 25.3 4 37.3 11.2 19.5 35.2 56.8 59 99.5 59 62.8 0 113.9-51.5 113.9-114.7 0-21.3-5.9-41.3-16-58.4zm-326-138.6c35.2 0 63.7 27.7 65 63.1 0 .4.1.8.2 1.2.1.3.2.7.3 1 0 0 0 .1.1.1.1.3.3.5.4.7.1.1.1.2.2.2.1.2.3.4.5.5l.3.3c.1.1.3.3.5.4.1.1.3.2.5.3.1.1.3.1.4.2.2.1.5.2.7.3.1 0 .1.1.2.1h.1c.1 0 .2.1.3.1 6.3 1.7 12.8 2.6 19.2 2.7h1.2c6.9 0 13.8-.9 20.6-2.7.1 0 .2-.1.3-.1h.1c.1 0 .2-.1.3-.1.2-.1.4-.1.6-.2l.6-.3c.1-.1.2-.1.3-.2.2-.2.4-.3.6-.5l.1-.1c.2-.2.4-.5.6-.7.7-.9 1-2.1 1-3.3 1.4-35.4 29.9-63 65-63 22.6 0 43.2 11.5 55.1 30.7.1.2.3.4.4.6l46 64.6c-16-8.7-34.4-13.7-53.8-13.7-43.8 0-81.9 25-100.9 61.6l-8.4-56.8c-.5-3.1-3.3-5.2-6.4-4.8-3.1.5-5.2 3.3-4.8 6.4l10.5 70.7h-55.7l10.5-70.7c.5-3.1-1.7-6-4.8-6.4-3.1-.5-6 1.7-6.4 4.8l-8.4 56.8c-19-36.6-57.1-61.6-100.9-61.6-19.5 0-37.8 5-53.8 13.7l46.2-65c.1-.1.1-.2.2-.3 12.1-19.1 32.7-30.6 55.2-30.6zM117.9 320c-56.5 0-102.5-46.4-102.5-103.4 0-19.6 5.4-37.9 14.8-53.5l9.2-12.9c18.8-22.6 47-37 78.5-37 56.5 0 102.5 46.4 102.5 103.4S174.4 320 117.9 320zm139.2-70.1c-10.9-.2-21.7 1.9-32.3 6.1 4.5-12.3 6.9-25.5 6.9-39.4 0-9-1-17.8-3-26.2h54.1c-2 8.4-3 17.2-3 26.2 0 13.8 2.4 27.1 6.9 39.4-9.6-3.9-19.6-6-29.6-6.1zM393.7 320c-56.5 0-102.5-46.4-102.5-103.4s46-103.4 102.5-103.4c31.5 0 59.7 14.4 78.5 37l9.2 12.9c9.4 15.6 14.8 33.9 14.8 53.5 0 57-46 103.4-102.5 103.4z"/><path d="M109.7 169.7c-2.2-2.2-5.8-2.2-8 0s-2.2 5.8 0 8l57.1 57.6c1.1 1.1 2.6 1.7 4 1.7s2.9-.5 4-1.6c2.2-2.2 2.2-5.8 0-8l-57.1-57.7zm47.5 30.1c1.1 1.1 2.6 1.7 4 1.7s2.9-.5 4-1.6c2.2-2.2 2.2-5.8 0-8l-22-22.1c-2.2-2.2-5.8-2.2-8 0s-2.2 5.8 0 8l22 22z"/></svg>