<svg version="1.1" id="Layer_1" xmlns="http://www.w3.org/2000/svg" x="0" y="0" viewBox="0 0 512 512" xml:space="preserve"><path class="st0" d="M395.2 13.3H121.4c-29.2 0-53 23.8-53 53v383.2c0 29.2 23.8 53 53 53h273.7c29.2 0 53-23.8 53-53V66.3c.1-29.2-23.7-53-52.9-53zm28.1 436.2c0 15.5-12.6 28.2-28.2 28.2H121.4c-15.5 0-28.2-12.6-28.2-28.2V66.3c0-15.5 12.6-28.2 28.2-28.2h273.7c15.5 0 28.2 12.6 28.2 28.2v383.2z"/><path class="st0" d="M359.4 75.8H157.2c-17.4 0-31.5 14.1-31.5 31.5V195c0 17.4 14.1 31.5 31.5 31.5h202.2c17.4 0 31.5-14.1 31.5-31.5v-87.7c0-17.4-14.1-31.5-31.5-31.5zm6.7 119.2c0 3.6-3.1 6.7-6.7 6.7H157.2c-3.6 0-6.7-3.1-6.7-6.7v-87.7c0-3.6 3.1-6.7 6.7-6.7h202.2c3.6 0 6.7 3.1 6.7 6.7V195zm-190.5 81.8c-10.3 0-18.7 8.4-18.7 18.7 0 10.3 8.4 18.7 18.7 18.7 10.3 0 18.7-8.4 18.7-18.7 0-10.3-8.4-18.7-18.7-18.7zm82.7 0c-10.3 0-18.7 8.4-18.7 18.7 0 10.3 8.4 18.7 18.7 18.7 10.3 0 18.7-8.4 18.7-18.7 0-10.3-8.4-18.7-18.7-18.7zm82.7 0c-10.3 0-18.7 8.4-18.7 18.7 0 10.3 8.4 18.7 18.7 18.7 10.3 0 18.7-8.4 18.7-18.7 0-10.3-8.4-18.7-18.7-18.7zm-165.4 55.6c-10.3 0-18.7 8.4-18.7 18.7 0 10.3 8.4 18.7 18.7 18.7 10.3 0 18.7-8.4 18.7-18.7 0-10.3-8.4-18.7-18.7-18.7zm82.7 0c-10.3 0-18.7 8.4-18.7 18.7 0 10.3 8.4 18.7 18.7 18.7 10.3 0 18.7-8.4 18.7-18.7 0-10.3-8.4-18.7-18.7-18.7zm82.7 0c-10.3 0-18.7 8.4-18.7 18.7 0 10.3 8.4 18.7 18.7 18.7 10.3 0 18.7-8.4 18.7-18.7 0-10.3-8.4-18.7-18.7-18.7zM175.6 388c-10.3 0-18.7 8.4-18.7 18.7 0 10.3 8.4 18.7 18.7 18.7 10.3 0 18.7-8.4 18.7-18.7 0-10.3-8.4-18.7-18.7-18.7zm82.7 0c-10.3 0-18.7 8.4-18.7 18.7 0 10.3 8.4 18.7 18.7 18.7 10.3 0 18.7-8.4 18.7-18.7 0-10.3-8.4-18.7-18.7-18.7zm82.7 0c-10.3 0-18.7 8.4-18.7 18.7 0 10.3 8.4 18.7 18.7 18.7 10.3 0 18.7-8.4 18.7-18.7 0-10.3-8.4-18.7-18.7-18.7z"/></svg>