<svg version="1.1" id="Layer_1" xmlns="http://www.w3.org/2000/svg" x="0" y="0" viewBox="0 0 512 512" xml:space="preserve"><path class="st0" d="M385.7 300.6c-3.9 0-7.1-3.2-7.1-7.1v-52.9c0-3.9 3.2-7.1 7.1-7.1h52.9c3.9 0 7.1 3.2 7.1 7.1s-3.2 7.1-7.1 7.1h-45.8v45.8c0 3.9-3.2 7.1-7.1 7.1zm-104.2 0c-3.9 0-7.1-3.2-7.1-7.1v-52.9c0-3.9 3.2-7.1 7.1-7.1h52.9c3.9 0 7.1 3.2 7.1 7.1s-3.2 7.1-7.1 7.1h-45.8v45.8c0 3.9-3.2 7.1-7.1 7.1zm-104.2 0c-3.9 0-7.1-3.2-7.1-7.1v-52.9c0-3.9 3.2-7.1 7.1-7.1h52.9c3.9 0 7.1 3.2 7.1 7.1s-3.2 7.1-7.1 7.1h-45.8v45.8c0 3.9-3.2 7.1-7.1 7.1zm-104.2 0c-3.9 0-7.1-3.2-7.1-7.1v-52.9c0-3.9 3.2-7.1 7.1-7.1H126c3.9 0 7.1 3.2 7.1 7.1s-3.2 7.1-7.1 7.1H80.2v45.8c0 3.9-3.2 7.1-7.1 7.1zm312.6 107.7c-3.9 0-7.1-3.2-7.1-7.1v-52.9c0-3.9 3.2-7.1 7.1-7.1h52.9c3.9 0 7.1 3.2 7.1 7.1s-3.2 7.1-7.1 7.1h-45.8v45.8c0 3.9-3.2 7.1-7.1 7.1zm-104.2 0c-3.9 0-7.1-3.2-7.1-7.1v-52.9c0-3.9 3.2-7.1 7.1-7.1h52.9c3.9 0 7.1 3.2 7.1 7.1s-3.2 7.1-7.1 7.1h-45.8v45.8c0 3.9-3.2 7.1-7.1 7.1zm-104.2 0c-3.9 0-7.1-3.2-7.1-7.1v-52.9c0-3.9 3.2-7.1 7.1-7.1h52.9c3.9 0 7.1 3.2 7.1 7.1s-3.2 7.1-7.1 7.1h-45.8v45.8c0 3.9-3.2 7.1-7.1 7.1zm-104.2 0c-3.9 0-7.1-3.2-7.1-7.1v-52.9c0-3.9 3.2-7.1 7.1-7.1H126c3.9 0 7.1 3.2 7.1 7.1s-3.2 7.1-7.1 7.1H80.2v45.8c0 3.9-3.2 7.1-7.1 7.1z"/><path class="st0" d="M485.9 86.6h-67.6V69.3c0-15.9-13-28.9-28.9-28.9s-28.9 13-28.9 28.9v17.3H151.3V69.3c0-15.9-13-28.9-28.9-28.9s-28.9 13-28.9 28.9v17.3H25.9c-6.1 0-11.1 5-11.1 11.1v354.1c0 6.1 5 11.1 11.1 11.1h460c6.1 0 11.1-5 11.1-11.1v-354c0-6.2-5-11.2-11.1-11.2zM374.7 69.3c0-8.1 6.6-14.7 14.7-14.7s14.7 6.6 14.7 14.7V118c0 8.1-6.6 14.7-14.7 14.7s-14.7-6.6-14.7-14.7V69.3zm-267.1 0c0-8.1 6.6-14.7 14.7-14.7S137 61.2 137 69.3V118c0 8.1-6.6 14.7-14.7 14.7s-14.7-6.6-14.7-14.7V69.3zm-14.1 31.5v17.3c0 15.9 13 28.9 28.9 28.9s28.9-13 28.9-28.9v-17.3h209.2v17.3c0 15.9 13 28.9 28.9 28.9s28.9-13 28.9-28.9v-17.3h64.5v78H28.9v-78h64.6zm-64.6 348V192.9h453.9v255.9H28.9z"/></svg>