<svg version="1.1" id="Layer_1" xmlns="http://www.w3.org/2000/svg" x="0" y="0" viewBox="0 0 512 512" xml:space="preserve"><path class="st0" d="M502.1 484.3l-41.4-82.9c27-21.4 42.8-53.7 42.8-88.6V122.3c0-62.4-50.8-113.2-113.2-113.2H121.9C59.4 9.1 8.7 59.9 8.7 122.3v190.6C8.7 375.3 59.4 426 121.9 426h209l153 76.5c1.9 1 4 1.4 6.1 1.4 3.5 0 7-1.4 9.6-4 4.1-4 5.1-10.3 2.5-15.6zm-162-84c-.1 0-.2-.1-.3-.1-.3-.1-.5-.2-.8-.3-.2-.1-.3-.1-.5-.2s-.5-.2-.7-.2c-.2-.1-.4-.1-.6-.2-.2 0-.4-.1-.6-.1-.3 0-.5-.1-.8-.1-.2 0-.4 0-.5-.1H121.9c-47.4 0-86-38.6-86-86V122.3c0-47.4 38.6-86 86-86h268.5c47.4 0 86 38.6 86 86v190.6c0 29.7-15 56.9-40.2 72.8l-.9.6c-.1.1-.2.1-.2.2-.3.3-.6.5-.9.8l-.1.1c-.2.2-.4.5-.7.7-1.2 1.4-2.2 2.9-2.8 4.6 0 .1-.1.1-.1.2-.1.3-.1.5-.2.8 0 .2-.1.3-.1.5s-.1.4-.1.5c0 .3-.1.5-.1.8v.3c0 .3-.1.7-.1 1v1.3c.1 1.8.6 3.5 1.4 5.2l28.4 56.8-119.6-59.8z"/><path class="st0" d="M393 116.5H115.8c-7.5 0-13.6 6.1-13.6 13.6s6.1 13.6 13.6 13.6H393c7.5 0 13.6-6.1 13.6-13.6-.1-7.5-6.1-13.6-13.6-13.6zM115.8 231.2h123.4c7.5 0 13.6-6.1 13.6-13.6s-6.1-13.6-13.6-13.6H115.8c-7.5 0-13.6 6.1-13.6 13.6s6.1 13.6 13.6 13.6zm181.6 58H115.8c-7.5 0-13.6 6.1-13.6 13.6s6.1 13.6 13.6 13.6h181.6c7.5 0 13.6-6.1 13.6-13.6s-6.1-13.6-13.6-13.6z"/></svg>