<svg xmlns="http://www.w3.org/2000/svg" viewBox="0 0 512 512"><path d="M91.8 127.8c1.4 1.9 3.5 2.9 5.7 2.9 1.5 0 2.9-.4 4.2-1.4 3.2-2.3 3.8-6.7 1.5-9.9l-34.4-47c-2.3-3.2-6.7-3.8-9.9-1.5s-3.8 6.7-1.5 9.9l34.4 47zm37-23.3c.5 3.6 3.5 6.2 7 6.2.3 0 .6 0 .9-.1 3.9-.5 6.6-4.1 6.1-8l-6.7-50c-.5-3.9-4.1-6.6-8-6.1-3.9.5-6.6 4.1-6.1 8l6.8 50zM20.5 137.2l44.9 22.4c1 .5 2.1.8 3.2.8 2.6 0 5.1-1.4 6.3-3.9 1.8-3.5.3-7.8-3.2-9.5l-44.9-22.4c-3.5-1.8-7.8-.3-9.5 3.2-1.7 3.3-.3 7.6 3.2 9.4zm482.1 46c-4.8-14-23-24.6-42.3-24.6-10.7 0-29.1 3.3-45.8 22V80.5c0-17.7-14.1-36.8-36.8-36.8-8.4 0-16.3 2.8-22.7 7.9V51c0-17.7-14.2-36.8-37-36.8-16.3 0-30.2 10.7-35 25.4-6.2-5.6-14.5-9.3-24.4-9.3-9.9 0-19.5 3.9-26.4 10.8-7 7-10.8 16.2-10.8 26v11.7c-5.5-4.1-12.5-6.7-20.6-6.7-19.4 0-35.1 15.6-35.1 34.7v18.3c-7.9 2.3-14.7 7-19.5 13.7-5.5 7.6-8 17.1-6.9 26l.1.6c-7-4.3-15.2-6.1-23.5-5.1-10.4 1.2-19.4 6.6-25.4 14.9-5.4 7.5-7.8 17-6.8 26l12 99.4c-18.8-16.6-37.4-17.7-48.1-16.4-19.2 2.3-36 15-39 29.5C5.8 326.3 15 334 25.8 343c12.8 10.7 34.2 28.7 53.8 64.6 21.4 39.3 40.7 61.9 64.5 75.5 18.2 10.4 39 15.4 65.3 15.4 9.9 0 20.6-.7 32.1-2.1 39.2-4.7 70.7-21 91-47 14.5-18.6 22.6-41.7 23.1-65.3 45.8-14.9 68.3-50.5 87.6-99.3 15.1-38 34.2-58.4 45.7-70.6 9.6-10.2 17.8-19 13.7-31zm-260.4-132c4.2-4.2 10.2-6.6 16.4-6.6 14 0 22.6 11.7 22.6 22.6v104.9c-2.2 1.3-4.2 2.9-6 4.6l-1.4-11.6c-1.2-9.7-6.1-18.5-13.8-24.6-6.8-5.3-15.6-8.1-24.4-7.8V67.2c0-6 2.3-11.7 6.6-16zm-41.4 35.1c12.7 0 20.6 10.7 20.6 20.6v29.2c-4.6 2.1-8.7 5.1-12.1 9-2.4-5.2-6-9.8-10.7-13.5-5.5-4.3-12-6.9-18.8-7.7v-17.1c.1-11.1 9.7-20.5 21-20.5zm120.5 354.4c-18 23-46.2 37.4-81.5 41.7-74.4 9-108.9-10.1-147.8-81.5-20.9-38.3-43.6-57.4-57.2-68.8-9.7-8.2-13.3-11.6-12.5-15.3 1.6-7.5 12.8-16.6 26.9-18.3 1.4-.2 3-.3 4.7-.3 11 0 28.2 4.4 44.5 26.9.4.6.9 1.2 1.3 1.8 1.9 2.5 5.3 3.5 8.3 2.3 3-1.2 4.8-4.2 4.4-7.4l-14.7-122c-.7-5.5.9-11.3 4.2-16.1 2.6-3.6 7.3-8.1 15.5-9.1 6-.7 11.9.9 16.6 4.7 4.7 3.7 7.8 9.1 8.5 15.1l11.4 94.3c.5 3.9 4 6.7 7.9 6.2 3.9-.5 6.7-4 6.2-7.9l-14.8-123.6c-.7-5.4 1-11.3 4.3-16 2.6-3.6 7.5-8.2 15.7-9.2 6-.7 11.9.9 16.6 4.7 4.8 3.7 7.8 9.1 8.5 15.1l15.9 132.1c.5 3.9 4 6.7 7.9 6.2 3.9-.5 6.7-4 6.2-7.9l-14-116c-.7-5.5.9-11.3 4.2-16.1 2.6-3.6 7.3-8.1 15.5-9.1 6.1-.7 12.3.9 17 4.6 4.7 3.7 7.8 9.1 8.5 15.1l15.1 126c.5 3.9 4 6.7 7.9 6.2 3.9-.5 6.7-4 6.2-7.9l-10.4-86.6c-1-8.3 3.5-17.8 12.5-21.5h.1c1.7-.7 3.5-1.2 5.4-1.4 11.5-1.4 21.9 6.7 23.3 17.9l21 171.2c3.2 24.7-3.9 50.3-19.3 69.9zm157.2-236.1c-12.1 12.9-32.4 34.6-48.5 75-20.8 52.5-41.8 77.8-75.2 89.8v-.5l-21-171.2c-2.3-18.8-19.5-32.3-38.5-30.3V51c0-12.5 10.1-22.6 22.6-22.6 14.1 0 22.9 11.7 22.9 22.6l.1 124.5c0 3.9 3.2 7.1 7.1 7.1 3.9 0 7.1-3.2 7.1-7.1v-95c0-6 2.3-11.7 6.6-16 4.3-4.3 9.9-6.6 16-6.6 14 0 22.6 11.7 22.6 22.6v122.9c0 3.2 2.2 6 5.2 6.8 3.1.8 6.4-.5 8-3.3.1-.3.3-.5.4-.8.2-.3.3-.6.5-.9 0-.1.1-.1.1-.2 15.6-28.1 35.3-32.3 45.7-32.3 14.2 0 26.4 7.8 28.9 15 1.3 3.7-1.8 7.6-10.6 16.9z" fill="#091821"/></svg>