<svg version="1.1" id="Layer_1" xmlns="http://www.w3.org/2000/svg" x="0" y="0" viewBox="0 0 410 512" xml:space="preserve"><path class="st0" d="M275.3 467.9c3.8-30.1-3.1-124.6-3.4-128.5-.6-10.1-4.5-18-10.7-22.2L175.5 259l36-54c21.7 22.8 38 38.9 48.6 42.6 19.9 6.9 77.1 15.2 81.4 15.9 12.5 2.4 24.5-6.5 27.8-20.8 4.3-18.4-7.8-28-14.6-30.5l-74.4-27.4c0-.1-43.9-56.8-43.9-56.9-8.2-10.3-12.9-18.8-30.3-25.8-19.9-7.5-110-15.5-121.5-15.9-14.5-.6-21.8 8-26.9 16.6L9.8 184.7c-7 8.6-6.3 29.2 8.4 36.9 8.1 5.3 24.9 10.1 36.9-4.6l48.8-59.4 8.6 2c-11.2 18.7-37.6 63.2-47.1 82-18.9 31.9 9 80 50.9 94.2-.5 1.9-42.6 118.8-42.8 120.7-1.5 13.3 6.7 26 23.1 30.9 23 7 34.1-5.1 37-13.1l54.1-105.8c4.2 1.9 7.6 3.5 9.8 4.6l15 91c.8 8.4 7.9 24.2 29.3 25.7 12.2.6 31.5-6.5 33.5-21.9zm-154.9.1c-1.3 3-4 10-20 5.5-12.7-4-13.4-12-13.3-14.8L129 341.3c14.3 6.5 31.4 14.5 45.4 20.9l-54 105.8zm122.1 7.3c-14.6-1.3-16-11-16.3-13.6l-15.6-95c-2.9-9.2-48.3-23.7-82.5-41.3 0-.1-.1 0-.2-.1C92.1 313.1 62 278.8 78 247.6c11.7-23.2 51.2-88.8 51.6-89.5 2.5-3.9.2-9.7-4.5-10.6l-22.6-5c-4.7-6.8-55.5 64-58.7 65.3-11.4 12.8-31.8-3.9-22.1-15.9l48-82c5.1-8.6 8.7-10 14.1-9.7 15.9.7 101 8.9 116.9 15 11.3 4.3 15.6 10 21 17.1-1.3-2.1 47.9 62 48.5 62.5.8 1.1 1.9 1.8 3.1 2.3l76.3 28.1c9.6 1.9 8 25.8-6 24.1-.6-.1-60-8.7-79-15.3-9.1-3.1-31.9-27.2-48.5-44.8-1.6-1.8-3.9-3-6.3-2.7-2.8-5.4-48.5 69.7-50.2 70.3-2.1 3.3-1.3 7.6 1.9 9.8l91.5 62.1c2.4 1.7 4.1 6 4.5 11.4.1 1 7.2 97.1 3.5 125.8-.4 5.5-11.1 10-18.5 9.4z"/><path class="st0" d="M233.2 102.5c39.1 71.3 146.1 15.2 109.6-57.5-39-71.3-146-15.2-109.6 57.5zm97.1-50.9c28.1 56-54.4 99.3-84.5 44.3-28.1-56 54.4-99.3 84.5-44.3zm39.8 151.3c14.7 5.6 22.4 23.7 16.3 38.2-1.5 3.7.4 7.8 3.9 9.2 16 3.5 13.4-28.4 8.9-37.3-4.6-10.7-13-19-23.8-23.3-8.4-3.6-13.9 9.8-5.3 13.2zM46.4 89.6C48 75.8 61.7 65.4 75.6 67.5c3.9.6 7.4-2.2 8-6-.6-15.8-28.2-6.6-35.6-.3-8.8 7.1-17.4 19.1-14.8 30.7 2.8 5.9 12.6 4.5 13.2-2.3zM306 480.3c3.6-11.3 2.6-23.2-2.8-33.8-4-8.3-16.9-1.7-12.6 6.4 3.6 7.1 4.4 15.2 1.9 23-3.5 15.8-22.9 16.6-17.9 27 9.8 13.3 29.1-12.9 31.4-22.6z"/></svg>