<svg version="1.1" id="Layer_1" xmlns="http://www.w3.org/2000/svg" x="0" y="0" viewBox="0 0 396.2 512" xml:space="preserve"><path class="st0" d="M390.7 138.4c0-.4 0-.8-.1-1.2v-.4c-.1-.5-.1-1-.2-1.5 0-.1-.1-.3-.1-.4-.1-.3-.2-.7-.3-1-.1-.2-.1-.4-.2-.6l-.3-.9c-.1-.2-.1-.4-.2-.5-.2-.4-.4-.9-.6-1.3-.1-.1-.1-.3-.2-.4l-.6-.9c-.1-.1-.2-.3-.3-.4-.2-.3-.4-.6-.6-.8-.1-.1-.2-.2-.3-.4-.3-.4-.7-.8-1-1.1L268.1 9c-.4-.4-.7-.7-1.1-1l-.3-.3-.9-.6c-.1-.1-.3-.2-.4-.3-.3-.2-.6-.4-1-.6-.1-.1-.2-.1-.3-.2-.4-.2-.9-.4-1.3-.6-.2-.1-.3-.1-.5-.2l-.9-.3c-.2-.1-.4-.1-.6-.2-.4-.1-.7-.2-1.1-.3-.1 0-.2-.1-.4-.1-.5-.1-1-.2-1.5-.2h-.4c-.4 0-.9-.1-1.3-.1H20.9C11.4 4 3.7 11.6 3.7 21.1v470.3c0 9.4 7.7 17.1 17.1 17.1h352.7c9.4 0 17.1-7.7 17.1-17.1V138.6c.1 0 .1-.1.1-.2zm-117.6-76l59.2 59.2h-59.2V62.4zM38 474.2v-436h200.9v100.5c0 9.4 7.7 17.1 17.1 17.1h100.5v318.5H38z"/><path class="st0" d="M79.6 214.5h117.6c9.4 0 17.1-7.7 17.1-17.1s-7.7-17.1-17.1-17.1H79.6c-9.4 0-17.1 7.7-17.1 17.1s7.7 17.1 17.1 17.1zm176.4 54H79.6c-9.4 0-17.1 7.7-17.1 17.1 0 9.4 7.7 17.1 17.1 17.1H256c9.4 0 17.1-7.7 17.1-17.1 0-9.4-7.7-17.1-17.1-17.1zm0 88.2H79.6c-9.4 0-17.1 7.7-17.1 17.1s7.7 17.1 17.1 17.1H256c9.4 0 17.1-7.7 17.1-17.1s-7.7-17.1-17.1-17.1z"/></svg>