<svg version="1.1" id="Layer_1" xmlns="http://www.w3.org/2000/svg" x="0" y="0" viewBox="0 0 512 512" xml:space="preserve"><path class="st0" d="M487.6 329.4c-6.3 0-11.3 5.1-11.3 11.3V445H36.6V340.8c0-6.3-5.1-11.3-11.3-11.3S14 334.6 14 340.8v115.6c0 6.3 5.1 11.3 11.3 11.3h462.4c6.3 0 11.3-5.1 11.3-11.3V340.8c0-6.3-5.1-11.4-11.4-11.4z"/><path class="st0" d="M248.4 348.8c.3.3.6.5.8.8 1.8 1.5 3.9 2.3 6 2.5.4 0 .7.1 1.1.1h1.3c.3 0 .6-.1.9-.1h.1c.3-.1.7-.1 1-.2.3-.1.7-.2 1-.4.3-.1.6-.2.8-.4.1-.1.2-.1.3-.2l.6-.3c.1-.1.2-.1.3-.2.2-.2.4-.3.7-.5l.1-.1c.3-.2.5-.5.8-.7l.1-.1L380 233.2c4.4-4.4 4.4-11.6 0-16s-11.6-4.4-16 0l-96.2 96.2V51.8c0-6.3-5.1-11.3-11.3-11.3-6.3 0-11.3 5.1-11.3 11.3v261.6L149 217.2c-4.4-4.4-11.6-4.4-16 0s-4.4 11.6 0 16l115.4 115.6z"/></svg>