<svg version="1.1" id="Layer_1" xmlns="http://www.w3.org/2000/svg" x="0" y="0" viewBox="0 0 512 512" xml:space="preserve"><path class="st0" d="M415.1 440H361c-4.8 0-8.8-3.9-8.8-8.8 0-4.8 3.9-8.8 8.8-8.8h54.1c4.8 0 8.8 3.9 8.8 8.8-.1 4.9-4 8.8-8.8 8.8zM308.4 168c-50.2 0-96-26.7-114-66.4-2-4.4 0-9.6 4.4-11.6s9.6 0 11.6 4.4c15.2 33.6 54.6 56.1 98.1 56.1 11 0 21.8-1.4 32.2-4.2 4.7-1.2 9.5 1.5 10.7 6.2 1.2 4.7-1.5 9.5-6.2 10.7-11.9 3.2-24.2 4.8-36.8 4.8z"/><path class="st0" d="M488.3 497.1l-8.6-121.9c-.1-29.7-20.8-55.4-48.1-59.7l-43.1-7.5V141.5c0-74.3-58.8-134.8-131-134.8s-131 60.5-131 134.8l.1 166.4-43 7.5c-28.3 4.5-48.1 29.1-48.3 59.8l-8.6 121.9c-.3 4.8 3.3 9 8.1 9.4h.6c4.6 0 8.4-3.5 8.7-8.1l8.6-122.2v-.6c0-22.4 13.5-39.6 33.6-42.8l85.2-14.9c2.7 15.8 11.4 32.5 24.3 46.3 17.4 18.5 39.2 28.7 61.5 28.7 22.3 0 44.1-10.2 61.5-28.7 12.9-13.8 21.6-30.5 24.3-46.3l85.3 14.9c18.8 3 33.5 21.8 33.5 42.8v.6l8.6 122.2c.3 4.6 4.2 8.1 8.7 8.1h.6c5.2-.4 8.9-4.6 8.5-9.4zM144.1 141.5c0-64.7 50.9-117.3 113.4-117.3 62.6 0 113.5 52.6 113.5 117.3v163.4l-31.3-5.5c-7.7-7.5-17.2-16.7-26.8-26 4.4-5 8.6-10.6 12.5-16.9 17-27.3 26.3-63.5 26.3-101.8 0-4.8-3.9-8.8-8.8-8.8-4.8 0-8.8 3.9-8.8 8.8 0 35.1-8.4 67.9-23.7 92.5-14.5 23.3-33.2 36.1-52.9 36.1s-38.4-12.8-52.9-36.1c-15.3-24.6-23.7-57.4-23.7-92.5 0-4.8-3.9-8.8-8.8-8.8s-8.8 3.9-8.8 8.8c0 38.3 9.3 74.4 26.3 101.8 3.9 6.2 8.1 11.9 12.5 16.9-9.6 9.3-19.1 18.5-26.8 26l-31.2 5.5V141.5zm113.5 233.8c-37.8 0-66.6-37.6-69-64.2l26.5-25.7c13 10.1 27.4 15.5 42.5 15.5 15.1 0 29.6-5.4 42.5-15.5l26.5 25.7c-2.4 26.6-31.3 64.2-69 64.2z"/></svg>