<svg xmlns="http://www.w3.org/2000/svg" viewBox="0 0 512 381"><path d="M123 144.7c37.3 0 67.6-30.3 67.6-67.6S160.3 9.5 123 9.5 55.4 39.8 55.4 77.1s30.3 67.6 67.6 67.6zm0-121c29.5 0 53.4 24 53.4 53.4 0 29.5-24 53.5-53.4 53.5-29.5 0-53.4-24-53.4-53.5s24-53.4 53.4-53.4zm267.7 124.8c36.6 0 66.4-29.8 66.4-66.4s-29.8-66.4-66.4-66.4-66.4 29.8-66.4 66.4c0 36.6 29.8 66.4 66.4 66.4zm0-118.6c28.8 0 52.2 23.4 52.2 52.2s-23.4 52.2-52.2 52.2c-28.8 0-52.2-23.4-52.2-52.2s23.4-52.2 52.2-52.2zm102.9 192v-.2c-2.5-20.2-12.2-37.9-27.3-49.7-14.4-11.3-32.4-16.6-50.6-14.8-34.4 3.3-60.8 31.2-65.5 69.4-5.7 45.8-42 77.1-92.7 80.2-2.8-1-5.8-1.7-8.9-2-47-4.1-78.5-34.3-84.3-80.7-4.9-39.2-31.7-67.6-66.7-70.6-18.5-1.6-36.7 3.5-51.2 14.6-15.8 12.1-25.5 29.7-28.1 51.1v.2L4.4 370.6l14.1 1.3 13.8-151.2c4.8-38.2 35.8-55.7 64-53.2 32.6 2.9 50.6 31.3 53.9 58.3 6.6 52.7 43.8 88.4 97.1 93.1 11 .9 18.9 10.4 18 21.6-1.1 14-13.5 17.9-20.1 17.9-58.1-4.2-106.4-37.2-126.1-86.1l-13.1 5.3c7.8 19.4 20.1 37 35.8 51.7l-3.5 41.4 14.1 1.2 2.7-31.6c.8.6 1.5 1.1 2.3 1.7 24.7 17.7 54.9 28.3 87.1 30.6h.6c3.6 0 7.2-.5 10.7-1.6 39.4 1.6 78.1-13.1 102.4-29.8l3.6 30.8 14.1-1.7-5.1-43.2c-.3-2.6-2-4.8-4.5-5.8-2.4-.9-5.2-.5-7.2 1.3-17.4 15.1-49.4 30.4-84.2 33.7 2.5-4.2 4.1-9.1 4.6-14.8.6-8.2-1.7-16-6.1-22.3 49.8-8.4 84.8-42.7 90.8-90.9 3.9-31.4 25.1-54.3 52.8-57 26.8-2.6 57.7 14.8 62.5 52.1L493 371.8l14.1-1.3-13.5-148.6z" fill="#091821"/></svg>