<svg xmlns="http://www.w3.org/2000/svg" viewBox="0 0 512 512"><path d="M483.6 279.6c-7.1-7.3-15.5-12.9-24.7-16.5 16.7-28.7 25.2-56.2 25.2-82 0-36.2-13.8-70.2-38.8-95.8-25.1-25.7-58.5-39.8-94.1-39.8-41 0-78.8 18.8-104.2 51.6-25.4-32.8-63.2-51.6-104.2-51.6-73.3 0-133 60.8-133 135.6 0 52.5 34.3 110.8 101.8 173.2 52 48 108.5 83.9 124.5 93.8 3.3 2 7 3.1 10.8 3.1 3.7 0 7.4-1 10.8-3.1 6.9-4.3 24.3-15.2 46.1-30.7 1.6 1.6 3.3 3.2 5.1 4.8 26.4 24.4 55 42.6 63.1 47.6 2.6 1.6 5.5 2.4 8.3 2.4 2.9 0 5.8-.8 8.3-2.4 8.1-5 36.8-23.2 63.1-47.6 35-32.3 52.7-62.9 52.7-90.8.2-19.5-7.3-38-20.8-51.8zM247 428.1c-17-10.5-70.5-44.9-119.9-90.5-61.9-57.1-94.6-111.3-94.6-156.5 0-62.2 49.5-112.9 110.2-112.9 34.6 0 66.5 16.2 87.6 44.5 4 5.4 10.1 8.4 16.6 8.4 6.6 0 12.6-3.1 16.6-8.4 21.1-28.3 53-44.5 87.6-44.5 29.4 0 57.1 11.7 77.9 33 20.9 21.3 32.4 49.7 32.4 79.9 0 23.6-8.7 49.4-26 77-.9 0-1.9-.1-2.8-.1h-.1c-20 0-38.5 8.2-52.1 22.7-13.6-14.5-32.1-22.7-52.1-22.7-2.5 0-4.9.1-7.4.4-36.3 3.8-64.8 35.1-64.8 73.1v3.2c0 .5.1 1 .1 1.5 0 .3 0 .7.1 1 0 .4.1.8.1 1.3.2 1.7.4 3.5.7 5.3v.1c3.2 18.1 13.5 37.2 30.8 57.1-18.8 13.2-33.9 22.8-40.9 27.1zm189.5-22.6c-21.9 20.2-45.5 36-56.1 42.7-10.6-6.7-34.2-22.5-56.1-42.7-3.7-3.4-7.1-6.7-10.3-10-.2-.3-.5-.6-.7-.8-7.8-8.1-14.3-15.8-19.4-23.3-.1-.1-.1-.2-.2-.3-.2-.3-.4-.6-.6-.8-8.3-12.4-13.1-24.1-14.1-34.6v-.3c0-.5-.1-1.1-.1-1.6v-2.3c0-17.5 8.7-33 21.8-42.1.7-.5 1.3-.9 2-1.3 1.4-.8 2.8-1.6 4.2-2.3 6.5-3.2 13.8-5 21.4-5 15.5 0 29.8 7.3 39.2 20l1.2 1.5c3 3.2 7.2 5 11.6 5 3.8 0 7.4-1.3 10.3-3.7 1-.8 1.8-1.7 2.6-2.8 2.4-3.2 5-6 7.9-8.5 8.7-7.4 19.7-11.5 31.3-11.5h1.7c1.6.1 3.4.3 5.4.5.3.1.7.1 1 .1 10.1 1.7 19.4 6.5 26.8 14.1 9.4 9.6 14.6 22.4 14.6 36 0 20.9-15.7 46.6-45.4 74z" fill="currentColor"/></svg>