<svg version="1.1" id="Layer_1" xmlns="http://www.w3.org/2000/svg" x="0" y="0" viewBox="0 0 512 279.2" xml:space="preserve"><path class="st0" d="M430 203.4c-2.2.9-3.7 3.1-3.7 5.5v63h11.9V225c13.8 19.1 17.1 38.8 18 47.4l11.9-1.1c-1.1-11.7-6.5-41.7-31.6-66.7-1.7-1.6-4.3-2.1-6.5-1.2zm-347.9 0c-2.2-.9-4.8-.4-6.5 1.3-25.2 24.9-30.5 54.9-31.6 66.6l11.9 1.1c.8-8.6 4.2-28.3 18-47.4v46.8h11.9v-63c-.1-2.3-1.5-4.5-3.7-5.4zm46.7-79.7c27 0 49-22 49-49s-22-49-49-49-49 22-49 49c-.1 27 21.9 49 49 49zm0-86.1c20.4 0 37.1 16.6 37.1 37.1s-16.6 37.1-37.1 37.1-37.1-16.6-37.1-37.1 16.6-37.1 37.1-37.1zM383.3 127c27 0 49-22 49-49s-22-49-49-49-49 22-49 49 22 49 49 49zm0-86.1c20.5 0 37.1 16.6 37.1 37.1s-16.6 37.1-37.1 37.1c-20.4 0-37.1-16.6-37.1-37.1s16.7-37.1 37.1-37.1zm-129.4-7c3.3 0 6-2.7 6-6V14.3c0-3.3-2.7-6-6-6s-6 2.7-6 6v13.5c0 3.4 2.7 6.1 6 6.1zm31.5 7.6c.9.6 2 .8 3 .8 2 0 4-1.1 5.2-3l6.8-11.7c1.7-2.8.7-6.5-2.1-8.2-2.8-1.7-6.5-.7-8.2 2.1l-6.8 11.7c-1.7 3-.8 6.7 2.1 8.3zm-71.2-2.1c1.1 1.9 3.1 3 5.2 3 1 0 2.1-.3 3-.8 2.8-1.7 3.8-5.3 2.1-8.2l-6.8-11.7c-1.7-2.8-5.3-3.8-8.2-2.1-2.8 1.7-3.8 5.3-2.1 8.2l6.8 11.6z"/><path class="st0" d="M482.3 198.4c-22.2-31-55.1-51.3-97.8-60.3-55.4-11-96.8-53.9-104.9-62.9-.2-10.2-6.4-19.9-16.5-23.9-3.1-1.2-6.3-1.8-9.5-1.8-10.7 0-20.2 6.4-24.3 16.4-.9 2.2-22.1 53.6-88 64.7C36.9 148.2 5.6 227.5 3.5 271.6l11.9.6c1.9-40.5 30.9-113.5 127.8-129.8 72.5-12.2 96.1-69.6 97.1-72.1 2.2-5.4 7.4-8.9 13.2-8.9 1.8 0 3.5.3 5.2 1 7.2 2.8 10.8 11 8 18.2-2.5 6.4-25.9 63.1-90.9 85.7-2.4.8-4 3.1-4 5.6v100h11.9v-95.8c33-12.4 55.7-33.1 70.6-51.8 26 27.5 51.5 47.5 74.1 58v89.5h11.9v-93.4c0-2.4-1.4-4.5-3.6-5.5-22.4-9.6-48.3-29.8-75.2-58.4 7.6-10.9 12.2-20.3 14.6-25.7 15.4 15.7 54.5 50.6 106 60.8 106.8 22.7 114 112.4 114.5 122.6l11.9-.6c-.5-11.7-4.2-42.3-26.2-73.2z"/></svg>