<svg version="1.1" id="Layer_1" xmlns="http://www.w3.org/2000/svg" x="0" y="0" viewBox="0 0 512 429" xml:space="preserve"><path class="st0" d="M510.2 420.4c-.7-5-17.2-118.1-29-156.2 10.2-8.5 14.5-18.9 12.6-31-3.4-22.2-20.3-35.5-41.2-32.4-46.8 7.1-75.1 11.4-104.1 11.2-30.5-.2-55.6-4.5-82.1-9-27.9-4.8-56.8-9.7-92.9-9.7-95.4 0-121.7 15.9-141.6 49.3C10.1 279.2 1.7 415.2 1.3 420.9l14.1.8c.1-1.4 8.5-138.3 28.7-172.1 17.5-29.3 40.3-42.4 129.5-42.4 34.9 0 63.2 4.8 90.5 9.5 25.9 4.4 52.7 9 84.4 9.3 30.1.2 58.8-4.1 106.3-11.3 15.8-2.4 23.3 9.5 25 20.5 1 6.3.1 15.8-19 24.9-15.4 7.4-36.6 17.5-108.2 22.1-48.5 3.1-92.5 5.3-93 5.3-3.5.2-6.4 2.9-6.7 6.4l-12 126.7 14.1 1.3 11.4-120.6c13.8-.7 49.1-2.6 87.1-5 74.3-4.8 96.9-15.5 113.4-23.4l1.8-.9c11.4 40 27.2 149.1 27.4 150.3l14.1-1.9z"/><path transform="rotate(-7.753 427.212 385.895)" class="st0" d="M420.1 350.1h14.2v71.6h-14.2z"/><path transform="rotate(-82.918 91.5 376.8)" class="st0" d="M46.6 369.7h89.8v14.2H46.6z"/><path class="st0" d="M165.8 173c46.3 0 84-37.7 84-84s-37.7-84-84-84-84 37.7-84 84 37.7 84 84 84zm0-153.9c38.5 0 69.9 31.3 69.9 69.9 0 38.5-31.3 69.8-69.9 69.8-38.5 0-69.8-31.3-69.8-69.8s31.3-69.9 69.8-69.9zm132.4 179.2c1.4 0 2.8-.4 4-1.3 3.2-2.2 4-6.6 1.8-9.9-7.7-11-11.7-24-11.7-37.5 0-36.3 29.5-65.8 65.8-65.8s65.8 29.5 65.8 65.8c0 12.5-3.5 24.7-10.2 35.2-2.1 3.3-1.1 7.7 2.2 9.8 3.3 2.1 7.7 1.1 9.8-2.2a79.93 79.93 0 0012.4-42.8c0-44.1-35.9-80-80-80s-80 35.9-80 80c0 16.4 4.9 32.2 14.2 45.6 1.4 2 3.6 3.1 5.9 3.1z"/></svg>