<svg width="2.04em" height="2.4em" viewBox="0 0 17 20" fill="none" xmlns="http://www.w3.org/2000/svg">
<g id="Group">
<g id="Group_2">
<g id="Group_3">
<path id="Vector" fill-rule="evenodd" clip-rule="evenodd" d="M9.06882 3.36934V11.2697C9.06882 11.7243 8.70288 12.0929 8.24438 12.0929C7.78905 12.0929 7.41994 11.724 7.41994 11.2697V3.36667L6.48877 4.29784C6.16978 4.61684 5.65242 4.61668 5.32822 4.29247C5.00625 3.9705 5.00815 3.4466 5.32284 3.13191L7.66545 0.789298C7.82407 0.630683 8.03173 0.550977 8.2403 0.550781L8.24659 0.553242C8.45597 0.553689 8.66416 0.632828 8.82063 0.789298L11.1632 3.13191C11.4822 3.45091 11.4821 3.96826 11.1579 4.29247C10.8359 4.61443 10.312 4.61253 9.99732 4.29784L9.06882 3.36934ZM1.64888 15.8029H14.8399V10.028C14.8399 9.57479 15.2058 9.20738 15.6643 9.20738C16.1196 9.20738 16.4888 9.57764 16.4888 10.028V16.6311C16.4888 16.8575 16.3974 17.0626 16.2488 17.211C16.098 17.36 15.8927 17.4518 15.6654 17.4518H0.823321C0.596595 17.4518 0.391273 17.3608 0.242379 17.2127C0.0921275 17.0611 0 16.8561 0 16.6311V10.028C0 9.57479 0.365939 9.20738 0.824438 9.20738C1.27976 9.20738 1.64888 9.57764 1.64888 10.028V15.8029Z" fill="currentColor"/>
</g>
</g>
</g>
</svg>