<svg version="1.1" id="Layer_1" xmlns="http://www.w3.org/2000/svg" x="0" y="0" viewBox="0 0 512 512" xml:space="preserve"><path class="st0" d="M413.8 388.8c-23.1-10-53.4-17.5-88.1-21.8 46.1-58.5 100.7-139.8 100.7-197.1C426.3 68.6 340.3 8 257.1 8 173.9 8 87.9 68.6 87.9 169.9c0 57.3 54.6 138.6 100.7 197.1-35 4.3-65.4 11.8-88.5 22-36.7 16-44.4 34.1-44.4 46.4 0 21.2 21.5 39.6 62.1 53.2 37.3 12.4 86.8 19.3 139.4 19.3 52.5 0 102-6.9 139.4-19.3 40.6-13.5 62.1-31.9 62.1-53.2-.1-12.4-7.9-30.6-44.9-46.6zM257.1 23.9c75.4 0 153.4 54.6 153.4 146 0 80.8-124.8 222-153.4 253.2-28.5-31.2-153.4-172.3-153.4-253.2 0-91.4 78-146 153.4-146zm134.4 449.6C355.7 485.4 308 492 257.1 492s-98.6-6.6-134.4-18.5c-32.1-10.7-51.3-24.9-51.3-38.1 0-19.7 45.1-45.1 128.8-53.7 26.9 33 48.7 56.1 51.1 58.6l5.8 6.1 5.8-6.1c2.4-2.5 24.2-25.6 51.1-58.6 83.7 8.7 128.8 33.9 128.8 53.7-.1 13.1-19.2 27.4-51.3 38.1z"/><path class="st0" d="M313.4 177.3c0-31.1-25.3-56.3-56.3-56.3-31.1 0-56.3 25.3-56.3 56.3 0 31.1 25.3 56.3 56.3 56.3 31 0 56.3-25.3 56.3-56.3zm-96.8 0c0-22.3 18.1-40.5 40.5-40.5s40.5 18.1 40.5 40.5-18.1 40.5-40.5 40.5-40.5-18.2-40.5-40.5z"/></svg>