<svg version="1.1" id="Layer_1" xmlns="http://www.w3.org/2000/svg" x="0" y="0" viewBox="0 0 512 231" xml:space="preserve"><path style="fill:currentColor" d="M195.5 108.8s-16.6-6.5-27.7-10.9c5.9-8.8 9.3-19.4 9.3-30.8 0-30.7-25-55.7-55.7-55.7s-55.7 25-55.7 55.7c0 11.4 3.5 22 9.4 30.9-12.8 5-27.8 10.8-27.8 10.8-14.1 5.5-35.3 13.7-35.3 42.7v62.4c0 4.1 3.4 7.5 7.5 7.5h203.9c4.1 0 7.5-3.4 7.5-7.5v-62.4c-.1-29-21.4-37.3-35.4-42.7zm-74.2-82.4c22.5 0 40.7 18.3 40.7 40.7 0 22.5-18.3 40.7-40.7 40.7-22.5 0-40.7-18.3-40.7-40.7 0-22.5 18.3-40.7 40.7-40.7zm94.4 180h-27.1V174c0-4.1-3.4-7.5-7.5-7.5s-7.5 3.4-7.5 7.5v32.4H69.1V174c0-4.1-3.4-7.5-7.5-7.5s-7.5 3.4-7.5 7.5v32.4H26.9v-54.9c0-17.5 10.2-22.7 25.7-28.7 0 0 18.2-7.1 33.1-12.9 9.7 8.1 22.1 12.9 35.6 12.9s26-4.9 35.6-12.9c15 5.8 33.1 12.9 33.1 12.9 15.5 6 25.7 11.3 25.7 28.7v54.9z"/><path style="fill:currentColor" d="M285.6 108.8s-16.9-6.6-27.7-10.8c6.1-9.1 9.3-19.7 9.3-30.9 0-30.7-25-55.7-55.7-55.7-6.5 0-12.8 1.1-18.9 3.3-3.9 1.4-5.9 5.7-4.5 9.6 1.4 3.9 5.7 5.9 9.6 4.5 4.4-1.6 9.1-2.4 13.8-2.4 22.5 0 40.7 18.3 40.7 40.7 0 10.9-4.3 21.1-12 28.8-1.8 1.8-2.6 4.4-2 6.9.5 2.5 2.3 4.5 4.6 5.5 14.3 5.5 37.4 14.5 37.4 14.5 15.5 6 25.7 11.3 25.7 28.7v54.9h-44.2c-4.1 0-7.5 3.4-7.5 7.5s3.4 7.5 7.5 7.5h51.7c4.1 0 7.5-3.4 7.5-7.5v-62.4c0-29-21.2-37.3-35.3-42.7z"/><path style="fill:currentColor" d="M376.3 108.8s-16.9-6.6-27.7-10.8c6.1-9.1 9.3-19.7 9.3-30.9 0-30.7-25-55.7-55.7-55.7-6.5 0-12.8 1.1-18.9 3.3-3.9 1.4-5.9 5.7-4.5 9.6 1.4 3.9 5.7 5.9 9.6 4.5 4.4-1.6 9.1-2.4 13.8-2.4 22.5 0 40.7 18.3 40.7 40.7 0 10.9-4.3 21.1-12 28.8-1.8 1.8-2.6 4.4-2 6.9.5 2.5 2.3 4.5 4.6 5.5 14.3 5.5 37.4 14.5 37.4 14.5 15.5 6 25.7 11.3 25.7 28.7v54.9h-44.2c-4.1 0-7.5 3.4-7.5 7.5s3.4 7.5 7.5 7.5h51.7c4.1 0 7.5-3.4 7.5-7.5v-62.4c0-29-21.2-37.3-35.3-42.7z"/><path style="fill:currentColor" d="M465.1 108.8s-16.9-6.6-27.7-10.8c6.1-9.1 9.3-19.7 9.3-30.9 0-30.7-25-55.7-55.7-55.7-6.5 0-12.8 1.1-18.9 3.3-3.9 1.4-5.9 5.7-4.5 9.6 1.4 3.9 5.7 5.9 9.6 4.5 4.4-1.6 9.1-2.4 13.8-2.4 22.5 0 40.7 18.3 40.7 40.7 0 10.9-4.3 21.1-12 28.8-1.8 1.8-2.6 4.4-2 6.9.5 2.5 2.3 4.5 4.6 5.5 14.3 5.5 37.4 14.5 37.4 14.5 15.5 6 25.7 11.3 25.7 28.7v54.9h-44.2c-4.1 0-7.5 3.4-7.5 7.5s3.4 7.5 7.5 7.5h51.7c4.1 0 7.5-3.4 7.5-7.5v-62.4c0-29-21.2-37.3-35.3-42.7z"/></svg>