<svg version="1.1" id="Layer_1" xmlns="http://www.w3.org/2000/svg" x="0" y="0" viewBox="0 0 512 512" xml:space="preserve"><path class="st0" d="M255.7 157.7c42.5 0 77-34.5 77-77s-34.5-77-77-77-77 34.5-77 77 34.5 77 77 77zm0-139.7c34.6 0 62.8 28.2 62.8 62.8 0 34.6-28.2 62.8-62.8 62.8-34.6 0-62.8-28.2-62.8-62.8 0-34.7 28.2-62.8 62.8-62.8zm0 308.5c-44.8 0-78.6 16.2-78.6 37.7 0 21.5 33.8 37.7 78.6 37.7s78.6-16.2 78.6-37.7c0-21.5-33.8-37.7-78.6-37.7zm0 61.1c-39.9 0-64.4-13.7-64.4-23.5s24.5-23.5 64.4-23.5c39.9 0 64.4 13.7 64.4 23.5 0 9.9-24.5 23.5-64.4 23.5z"/><path class="st0" d="M427 322.1c-7-3-14.3-5.7-21.9-8.3v-57.4l14.6-19.3c2.4-3.1 1.7-7.6-1.4-9.9-3.1-2.4-7.6-1.7-9.9 1.4l-16.1 21.2c-.9 1.2-1.4 2.7-1.4 4.3v55.3c-5.8-1.7-11.7-3.2-17.7-4.6v-39.2c0-31-12.2-56.4-35.2-73.4-20.6-15.3-49.1-23.3-82.3-23.3-33.2 0-61.7 8.1-82.3 23.3-23 17-35.2 42.4-35.2 73.4v39.2c-6 1.4-11.9 3-17.7 4.6v-55.3c0-1.5-.5-3-1.4-4.3L103 228.6c-2.4-3.1-6.8-3.7-9.9-1.4-3.1 2.4-3.7 6.8-1.4 9.9l14.6 19.3v57.4c-7.6 2.6-14.9 5.3-21.9 8.3-47.8 20.3-74.1 48.1-74.1 78.3s26.3 57.9 74.1 78.3c45.9 19.5 106.7 30.3 171.3 30.3 64.6 0 125.4-10.8 171.3-30.3 47.8-20.3 74.1-48.1 74.1-78.3s-26.3-58-74.1-78.3zm-274.7-56.6c0-51.7 38.6-82.6 103.4-82.6 64.7 0 103.4 30.9 103.4 82.6v36.1c-31.9-6.4-67.1-9.8-103.4-9.8-36.3 0-71.4 3.4-103.4 9.8v-36.1zm269.1 200.1c-44.2 18.8-103 29.2-165.8 29.2-62.7 0-121.6-10.4-165.7-29.2-41.6-17.7-65.5-41.5-65.5-65.2s23.9-47.5 65.5-65.2c8-3.4 16.4-6.5 25.3-9.3.2-.1.4-.1.6-.2C156 312.9 204.6 306 255.7 306c51.1 0 99.7 6.9 139.8 19.6.2.1.5.2.7.2 8.8 2.8 17.3 5.9 25.2 9.3 41.6 17.7 65.5 41.5 65.5 65.2 0 23.8-23.8 47.6-65.5 65.3z"/></svg>