<?xml version="1.0" encoding="UTF-8" standalone="no"?>
<!DOCTYPE svg PUBLIC "-//W3C//DTD SVG 1.1//EN" "http://www.w3.org/Graphics/SVG/1.1/DTD/svg11.dtd">
<svg width="100%" height="100%" viewBox="0 0 47 46" version="1.1" xmlns="http://www.w3.org/2000/svg" xmlns:xlink="http://www.w3.org/1999/xlink" xml:space="preserve" xmlns:serif="http://www.serif.com/" style="fill-rule:evenodd;clip-rule:evenodd;stroke-linejoin:round;">
    <path d="M1,26.004L26.596,26.004" style="fill:none;fill-rule:nonzero;stroke:rgb(244,123,32);stroke-width:1.8px;"/>
    <path d="M24.766,11.877L32.983,11.877" style="fill:none;fill-rule:nonzero;stroke:rgb(244,123,32);stroke-width:1.8px;"/>
    <path d="M15.845,16.549C14.072,17.731 12.665,17.787 10.737,16.549" style="fill:none;fill-rule:nonzero;stroke:rgb(244,123,32);stroke-width:1.8px;"/>
    <path d="M22.853,26.004C23.317,20.755 17.281,19.165 16.183,18.898C15.705,18.785 15.325,18.419 15.17,17.969L15.128,17.856C14.973,17.434 15.156,16.956 15.564,16.731C16.38,16.266 17.027,15.464 17.421,14.226C17.604,13.607 17.759,10.539 17.14,9.343C15.536,6.262 9.049,6.459 9.049,11.595C9.049,12.073 8.993,13.607 9.175,14.226C9.555,15.464 10.203,16.266 11.019,16.717C11.413,16.942 11.596,17.42 11.441,17.842C11.427,17.885 11.399,17.941 11.385,17.983C11.216,18.433 10.85,18.771 10.386,18.898C9.302,19.165 3.251,20.741 3.716,25.99" style="fill:none;fill-rule:nonzero;stroke:rgb(244,123,32);stroke-width:1.8px;"/>
    <path d="M36.164,32.871C33.673,34.532 31.689,34.616 28.974,32.871" style="fill:none;fill-rule:nonzero;stroke:rgb(244,123,32);stroke-width:1.8px;"/>
    <path d="M46.028,46C46.028,38.612 38.176,36.544 36.643,36.164C35.967,35.995 35.433,35.503 35.207,34.855L35.151,34.701C34.94,34.096 35.193,33.434 35.756,33.125C36.91,32.477 37.825,31.352 38.359,29.593C38.627,28.72 38.838,24.401 37.965,22.726C35.714,18.392 26.582,18.659 26.582,25.892C26.582,26.553 26.511,28.734 26.765,29.593C27.299,31.338 28.2,32.449 29.354,33.111C29.917,33.434 30.17,34.096 29.959,34.701C29.931,34.771 29.903,34.841 29.888,34.898C29.649,35.531 29.129,36.009 28.481,36.178C26.948,36.544 19.068,38.57 19.096,46" style="fill:none;fill-rule:nonzero;stroke:rgb(244,123,32);stroke-width:1.8px;"/>
    <path d="M36.164,32.9L44.55,32.9C45.367,32.9 46.028,32.238 46.028,31.422L46.028,2.477C46.028,1.661 45.367,1 44.55,1L2.477,1C1.661,1 1,1.661 1,2.477L1,31.422C1,32.238 1.661,32.9 2.477,32.9L28.763,32.9" style="fill:none;fill-rule:nonzero;stroke:rgb(244,123,32);stroke-width:1.8px;"/>
    <path d="M46.028,26.004L38.584,26.004" style="fill:none;fill-rule:nonzero;stroke:rgb(244,123,32);stroke-width:1.8px;"/>
    <path d="M24.766,7.881L41.201,7.881" style="fill:none;fill-rule:nonzero;stroke:rgb(244,123,32);stroke-width:1.8px;"/>
</svg>
