<?xml version="1.0" encoding="UTF-8" standalone="no"?>
<!DOCTYPE svg PUBLIC "-//W3C//DTD SVG 1.1//EN" "http://www.w3.org/Graphics/SVG/1.1/DTD/svg11.dtd">
<svg width="100%" height="100%" viewBox="0 0 43 47" version="1.1" xmlns="http://www.w3.org/2000/svg" xmlns:xlink="http://www.w3.org/1999/xlink" xml:space="preserve" xmlns:serif="http://www.serif.com/" style="fill-rule:evenodd;clip-rule:evenodd;stroke-linejoin:round;">
    <path d="M29.083,19.773L29.083,45.058C29.083,45.578 28.661,46 28.141,46L1.942,46C1.422,46 1,45.578 1,45.058L1,1.942C1,1.422 1.422,1 1.942,1L28.141,1C28.661,1 29.083,1.422 29.083,1.942L29.083,7.834" style="fill:none;fill-rule:nonzero;stroke:rgb(244,123,32);stroke-width:1.8px;"/>
    <path d="M1,38.969L29.083,38.969" style="fill:none;fill-rule:nonzero;stroke:rgb(244,123,32);stroke-width:1.8px;"/>
    <path d="M13.165,4.754L16.92,4.754" style="fill:none;fill-rule:nonzero;stroke:rgb(244,123,32);stroke-width:1.8px;"/>
    <path d="M14.796,28.055C12.405,28.055 10.479,26.115 10.479,23.738L10.479,22.571C10.479,20.18 12.419,18.254 14.796,18.254C17.186,18.254 19.113,20.195 19.113,22.571L19.113,23.738C19.113,26.129 17.172,28.055 14.796,28.055Z" style="fill:none;fill-rule:nonzero;stroke:rgb(244,123,32);stroke-width:1.8px;"/>
    <path d="M21.729,14.106C21.729,10.633 24.977,7.82 28.971,7.82L33.935,7.82C37.943,7.82 41.177,10.633 41.177,14.106C41.177,17.58 37.929,20.392 33.935,20.392L28.971,20.392L24.091,24.231L24.541,19.056C22.826,17.903 21.715,16.131 21.715,14.106L21.729,14.106Z" style="fill:none;fill-rule:nonzero;stroke:rgb(244,123,32);stroke-width:1.8px;"/>
    <path d="M5.57,38.702L5.57,37.535C5.57,32.304 9.817,28.057 15.048,28.057C20.28,28.057 24.527,32.304 24.527,37.535L24.527,38.702" style="fill:none;fill-rule:nonzero;stroke:rgb(244,123,32);stroke-width:1.8px;"/>
    <path d="M34.919,16.189L27.972,16.189" style="fill:none;fill-rule:nonzero;stroke:rgb(244,123,32);stroke-width:1.8px;"/>
    <path d="M27.972,12.053L34.919,12.053" style="fill:none;fill-rule:nonzero;stroke:rgb(244,123,32);stroke-width:1.8px;"/>
</svg>
