<?xml version="1.0" encoding="UTF-8" standalone="no"?>
<!DOCTYPE svg PUBLIC "-//W3C//DTD SVG 1.1//EN" "http://www.w3.org/Graphics/SVG/1.1/DTD/svg11.dtd">
<svg width="100%" height="100%" viewBox="0 0 47 48" version="1.1" xmlns="http://www.w3.org/2000/svg" xmlns:xlink="http://www.w3.org/1999/xlink" xml:space="preserve" xmlns:serif="http://www.serif.com/" style="fill-rule:evenodd;clip-rule:evenodd;stroke-linejoin:round;">
    <path d="M17.055,29.761L17.055,40.934L31.548,40.934L38.584,46.548L38.584,40.934L46.027,40.934L46.027,21.234L33.11,21.234" style="fill:none;fill-rule:nonzero;stroke:rgb(244,123,32);stroke-width:1.81px;"/>
    <path d="M33.11,12.453L33.11,29.775L13.945,29.775L6.924,35.403L6.924,29.775L1,29.775L1,8.668L21.628,8.668" style="fill:none;fill-rule:nonzero;stroke:rgb(244,123,32);stroke-width:1.81px;"/>
    <path d="M21.629,1L21.629,12.454L36.882,12.454L40.653,16.211C40.653,16.211 41.075,14.508 41.371,12.454L46.028,12.454L46.028,1L21.629,1Z" style="fill:none;fill-rule:nonzero;stroke:rgb(244,123,32);stroke-width:1.81px;"/>
    <path d="M19.221,19.197C19.221,20.393 18.251,21.378 17.04,21.378C15.83,21.378 14.859,20.407 14.859,19.197C14.859,17.987 15.83,17.016 17.04,17.016C18.251,17.016 19.221,17.987 19.221,19.197Z" style="fill:none;fill-rule:nonzero;stroke:rgb(244,123,32);stroke-width:1.81px;"/>
    <path d="M10.259,19.197C10.259,20.393 9.288,21.378 8.078,21.378C6.867,21.378 5.896,20.407 5.896,19.197C5.896,17.987 6.867,17.016 8.078,17.016C9.288,17.016 10.259,17.987 10.259,19.197Z" style="fill:none;fill-rule:nonzero;stroke:rgb(244,123,32);stroke-width:1.81px;"/>
    <path d="M28.2,19.197C28.2,20.393 27.229,21.378 26.019,21.378C24.809,21.378 23.838,20.407 23.838,19.197C23.838,17.987 24.809,17.016 26.019,17.016C27.229,17.016 28.2,17.987 28.2,19.197Z" style="fill:none;fill-rule:nonzero;stroke:rgb(244,123,32);stroke-width:1.81px;"/>
</svg>
