<svg version="1.1" id="Layer_1" xmlns="http://www.w3.org/2000/svg" x="0" y="0" viewBox="0 0 512 512" xml:space="preserve"><path style="fill:currentColor" d="M483 164.2c-2.2-5.3-8.2-7.9-13.6-5.7-5.3 2.2-7.9 8.2-5.7 13.6 10.9 27 16.5 55.5 16.5 84.7 0 29.2-5.5 57.7-16.5 84.7-11.3 27.9-28 53-49.4 74.5-21.5 21.5-46.5 38.1-74.5 49.4-27 10.9-55.5 16.5-84.7 16.5s-57.7-5.5-84.7-16.5c-19-7.7-36.7-17.9-52.9-30.4l30.3 1.3c5.8.3 10.6-4.2 10.9-10 .2-5.8-4.2-10.6-10-10.9L89 412.9h-1.3c-.8.1-1.5.2-2.2.4h-.1l-.9.3c-.1 0-.2.1-.2.1-.3.1-.5.2-.8.4-.1.1-.2.1-.3.2-.2.1-.4.3-.6.4-.1.1-.2.2-.3.2-.2.1-.4.3-.6.5l-.3.3-.1.1c-.2.2-.3.3-.4.5l-.2.2c-.5.6-.9 1.2-1.3 1.9 0 .1-.1.1-.1.2-.1.3-.3.6-.4.8 0 .1-.1.2-.1.3-.1.3-.2.5-.2.8 0 .1-.1.2-.1.4-.1.2-.1.5-.1.7 0 .1 0 .3-.1.4 0 .3 0 .5-.1.8v1.5c0 .3.1.6.2 1v.1l12.8 58.3c1.1 4.9 5.4 8.2 10.2 8.2.7 0 1.5-.1 2.2-.2 5.6-1.2 9.2-6.8 7.9-12.4l-6-27.4c17.4 13.4 36.5 24.3 57 32.6 29.5 11.9 60.6 18 92.5 18s63.1-6.1 92.5-18c30.5-12.4 57.9-30.6 81.4-54 23.5-23.5 41.7-50.9 54-81.4 12-29.5 18-60.6 18-92.5s-5.9-62.9-17.9-92.4zm-52-69.5c.1-.3.3-.5.4-.8 0-.1.1-.2.1-.3.1-.2.2-.5.2-.7 0-.1.1-.2.1-.4.1-.2.1-.5.1-.7 0-.1 0-.3.1-.4 0-.3 0-.5.1-.8V89c0-.3-.1-.6-.1-.9V88l-13-58.4c-1.2-5.6-6.8-9.2-12.4-7.9-5.6 1.2-9.2 6.8-7.9 12.4l6 27.4c-17.4-13.4-36.5-24.3-57-32.6-29.5-12-60.6-18-92.5-18s-63.1 6.1-92.5 18c-30.5 12.4-57.9 30.6-81.4 54-23.5 23.5-41.7 50.9-54 81.4-12 29.5-18 60.6-18 92.5s6.1 63.1 18 92.5c1.6 4.1 5.5 6.5 9.7 6.5 1.3 0 2.6-.2 3.9-.8 5.3-2.2 7.9-8.2 5.7-13.6C35.5 314.5 30 286 30 256.7S35.5 199 46.4 172c11.3-27.9 28-53 49.5-74.5s46.5-38.1 74.5-49.4c27-10.9 55.5-16.5 84.7-16.5 29.2 0 57.7 5.5 84.7 16.5 19 7.7 36.7 17.9 52.9 30.4l-30.3-1.3c-5.8-.2-10.6 4.2-10.9 10-.2 5.8 4.2 10.6 10 10.9l59.7 2.5h.4c.4 0 .7 0 1.1-.1h.3c.3 0 .5-.1.8-.1.1 0 .2-.1.3-.1.2-.1.5-.1.7-.2.1 0 .2-.1.3-.1.2-.1.5-.2.7-.3.1 0 .2-.1.3-.2l.6-.3c.1-.1.2-.1.3-.2.2-.1.4-.3.6-.4.1-.1.2-.2.3-.2.2-.1.3-.3.5-.4l.3-.3.1-.1.4-.4.2-.2v-.1c.5-.6.9-1.2 1.3-1.9.2-.1.3-.2.3-.3z"/><path style="fill:currentColor" d="M88.5 256.7H116"/><path style="fill:currentColor" d="M116 267.1H88.5c-5.8 0-10.4-4.7-10.4-10.4 0-5.8 4.7-10.4 10.4-10.4H116c5.8 0 10.4 4.7 10.4 10.4 0 5.8-4.6 10.4-10.4 10.4z"/><path style="fill:currentColor" d="M255 117.7V90.2"/><path style="fill:currentColor" d="M255 128.1c-5.8 0-10.4-4.7-10.4-10.4V90.2c0-5.8 4.7-10.4 10.4-10.4 5.8 0 10.4 4.7 10.4 10.4v27.5c.1 5.7-4.6 10.4-10.4 10.4z"/><path style="fill:currentColor" d="M421.6 256.7h-27.5"/><path style="fill:currentColor" d="M421.6 267.2h-27.5c-5.8 0-10.4-4.7-10.4-10.4 0-5.8 4.7-10.4 10.4-10.4h27.5c5.8 0 10.4 4.7 10.4 10.4s-4.6 10.4-10.4 10.4z"/><path style="fill:currentColor" d="M255.1 395.8v27.5"/><path style="fill:currentColor" d="M255.1 433.7c-5.8 0-10.4-4.7-10.4-10.4v-27.5c0-5.8 4.7-10.4 10.4-10.4s10.4 4.7 10.4 10.4v27.5c0 5.7-4.7 10.4-10.4 10.4zm93.7-270.8c-4.1-4.1-10.7-4.1-14.7 0l-61.3 61.3c-5.3-2.9-11.3-4.5-17.7-4.5-6.4 0-12.4 1.6-17.7 4.5L145 131.9c-4.1-4.1-10.7-4.1-14.7 0-4.1 4.1-4.1 10.7 0 14.7l92.3 92.3c-2.9 5.3-4.5 11.3-4.5 17.7 0 20.4 16.6 37 37 37s37-16.6 37-37c0-6.4-1.6-12.4-4.5-17.7l61.3-61.3c4-4 4-10.6-.1-14.7zm-93.7 110c-8.9 0-16.1-7.2-16.1-16.1 0-8.9 7.2-16.1 16.1-16.1 8.9 0 16.1 7.2 16.1 16.1 0 8.8-7.3 16.1-16.1 16.1z"/></svg>