<svg xmlns="http://www.w3.org/2000/svg" viewBox="0 0 512 512"><path d="M469.6 298.1c-24.9-17.4-111.8-55.1-115.4-56.7-9.2-4.1-18-4.4-24.6-.8l-91.3 48.9-31.1-57c30.3-8.6 52.1-15.6 60.3-23.3 15.3-14.4 49.3-61.2 51.9-64.7 7.9-10 5.6-24.7-5.5-34.3-14.3-12.3-28.4-6.1-33.8-1.2l-58.8 53.2-70.7 12.5h-.1c-1.7.3-3.4.6-5 .9-9.7 1.7-19.8 3.4-31.9 14-15.9 14.1-64.8 90.2-70.5 100.2-7.3 12.6-3 23 2.2 31.5l50.2 80.4c1 1.9 6 9.9 15.5 12.8 2.2.7 4.5 1 6.8 1 4.6 0 9.4-1.4 14.3-4.1 8.4-4.7 20.5-17.4 13-34.8l-30-70.8 5.8-6.7c11.4 18.6 38.5 62.6 50.8 79.8 6.9 9.7 23.1 25.5 54.1 22.7 12.5-.2 32.2-8 44.9-17.8 2.1-1.6 4.9-3.8 8.1-6.2l86 93.1c.3.3.6.6 1 .9 3.1 2.3 8.5 4.6 15 4.6 6.9 0 15.1-2.6 23.1-10.7 16.9-17.1 11.3-32.6 5.6-38.8l-68.6-97c3.6-2.8 6.6-5.1 8.6-6.6l87.6 29c7.8 3.2 25.1 4.2 36.4-14 6.2-10.7 8.8-31.1-3.9-40zm-71.8 137.2c.3.4.4.5.7.8 1.2 1.4 6 8.3-5.1 19.5-9.4 9.4-16.9 6.3-19.3 4.9l-84.5-91.6c12.4-9.6 27.4-21.1 39.6-30.5l68.6 96.9zM461 330.6c-7.5 12.1-17.3 9-19.1 8.3-.2-.1-.4-.1-.5-.2L350 308.4c-2.2-.7-4.7-.3-6.6 1.1-.5.4-43.1 33.3-68.3 52.8-.1 0-.1.1-.2.1-5.4 4.2-10 7.7-13.2 10.1-10.4 8-27.1 14.8-36.7 14.8h-.6c-24.1 2.2-36.4-9.6-41.5-16.8-15.1-21.1-54.9-86.6-55.3-87.3-1.2-1.9-3.2-3.2-5.5-3.4-2.3-.2-4.5.7-6 2.5L101.2 300c-1.7 2-2.2 4.9-1.1 7.4l31.7 74.9c4.3 10-5 15.8-6.8 16.9-3.8 2.1-7.1 2.7-10 1.9-4.6-1.3-7.2-6.1-7.2-6.1-.1-.2-.2-.3-.3-.5l-50.3-80.6c-5.2-8.5-4.8-12.3-2-17 8-13.8 54.8-85.3 67.6-96.6 9.1-8 16.1-9.2 24.9-10.7 1.7-.3 3.5-.6 5.3-1l72.6-12.9c1.3-.2 2.5-.8 3.5-1.7l60.3-54.5c1.6-1.4 7.4-5.3 15.1 1.4 4.5 3.9 7.3 10.4 3.7 14.8-.1.1-.2.2-.2.3-.4.5-35.6 49.1-50.2 62.9-7 6.6-38.9 15.6-62.2 22.2l-.7.2c-2.1.6-3.8 2.1-4.6 4.1-.8 2-.7 4.2.3 6.1l38.7 71c1.9 3.4 6.1 4.7 9.6 2.9l97.5-52.2c2.6-1.4 7.2-.9 12.2 1.3.9.4 89.3 38.7 113 55.3 4.3 3 3.3 14.5-.6 20.8zM126.5 165.7c34.1 0 61.9-27.8 61.9-61.9 0-34.1-27.8-61.9-61.9-61.9s-61.9 27.8-61.9 61.9c0 34.1 27.8 61.9 61.9 61.9zm0-109.6c26.3 0 47.7 21.4 47.7 47.7s-21.4 47.7-47.7 47.7-47.7-21.4-47.7-47.7 21.4-47.7 47.7-47.7zm152.4 35c6-5.1 13.5-7.5 21.4-6.9 7.8.6 14.9 4.3 20 10.2 1.4 1.7 3.4 2.5 5.4 2.5 1.6 0 3.3-.6 4.6-1.7 3-2.5 3.3-7 .8-10C323.6 76.3 313 71 301.4 70c-11.6-.9-22.9 2.7-31.7 10.2-3 2.5-3.3 7-.8 10s7 3.4 10 .9zM28.3 325.2c-5.6-4-9.3-10-10.5-16.8-1.1-6.8.5-13.6 4.5-19.3 2.3-3.2 1.5-7.6-1.6-9.9-3.2-2.3-7.6-1.5-9.9 1.6-6.2 8.7-8.7 19.3-6.9 29.8 1.8 10.6 7.5 19.8 16.2 26 1.2.9 2.7 1.3 4.1 1.3 2.2 0 4.4-1 5.8-3 2.2-3.1 1.5-7.5-1.7-9.7zm466.6-48.5c-8.3-8.4-19.3-13.1-31.2-13.2h-.1c-3.9 0-7.1 3.1-7.1 7s3.1 7.1 7 7.1c8 .1 15.5 3.2 21.2 9 5.6 5.7 8.7 13.3 8.6 21.3 0 3.9 3.1 7.1 7 7.1h.1c3.9 0 7.1-3.1 7.1-7 .2-11.8-4.4-22.9-12.6-31.3z" fill="#091821"/></svg>