<svg viewBox="0 0 28 28" xmlns="http://www.w3.org/2000/svg" fill-rule="evenodd" clip-rule="evenodd" stroke-linejoin="round" stroke-miterlimit="2"><g fill-rule="nonzero"><path fill="#de2910" d="M0 0h28v28H0z"/><path d="M11.2 5.74l-7.14 4.62L7 2.8l2.52 7.56L2.8 5.74h8.4zm1.737-3.932l2.545 1.246-2.663.457 1.726-2.016-.166 2.711-1.442-2.398zm3.243 2.469l1.86 2.139-2.633-.615 2.377-1.187-1.209 2.435-.395-2.772zm.586 4.064l.824 2.714-2.153-1.637 2.655-.113-2.099 1.729.773-2.693zm-2.219 2.904l-.287 2.819-1.353-2.339 2.491.92-2.601.784 1.75-2.184z" fill="#ffde00"/></g></svg>