<svg viewBox="0 0 28 28" xmlns="http://www.w3.org/2000/svg" fill-rule="evenodd" clip-rule="evenodd" stroke-linejoin="round" stroke-miterlimit="2"><path fill="#006" fill-rule="nonzero" d="M0 0h28v28H0z"/><path d="M3.002 20.158L5.223 21l.732-2.264L6.683 21l2.226-.842-1.318 1.985 2.045 1.214-2.368.202.328 2.357-1.641-1.722-1.64 1.722.328-2.351-2.373-.208 2.05-1.214m17.774 3.91l-1.039.087.147 1.029-.711-.75-.71.75.125-1.029-1.028-.087.892-.525-.575-.864.968.366.318-.984.311.984.974-.366-.569.864m.886-14.788l-1.028.088.142 1.028-.711-.749-.711.749.131-1.028-1.028-.088.892-.525-.575-.864.968.367.318-.985.311.985.974-.367-.569.864m-4.856 6.749l-1.028.087.142 1.023-.711-.749-.711.749.136-1.023-1.028-.087.892-.531-.574-.858.968.366.317-.984.312.984.967-.366-.568.858m11.725-1l-1.028.087.142 1.023-.711-.749-.711.749.137-1.023-1.028-.087.891-.531-.574-.858.968.366.317-.984.317.984.963-.366-.569.858m-3.511 4.512l-.563.35.158-.645-.509-.427.657-.049.257-.613.24.618.662.055-.503.421.159.645" fill="#fff"/><path fill="#006" fill-rule="nonzero" d="M0 0h14v14H0z"/><path d="M14 0v1.75L8.805 7 14 12.113V14h-1.832L6.945 8.859 1.859 14H0v-1.859l5.086-5.114L0 2.023V0h1.695l5.25 5.141L12.031 0H14z" fill="#fff" fill-rule="nonzero"/><path d="M5.031 8.859l.301.93L1.148 14H0v-.082l5.031-5.059zm3.391-.328l1.476.219L14 12.77V14L8.422 8.531zM14 0L8.75 5.359l-.109-1.203L12.742 0H14zM0 .027l5.277 5.168-1.613-.218L0 1.34V.027z" fill="#c8102e" fill-rule="nonzero"/><path d="M4.813 0v14h4.375V0H4.813zM0 4.813v4.375h14V4.813H0z" fill="#fff" fill-rule="nonzero"/><path d="M0 5.688v2.625h14V5.688H0zM5.688 0v14h2.625V0H5.688z" fill="#c8102e" fill-rule="nonzero"/></svg>