<?xml version="1.0" encoding="UTF-8" standalone="no"?>
<!DOCTYPE svg PUBLIC "-//W3C//DTD SVG 1.1//EN" "http://www.w3.org/Graphics/SVG/1.1/DTD/svg11.dtd">
<svg width="100%" height="100%" viewBox="0 0 24 24" version="1.1" xmlns="http://www.w3.org/2000/svg" xmlns:xlink="http://www.w3.org/1999/xlink" xml:space="preserve" xmlns:serif="http://www.serif.com/" style="fill-rule:evenodd;clip-rule:evenodd;stroke-linejoin:round;stroke-miterlimit:2;">
    <path d="M12,0C5.373,0 0,5.32 0,11.883L0,12.117C0,18.68 5.373,24 12,24C18.627,24 24,18.68 24,12.117L24,11.883C24,5.387 18.736,0.108 12.202,0.002C12.174,0.001 12.146,0 12.118,0L12.083,0L12,0ZM9.451,2.073C6.682,2.777 4.367,4.599 3.025,7.024L6.908,7.024C7.447,5.276 8.295,3.599 9.451,2.073ZM1.773,11.883C1.773,10.801 1.945,9.758 2.262,8.78L6.473,8.78C6.072,10.911 6.108,13.103 6.579,15.22L2.262,15.22C1.945,14.242 1.773,13.199 1.773,12.117L1.773,11.883ZM3.025,16.976C4.448,19.547 6.965,21.441 9.956,22.042C8.664,20.502 7.704,18.783 7.078,16.976L3.025,16.976ZM8.966,16.976C9.522,18.382 10.311,19.72 11.33,20.932L11.83,21.525C11.901,21.61 12.007,21.659 12.118,21.659C12.229,21.659 12.335,21.61 12.406,21.525L12.906,20.932C13.925,19.72 14.714,18.382 15.269,16.976L8.966,16.976ZM17.158,16.976C16.54,18.759 15.598,20.456 14.332,21.98C17.196,21.318 19.598,19.465 20.975,16.976L17.158,16.976ZM21.738,15.22L17.656,15.22C18.128,13.103 18.164,10.911 17.763,8.78L21.738,8.78C22.055,9.758 22.227,10.801 22.227,11.883L22.227,12.117C22.227,13.199 22.055,14.242 21.738,15.22ZM15.835,15.22L8.401,15.22C7.87,13.111 7.829,10.906 8.281,8.78L15.955,8.78C16.407,10.906 16.366,13.111 15.835,15.22ZM17.328,7.024L20.975,7.024C19.681,4.686 17.483,2.908 14.846,2.153C15.971,3.657 16.798,5.307 17.328,7.024ZM11.089,2.845C10.064,4.13 9.292,5.545 8.773,7.024L15.463,7.024C14.944,5.545 14.172,4.13 13.147,2.845L12.379,1.882C12.322,1.809 12.236,1.764 12.144,1.757L12.1,1.757C12.005,1.762 11.916,1.807 11.856,1.882L11.089,2.845Z"/>
</svg>
