<?xml version="1.0" encoding="UTF-8" standalone="no"?>
<!DOCTYPE svg PUBLIC "-//W3C//DTD SVG 1.1//EN" "http://www.w3.org/Graphics/SVG/1.1/DTD/svg11.dtd">
<svg width="100%" height="100%" viewBox="0 0 355 290" version="1.1" xmlns="http://www.w3.org/2000/svg" xmlns:xlink="http://www.w3.org/1999/xlink" xml:space="preserve" xmlns:serif="http://www.serif.com/" style="fill-rule:evenodd;clip-rule:evenodd;stroke-linejoin:round;stroke-miterlimit:2;">
    <g transform="matrix(1,0,0,1,-95,-5)">
        <g transform="matrix(2.7319e-16,-4.46154,4.93056,3.01909e-16,272.5,150)">
            <g transform="matrix(1,0,0,1,-32.5,-36)">
                <clipPath id="_clip1">
                    <rect x="0" y="0" width="65" height="72"/>
                </clipPath>
                <g clip-path="url(#_clip1)">
                    <g transform="matrix(1,0,0,1,-440.256,-229.985)">
                        <path d="M471,230C491.618,229.516 500.491,240.521 504,253C507.509,265.479 502.417,294.72 493,299C469.389,309.732 444.185,281.018 441,262C438.183,245.175 442.379,230.671 471,230Z" style="fill:white;"/>
                    </g>
                </g>
            </g>
        </g>
        <g id="Layer_2" transform="matrix(0.556528,0,0,0.556528,118.258,68.1193)">
            <g id="Layer_1-2">
                <path d="M247.63,5.6C256.11,5.6 260.18,9.16 260.18,16.63C260.18,17.48 260.18,18.5 250.34,110.61L292.92,110.61C301.4,110.61 305.47,114.51 305.47,121.81C305.47,131.65 299.7,137.76 290.2,137.76L236.08,137.76C226.58,137.76 222,133.18 222,124.19C222,123.17 222,122.15 232.86,19.35C233.88,10.02 238.8,5.61 247.62,5.61L247.63,5.6ZM327.53,40.38C335.5,40.38 339.74,43.77 339.74,51.24C339.74,51.92 339.57,52.6 333.8,108.41L333.8,109.6C333.8,111.47 334.14,113.67 336.51,113.67C344.99,113.67 349.57,117.4 349.57,124.53C349.57,133.86 342.61,139.12 333.96,139.12C315.13,139.12 306.65,130.47 306.65,116.56C306.65,115.2 306.65,114.02 313.1,53.45C313.95,44.63 319.04,40.39 327.52,40.39L327.53,40.38ZM331.43,0C339.4,0 345.17,5.6 345.17,13.23C345.17,21.88 337.71,30.19 328.21,30.19C320.41,30.19 314.64,24.25 314.64,16.62C315.66,6.61 323.12,-0.01 331.43,-0.01L331.43,0Z" style="fill:rgb(244,123,32);fill-rule:nonzero;"/>
                <path d="M384.87,144.54C381.99,163.2 364.51,173.38 349.24,173.38C340.76,173.38 336.35,169.48 336.35,162.35C336.35,155.22 341.61,149.63 348.39,149.63C353.99,149.63 359.08,144.54 359.59,139.11L367.39,63.79C359.42,63.62 355.01,61.41 355.01,54.46C355.01,44.96 361.46,40.72 370.11,40.72L371.3,29.18C373.17,10.35 391.83,0.34 407.1,0.34C415.75,0.34 420.16,4.24 420.16,11.37C420.16,18.5 414.9,24.09 407.95,24.09C402.35,24.09 397.77,29.18 397.26,34.61L396.75,40.72C397.26,40.72 397.26,40.55 397.94,40.55C406.42,40.55 410.83,42.93 410.83,50.05C410.83,59.89 404.21,63.96 395.39,63.96L393.35,63.96L384.87,144.54ZM492.09,74.31C492.09,76.52 492.09,78.89 491.75,81.27C490.39,94.33 482.42,94.33 469.36,94.33L430.51,94.33C430.51,95.01 430.34,95.86 430.34,96.54C430.34,110.11 443.91,114.86 450.87,114.86C463.93,114.86 470.38,104.34 479.37,104.34C486.49,104.34 487.85,110.11 487.85,115.54C487.51,118.59 486.66,120.97 484.12,123.34C474.62,133.86 461.39,139.63 445.78,139.63C418.47,139.63 404.39,119.78 404.39,95.01C404.39,66.34 424.24,35.97 454.27,35.97C479.04,35.97 492.1,51.75 492.1,74.31L492.09,74.31ZM465.12,76.69C465.29,75.84 465.29,74.99 465.29,74.31C465.29,64.98 458.84,60.57 451.89,60.57C444.09,60.57 434.93,66.17 433.74,76.69L465.12,76.69ZM511.1,107.56C519.24,107.56 524.84,113.5 524.84,121.13C523.99,131.14 516.7,137.75 508.04,137.75C500.24,137.75 494.47,131.81 494.47,124.18C495.32,114.17 502.78,107.56 511.09,107.56L511.1,107.56ZM512.12,95.68C504.49,95.68 500.58,92.29 500.58,85.16C500.58,84.31 500.58,83.46 507.2,20.69C508.22,11.36 512.8,6.61 521.62,6.61C529.42,6.61 533.33,10.34 533.33,17.81C533.33,18.66 533.33,19.68 526.71,82.45C525.69,91.44 521.11,95.68 512.12,95.68Z" style="fill:rgb(244,123,32);fill-rule:nonzero;"/>
                <path d="M55.56,306.96C19.67,303.84 1.15,278.12 0,229.81L1.22,215.85C4.2,181.62 22.9,159.15 57.31,148.42C65.52,146.45 78.33,145.56 95.72,145.74C149.91,154.15 175.99,169.81 173.99,192.74C175.32,192.86 175.75,195.57 175.29,200.89L173.73,218.83C172.19,236.44 157.72,256.62 130.29,279.34C102.07,299.65 77.17,308.86 55.56,306.98L55.56,306.96Z" style="fill:rgb(141,198,63);fill-rule:nonzero;"/>
                <path d="M105.87,113.89C109.1,97.82 119.27,88.24 136.36,85.13C146.51,85.23 152.76,85.52 155.09,85.98C188.72,97.1 203.05,115 198.09,139.69L197.25,143.88C187.86,170.11 173.04,181.17 152.78,177.1L142.99,175.13C121.1,170.73 107.79,154.98 103.06,127.86L105.87,113.88L105.87,113.89Z" style="fill:rgb(103,145,70);fill-rule:nonzero;"/>
                <path d="M167.23,50.54C174.32,68.83 170.24,85.04 155,99.19C144.68,105.62 138.19,109.35 135.55,110.38C94.48,120.82 68.49,111.99 57.59,83.9L55.75,79.14C48.33,46.64 56.15,25.93 79.21,16.99L90.34,12.67C115.26,3.01 138.82,10.33 161.05,34.63L167.22,50.53L167.23,50.54Z" style="fill:rgb(244,123,32);fill-rule:nonzero;"/>
            </g>
        </g>
    </g>
</svg>
