<?xml version="1.0" encoding="UTF-8" standalone="no"?>
<!DOCTYPE svg PUBLIC "-//W3C//DTD SVG 1.1//EN" "http://www.w3.org/Graphics/SVG/1.1/DTD/svg11.dtd">
<svg width="100%" height="100%" viewBox="0 0 1009 371" version="1.1" xmlns="http://www.w3.org/2000/svg" xmlns:xlink="http://www.w3.org/1999/xlink" xml:space="preserve" xmlns:serif="http://www.serif.com/" style="fill-rule:evenodd;clip-rule:evenodd;stroke-linejoin:round;stroke-miterlimit:2;">
    <g transform="matrix(1,0,0,1,-98.37,-98.37)">
        <path d="M971.99,331.94L992.06,331.94L992.06,356.16L971.99,356.16L971.99,331.94ZM971.99,466.66L992.06,466.66L992.06,368.29L971.99,368.29L971.99,466.66ZM904.38,466.66L924.87,466.66L963.61,368.29L944.14,368.29L915.23,443.97L886.12,368.29L865.44,368.29L904.38,466.66ZM1106.44,435.56L1088.78,429.74C1084.36,442.19 1073.92,450.82 1058.06,450.82C1039.59,450.82 1025.14,435.96 1025.14,417.5C1025.14,399.04 1039.59,384.18 1058.06,384.18C1071.51,384.18 1083.15,392.01 1088.17,403.65L1106.44,396.42C1100.02,378.35 1080.94,366.31 1058.26,366.31C1027.55,366.31 1005.06,389.6 1005.06,417.5C1005.06,445.4 1026.54,468.69 1058.06,468.69C1081.15,468.69 1100.02,455.24 1106.44,435.57L1106.44,435.56ZM795.09,155.27L739.06,155.27L739.02,98.37C739.02,98.37 701.49,136.18 688.54,149.03C675.59,161.88 667.39,179.95 667.39,199.79C667.39,239.31 699.46,271.34 739.02,271.34C778.58,271.34 810.65,239.3 810.65,199.79C810.65,182.96 804.83,167.48 795.09,155.26L795.09,155.27Z" style="fill:rgb(78,147,255);fill-rule:nonzero;"/>
    </g>
    <g transform="matrix(1,0,0,1,-98.37,-98.37)">
        <path d="M219.09,331.94L239.16,331.94L239.16,356.16L219.09,356.16L219.09,331.94ZM219.09,368.29L239.16,368.29L239.16,466.66L219.09,466.66L219.09,368.29ZM184.49,331.94L184.49,378.1C175.58,370.92 164.24,366.28 151.57,366.28C120.86,366.28 98.37,389.57 98.37,417.47C98.37,445.37 120.85,468.66 151.57,468.66C182.29,468.66 204.57,445.57 204.57,417.47L204.57,331.94L184.49,331.94ZM151.57,451C132.9,451 118.45,436.14 118.45,417.47C118.45,398.8 132.9,383.95 151.57,383.95C170.24,383.95 184.69,398.81 184.69,417.47C184.69,436.13 170.04,451 151.57,451ZM368.47,331.94L368.47,417.47C368.47,445.58 391.15,468.66 421.47,468.66C452.18,468.66 474.67,445.57 474.67,417.47C474.67,389.57 452.19,366.28 421.47,366.28C408.79,366.28 397.45,370.92 388.55,378.1L388.55,331.94L368.47,331.94ZM388.35,417.47C388.35,398.8 403,383.95 421.47,383.95C440.14,383.95 454.59,398.81 454.59,417.47C454.59,436.14 440.14,451 421.47,451C403,451 388.35,436.14 388.35,417.47ZM583.58,437.95C576.55,457.02 556.68,468.66 535.4,468.66C504.69,468.66 483.21,445.77 483.21,417.47C483.21,389.17 505.69,366.28 535.2,366.28C564.71,366.28 586.79,388.96 586.79,415.46L586.79,422.89L502.68,422.89C504.89,439.75 518.54,452.2 535.4,452.2C550.06,452.2 561.9,444.37 566.52,432.93L583.58,437.95ZM503.87,406.84L566.51,406.84C562.7,393.19 550.65,382.75 535.19,382.75C519.73,382.75 507.89,392.59 503.87,406.84ZM626.89,331.94L626.89,368.29L655,368.29L655,385.96L626.89,385.96L626.89,433.74C626.89,444.38 633.52,449 642.15,449L655,449L655,466.67L638.74,466.67C617.46,466.67 606.62,455.03 606.62,436.56L606.62,385.97L585.04,385.97L585.04,368.3L606.62,368.3L606.62,331.95L626.9,331.95L626.89,331.94ZM756.13,437.95C749.1,457.02 729.23,468.66 707.95,468.66C677.23,468.66 655.75,445.77 655.75,417.47C655.75,389.17 678.23,366.28 707.74,366.28C737.25,366.28 759.33,388.96 759.33,415.46L759.33,422.89L675.22,422.89C677.43,439.75 691.08,452.2 707.94,452.2C722.59,452.2 734.44,444.37 739.06,432.93L756.12,437.95L756.13,437.95ZM676.42,406.84L739.06,406.84C735.25,393.19 723.2,382.75 707.74,382.75C692.28,382.75 680.44,392.59 676.42,406.84ZM818.74,394.59C817.33,386.56 811.11,382.14 802.48,382.14C793.25,382.14 787.22,386.96 787.22,393.38C787.22,399.8 791.44,403.02 800.47,405.83L813.32,409.85C831.19,415.47 839.62,423.1 839.62,437.75C839.62,456.22 824.97,468.66 802.68,468.66C781.8,468.66 764.94,457.42 764.34,440.55L784.01,438.34C785.62,447.78 793.25,452.79 803.08,452.79C813.92,452.79 819.94,447.37 819.94,439.54C819.94,432.71 815.72,429.5 806.09,426.49L793.24,422.47C776.18,417.05 767.95,408.62 767.95,394.97C767.95,377.91 783.41,366.26 802.88,366.26C822.35,366.26 836.41,376.7 837.81,392.36L818.74,394.57L818.74,394.59ZM305.19,366.28C274.48,366.28 251.99,389.57 251.99,417.47C251.99,445.37 274.47,468.66 305.19,468.66C318.15,468.66 329.72,462.56 338.72,454.1L338.72,466.65L358.19,466.65L358.19,417.47C358.19,389.57 335.51,366.28 305.19,366.28ZM305.19,451C286.52,451 272.07,436.14 272.07,417.47C272.07,398.8 286.52,383.95 305.19,383.95C323.86,383.95 338.31,398.81 338.31,417.47C338.31,436.13 323.66,451 305.19,451ZM805.56,314.51L846.58,314.51L846.61,356.17C846.61,356.17 874.09,328.49 883.57,319.08C893.13,309.59 899.05,296.44 899.05,281.92C899.05,252.99 875.57,229.54 846.61,229.54C817.65,229.54 794.17,252.99 794.17,281.92C794.17,294.24 798.43,305.57 805.56,314.52L805.56,314.51Z" style="fill:rgb(43,70,140);fill-rule:nonzero;"/>
    </g>
</svg>
