<?xml version="1.0" encoding="UTF-8" standalone="no"?>
<!DOCTYPE svg PUBLIC "-//W3C//DTD SVG 1.1//EN" "http://www.w3.org/Graphics/SVG/1.1/DTD/svg11.dtd">
<svg width="100%" height="100%" viewBox="0 0 912 410" version="1.1" xmlns="http://www.w3.org/2000/svg" xmlns:xlink="http://www.w3.org/1999/xlink" xml:space="preserve" xmlns:serif="http://www.serif.com/" style="fill-rule:evenodd;clip-rule:evenodd;stroke-miterlimit:10;">
    <g id="g10" transform="matrix(1.33333,0,0,-1.33333,-58.8289,482.943)">
        <g id="g12">
            <g id="g18" transform="matrix(1,0,0,1,291.748,356.609)">
                <path id="path20" d="M0,0C8.482,0 12.554,-3.563 12.554,-11.027C12.554,-11.875 12.554,-12.893 2.715,-105.012L45.296,-105.012C53.778,-105.012 57.85,-108.914 57.85,-116.208C57.85,-126.048 52.082,-132.155 42.582,-132.155L-11.536,-132.155C-21.036,-132.155 -25.616,-127.575 -25.616,-118.583C-25.616,-117.565 -25.616,-116.548 -14.759,-13.742C-13.741,-4.411 -8.821,0 0,0" style="fill:rgb(243,105,23);fill-rule:nonzero;"/>
            </g>
            <g id="g22" transform="matrix(1,0,0,1,375.557,362.207)">
                <path id="path24" d="M0,0C7.974,0 13.741,-5.598 13.741,-13.232C13.741,-21.884 6.276,-30.197 -3.224,-30.197C-11.027,-30.197 -16.795,-24.259 -16.795,-16.625C-15.777,-6.616 -8.313,0 0,0M-3.902,-40.376C4.071,-40.376 8.313,-43.769 8.313,-51.233C8.313,-51.912 8.143,-52.59 2.375,-108.405L2.375,-109.592C2.375,-111.458 2.714,-113.664 5.089,-113.664C13.571,-113.664 18.152,-117.396 18.152,-124.521C18.152,-133.851 11.196,-139.111 2.545,-139.111C-16.286,-139.111 -24.769,-130.458 -24.769,-116.547C-24.769,-115.19 -24.769,-114.002 -18.322,-53.439C-17.474,-44.617 -12.385,-40.376 -3.902,-40.376" style="fill:rgb(243,105,23);fill-rule:nonzero;"/>
            </g>
            <g id="g26" transform="matrix(1,0,0,1,428.995,217.668)">
                <path id="path28" d="M0,0C-2.884,-18.661 -20.358,-28.84 -35.626,-28.84C-44.108,-28.84 -48.52,-24.938 -48.52,-17.813C-48.52,-10.857 -43.261,-5.089 -36.475,-5.089C-30.876,-5.089 -25.787,-0 -25.277,5.429L-17.474,80.752C-25.447,80.922 -29.858,83.127 -29.858,90.083C-29.858,99.583 -23.411,103.824 -14.76,103.824L-13.572,115.36C-11.706,134.191 6.955,144.2 22.224,144.2C30.876,144.2 35.286,140.298 35.286,133.173C35.286,126.048 30.027,120.45 23.071,120.45C17.474,120.45 12.893,115.36 12.384,109.932L11.875,103.824C12.384,103.824 12.384,103.994 13.063,103.994C21.545,103.994 25.956,101.619 25.956,94.494C25.956,84.654 19.34,80.583 10.518,80.583L8.482,80.583L0,0Z" style="fill:rgb(243,105,23);fill-rule:nonzero;"/>
            </g>
            <g id="g30" transform="matrix(1,0,0,1,509.242,285.527)">
                <path id="path32" d="M0,0C0.17,0.848 0.17,1.696 0.17,2.375C0.17,11.706 -6.276,16.116 -13.232,16.116C-21.036,16.116 -30.196,10.518 -31.385,0L0,0ZM26.975,2.375C26.975,0.169 26.975,-2.206 26.635,-4.581C25.278,-17.644 17.305,-17.644 4.241,-17.644L-34.607,-17.644C-34.607,-18.322 -34.777,-19.17 -34.777,-19.849C-34.777,-33.421 -21.205,-38.171 -14.25,-38.171C-1.188,-38.171 5.26,-27.652 14.251,-27.652C21.376,-27.652 22.733,-33.421 22.733,-38.85C22.394,-41.903 21.546,-44.278 19.001,-46.653C9.501,-57.171 -3.731,-62.939 -19.339,-62.939C-46.652,-62.939 -60.733,-43.091 -60.733,-18.322C-60.733,10.348 -40.885,40.715 -10.857,40.715C13.911,40.715 26.975,24.938 26.975,2.375" style="fill:rgb(243,105,23);fill-rule:nonzero;"/>
            </g>
            <g id="g34" transform="matrix(1,0,0,1,556.236,266.526)">
                <path id="path36" d="M0,0C-7.635,0 -11.536,3.393 -11.536,10.519C-11.536,11.367 -11.536,12.215 -4.92,74.984C-3.902,84.315 0.679,89.065 9.5,89.065C17.304,89.065 21.206,85.333 21.206,77.868C21.206,77.02 21.206,76.002 14.59,13.233C13.571,4.241 8.991,0 0,0M-1.019,-11.875C7.125,-11.875 12.724,-17.813 12.724,-25.447C11.875,-35.456 4.58,-42.072 -4.072,-42.072C-11.876,-42.072 -17.644,-36.135 -17.644,-28.5C-16.795,-18.491 -9.331,-11.875 -1.019,-11.875" style="fill:rgb(243,105,23);fill-rule:nonzero;"/>
            </g>
            <g id="g38" transform="matrix(1,0,0,1,266.259,146.226)">
                <path id="path40" d="M0,0L0,25.229C0,25.407 0.076,25.572 0.229,25.726C0.381,25.878 0.546,25.954 0.724,25.954L2.21,25.954C2.413,25.954 2.585,25.884 2.725,25.744C2.864,25.604 2.935,25.433 2.935,25.229L2.935,14.102L18.407,14.102L18.407,25.229C18.407,25.433 18.477,25.604 18.616,25.744C18.756,25.884 18.928,25.954 19.131,25.954L20.617,25.954C20.795,25.954 20.961,25.878 21.113,25.726C21.266,25.572 21.342,25.407 21.342,25.229L21.342,0C21.342,-0.178 21.266,-0.343 21.113,-0.495C20.961,-0.647 20.795,-0.724 20.617,-0.724L19.131,-0.724C18.928,-0.724 18.756,-0.654 18.616,-0.514C18.477,-0.375 18.407,-0.203 18.407,0L18.407,11.548L2.935,11.548L2.935,0C2.935,-0.203 2.864,-0.375 2.725,-0.514C2.585,-0.654 2.413,-0.724 2.21,-0.724L0.724,-0.724C0.546,-0.724 0.381,-0.647 0.229,-0.495C0.076,-0.343 0,-0.178 0,0" style="fill:rgb(97,144,53);fill-rule:nonzero;"/>
            </g>
            <g id="g42" transform="matrix(1,0,0,1,266.259,146.226)">
                <path id="path44" d="M0,0L0,25.229C0,25.407 0.076,25.572 0.229,25.726C0.381,25.878 0.546,25.954 0.724,25.954L2.21,25.954C2.413,25.954 2.585,25.884 2.725,25.744C2.864,25.604 2.935,25.433 2.935,25.229L2.935,14.102L18.407,14.102L18.407,25.229C18.407,25.433 18.477,25.604 18.616,25.744C18.756,25.884 18.928,25.954 19.131,25.954L20.617,25.954C20.795,25.954 20.961,25.878 21.113,25.726C21.266,25.572 21.342,25.407 21.342,25.229L21.342,0C21.342,-0.178 21.266,-0.343 21.113,-0.495C20.961,-0.647 20.795,-0.724 20.617,-0.724L19.131,-0.724C18.928,-0.724 18.756,-0.654 18.616,-0.514C18.477,-0.375 18.407,-0.203 18.407,0L18.407,11.548L2.935,11.548L2.935,0C2.935,-0.203 2.864,-0.375 2.725,-0.514C2.585,-0.654 2.413,-0.724 2.21,-0.724L0.724,-0.724C0.546,-0.724 0.381,-0.647 0.229,-0.495C0.076,-0.343 0,-0.178 0,0Z" style="fill:none;fill-rule:nonzero;stroke:rgb(97,144,53);stroke-width:1px;"/>
            </g>
            <g id="g46" transform="matrix(1,0,0,1,295.375,146.226)">
                <path id="path48" d="M0,0L0,25.229C0,25.433 0.069,25.604 0.209,25.744C0.349,25.884 0.521,25.954 0.724,25.954L15.739,25.954C15.942,25.954 16.114,25.884 16.254,25.744C16.394,25.604 16.464,25.433 16.464,25.229L16.464,24.125C16.464,23.921 16.394,23.749 16.254,23.61C16.114,23.47 15.942,23.4 15.739,23.4L2.935,23.4L2.935,14.102L13.872,14.102C14.075,14.102 14.246,14.031 14.387,13.892C14.525,13.752 14.596,13.58 14.596,13.377L14.596,12.272C14.596,12.068 14.525,11.896 14.387,11.758C14.246,11.617 14.075,11.548 13.872,11.548L2.935,11.548L2.935,1.83L15.739,1.83C15.942,1.83 16.114,1.76 16.254,1.62C16.394,1.48 16.464,1.309 16.464,1.105L16.464,0C16.464,-0.203 16.394,-0.375 16.254,-0.514C16.114,-0.654 15.942,-0.724 15.739,-0.724L0.724,-0.724C0.521,-0.724 0.349,-0.654 0.209,-0.514C0.069,-0.375 0,-0.203 0,0" style="fill:rgb(97,144,53);fill-rule:nonzero;"/>
            </g>
            <g id="g50" transform="matrix(1,0,0,1,295.375,146.226)">
                <path id="path52" d="M0,0L0,25.229C0,25.433 0.069,25.604 0.209,25.744C0.349,25.884 0.521,25.954 0.724,25.954L15.739,25.954C15.942,25.954 16.114,25.884 16.254,25.744C16.394,25.604 16.464,25.433 16.464,25.229L16.464,24.125C16.464,23.921 16.394,23.749 16.254,23.61C16.114,23.47 15.942,23.4 15.739,23.4L2.935,23.4L2.935,14.102L13.872,14.102C14.075,14.102 14.246,14.031 14.387,13.892C14.525,13.752 14.596,13.58 14.596,13.377L14.596,12.272C14.596,12.068 14.525,11.896 14.387,11.758C14.246,11.617 14.075,11.548 13.872,11.548L2.935,11.548L2.935,1.83L15.739,1.83C15.942,1.83 16.114,1.76 16.254,1.62C16.394,1.48 16.464,1.309 16.464,1.105L16.464,0C16.464,-0.203 16.394,-0.375 16.254,-0.514C16.114,-0.654 15.942,-0.724 15.739,-0.724L0.724,-0.724C0.521,-0.724 0.349,-0.654 0.209,-0.514C0.069,-0.375 0,-0.203 0,0Z" style="fill:none;fill-rule:nonzero;stroke:rgb(97,144,53);stroke-width:1px;"/>
            </g>
            <g id="g54" transform="matrix(1,0,0,1,317.937,146.226)">
                <path id="path56" d="M0,0L0,25.229C0,25.433 0.069,25.604 0.209,25.744C0.349,25.884 0.521,25.954 0.724,25.954L2.21,25.954C2.413,25.954 2.585,25.878 2.725,25.726C2.864,25.572 2.935,25.407 2.935,25.229L2.935,1.83L13.91,1.83C14.113,1.83 14.284,1.76 14.425,1.62C14.563,1.48 14.634,1.309 14.634,1.105L14.634,0C14.634,-0.203 14.563,-0.375 14.425,-0.514C14.284,-0.654 14.113,-0.724 13.91,-0.724L0.724,-0.724C0.521,-0.724 0.349,-0.654 0.209,-0.514C0.069,-0.375 0,-0.203 0,0" style="fill:rgb(97,144,53);fill-rule:nonzero;"/>
            </g>
            <g id="g58" transform="matrix(1,0,0,1,317.937,146.226)">
                <path id="path60" d="M0,0L0,25.229C0,25.433 0.069,25.604 0.209,25.744C0.349,25.884 0.521,25.954 0.724,25.954L2.21,25.954C2.413,25.954 2.585,25.878 2.725,25.726C2.864,25.572 2.935,25.407 2.935,25.229L2.935,1.83L13.91,1.83C14.113,1.83 14.284,1.76 14.425,1.62C14.563,1.48 14.634,1.309 14.634,1.105L14.634,0C14.634,-0.203 14.563,-0.375 14.425,-0.514C14.284,-0.654 14.113,-0.724 13.91,-0.724L0.724,-0.724C0.521,-0.724 0.349,-0.654 0.209,-0.514C0.069,-0.375 0,-0.203 0,0Z" style="fill:none;fill-rule:nonzero;stroke:rgb(97,144,53);stroke-width:1px;"/>
            </g>
            <g id="g62" transform="matrix(1,0,0,1,339.545,158.002)">
                <path id="path64" d="M0,0L6.06,0C7.634,0 8.993,0.565 10.137,1.696C11.28,2.826 11.852,4.205 11.852,5.831C11.852,7.355 11.28,8.645 10.137,9.699C8.993,10.754 7.634,11.281 6.06,11.281L0,11.281L0,0ZM-2.896,-11.776L-2.896,13.453C-2.896,13.656 -2.827,13.828 -2.688,13.968C-2.548,14.107 -2.376,14.178 -2.173,14.178L6.25,14.178C8.587,14.178 10.595,13.352 12.271,11.7C13.948,10.049 14.786,8.066 14.786,5.755C14.786,3.393 13.954,1.372 12.29,-0.305C10.626,-1.981 8.625,-2.82 6.288,-2.82L0,-2.82L0,-11.776C0,-11.954 -0.077,-12.119 -0.229,-12.271C-0.382,-12.424 -0.547,-12.5 -0.725,-12.5L-2.173,-12.5C-2.376,-12.5 -2.548,-12.431 -2.688,-12.29C-2.827,-12.151 -2.896,-11.979 -2.896,-11.776" style="fill:rgb(97,144,53);fill-rule:nonzero;"/>
            </g>
            <g id="g66" transform="matrix(1,0,0,1,339.545,158.002)">
                <path id="path68" d="M0,0L6.06,0C7.634,0 8.993,0.565 10.137,1.696C11.28,2.826 11.852,4.205 11.852,5.831C11.852,7.355 11.28,8.645 10.137,9.699C8.993,10.754 7.634,11.281 6.06,11.281L0,11.281L0,0ZM-2.896,-11.776L-2.896,13.453C-2.896,13.656 -2.827,13.828 -2.688,13.968C-2.548,14.107 -2.376,14.178 -2.173,14.178L6.25,14.178C8.587,14.178 10.595,13.352 12.271,11.7C13.948,10.049 14.786,8.066 14.786,5.755C14.786,3.393 13.954,1.372 12.29,-0.305C10.626,-1.981 8.625,-2.82 6.288,-2.82L0,-2.82L0,-11.776C0,-11.954 -0.077,-12.119 -0.229,-12.271C-0.382,-12.424 -0.547,-12.5 -0.725,-12.5L-2.173,-12.5C-2.376,-12.5 -2.548,-12.431 -2.688,-12.29C-2.827,-12.151 -2.896,-11.979 -2.896,-11.776Z" style="fill:none;fill-rule:nonzero;stroke:rgb(97,144,53);stroke-width:1px;"/>
            </g>
            <g id="g70" transform="matrix(1,0,0,1,359.362,146.226)">
                <path id="path72" d="M0,0L0,25.229C0,25.407 0.076,25.572 0.229,25.726C0.381,25.878 0.546,25.954 0.724,25.954L2.248,25.954C2.426,25.954 2.591,25.878 2.743,25.726C2.896,25.572 2.973,25.407 2.973,25.229L2.973,0C2.973,-0.178 2.896,-0.343 2.743,-0.495C2.591,-0.647 2.426,-0.724 2.248,-0.724L0.724,-0.724C0.546,-0.724 0.381,-0.647 0.229,-0.495C0.076,-0.343 0,-0.178 0,0" style="fill:rgb(97,144,53);fill-rule:nonzero;"/>
            </g>
            <g id="g74" transform="matrix(1,0,0,1,359.362,146.226)">
                <path id="path76" d="M0,0L0,25.229C0,25.407 0.076,25.572 0.229,25.726C0.381,25.878 0.546,25.954 0.724,25.954L2.248,25.954C2.426,25.954 2.591,25.878 2.743,25.726C2.896,25.572 2.973,25.407 2.973,25.229L2.973,0C2.973,-0.178 2.896,-0.343 2.743,-0.495C2.591,-0.647 2.426,-0.724 2.248,-0.724L0.724,-0.724C0.546,-0.724 0.381,-0.647 0.229,-0.495C0.076,-0.343 0,-0.178 0,0Z" style="fill:none;fill-rule:nonzero;stroke:rgb(97,144,53);stroke-width:1px;"/>
            </g>
            <g id="g78" transform="matrix(1,0,0,1,370.109,146.226)">
                <path id="path80" d="M0,0L0,25.649C0,25.826 0.069,25.985 0.209,26.125C0.349,26.265 0.521,26.335 0.724,26.335L1.677,26.335L18.864,4.917L18.94,4.917L18.94,25.229C18.94,25.433 19.011,25.604 19.15,25.744C19.289,25.884 19.461,25.954 19.665,25.954L20.999,25.954C21.176,25.954 21.342,25.878 21.494,25.726C21.646,25.572 21.723,25.407 21.723,25.229L21.723,-0.419C21.723,-0.597 21.652,-0.755 21.513,-0.896C21.373,-1.034 21.201,-1.104 20.999,-1.104L20.313,-1.104L2.819,20.732L2.781,20.732L2.781,0C2.781,-0.203 2.711,-0.375 2.572,-0.514C2.432,-0.654 2.261,-0.724 2.058,-0.724L0.724,-0.724C0.546,-0.724 0.381,-0.647 0.229,-0.495C0.076,-0.343 0,-0.178 0,0" style="fill:rgb(97,144,53);fill-rule:nonzero;"/>
            </g>
            <g id="g82" transform="matrix(1,0,0,1,370.109,146.226)">
                <path id="path84" d="M0,0L0,25.649C0,25.826 0.069,25.985 0.209,26.125C0.349,26.265 0.521,26.335 0.724,26.335L1.677,26.335L18.864,4.917L18.94,4.917L18.94,25.229C18.94,25.433 19.011,25.604 19.15,25.744C19.289,25.884 19.461,25.954 19.665,25.954L20.999,25.954C21.176,25.954 21.342,25.878 21.494,25.726C21.646,25.572 21.723,25.407 21.723,25.229L21.723,-0.419C21.723,-0.597 21.652,-0.755 21.513,-0.896C21.373,-1.034 21.201,-1.104 20.999,-1.104L20.313,-1.104L2.819,20.732L2.781,20.732L2.781,0C2.781,-0.203 2.711,-0.375 2.572,-0.514C2.432,-0.654 2.261,-0.724 2.058,-0.724L0.724,-0.724C0.546,-0.724 0.381,-0.647 0.229,-0.495C0.076,-0.343 0,-0.178 0,0Z" style="fill:none;fill-rule:nonzero;stroke:rgb(97,144,53);stroke-width:1px;"/>
            </g>
            <g id="g86" transform="matrix(1,0,0,1,401.683,149.103)">
                <path id="path88" d="M0,0C-2.681,2.654 -4.021,5.888 -4.021,9.699C-4.021,13.51 -2.681,16.756 0,19.437C2.681,22.116 5.927,23.457 9.737,23.457C13.116,23.457 16.191,22.275 18.961,19.913C19.316,19.531 19.328,19.176 18.999,18.846L17.932,17.778C17.651,17.474 17.321,17.486 16.94,17.816C15.924,18.706 14.774,19.423 13.491,19.97C12.208,20.516 10.944,20.789 9.699,20.789C6.727,20.789 4.218,19.716 2.173,17.569C0.127,15.422 -0.896,12.85 -0.896,9.852C-0.896,6.879 0.127,4.3 2.173,2.115C4.218,-0.07 6.727,-1.162 9.699,-1.162C10.944,-1.162 12.139,-1.029 13.282,-0.763C14.426,-0.495 15.251,-0.223 15.759,0.057L16.56,0.438L16.56,5.773L12.177,5.773C11.974,5.773 11.802,5.837 11.662,5.964C11.522,6.091 11.453,6.256 11.453,6.46L11.453,7.87C11.453,8.353 11.694,8.594 12.177,8.594L18.77,8.594C18.947,8.594 19.106,8.523 19.246,8.384C19.386,8.244 19.456,8.073 19.456,7.87L19.456,-0.857C19.456,-1.112 19.354,-1.314 19.151,-1.468L18.046,-2.077C17.283,-2.51 16.114,-2.935 14.54,-3.354C12.964,-3.773 11.363,-3.982 9.737,-3.982C5.927,-3.982 2.681,-2.655 0,0" style="fill:rgb(97,144,53);fill-rule:nonzero;"/>
            </g>
            <g id="g90" transform="matrix(1,0,0,1,401.683,149.103)">
                <path id="path92" d="M0,0C-2.681,2.654 -4.021,5.888 -4.021,9.699C-4.021,13.51 -2.681,16.756 0,19.437C2.681,22.116 5.927,23.457 9.737,23.457C13.116,23.457 16.191,22.275 18.961,19.913C19.316,19.531 19.328,19.176 18.999,18.846L17.932,17.778C17.651,17.474 17.321,17.486 16.94,17.816C15.924,18.706 14.774,19.423 13.491,19.97C12.208,20.516 10.944,20.789 9.699,20.789C6.727,20.789 4.218,19.716 2.173,17.569C0.127,15.422 -0.896,12.85 -0.896,9.852C-0.896,6.879 0.127,4.3 2.173,2.115C4.218,-0.07 6.727,-1.162 9.699,-1.162C10.944,-1.162 12.139,-1.029 13.282,-0.763C14.426,-0.495 15.251,-0.223 15.759,0.057L16.56,0.438L16.56,5.773L12.177,5.773C11.974,5.773 11.802,5.837 11.662,5.964C11.522,6.091 11.453,6.256 11.453,6.46L11.453,7.87C11.453,8.353 11.694,8.594 12.177,8.594L18.77,8.594C18.947,8.594 19.106,8.523 19.246,8.384C19.386,8.244 19.456,8.073 19.456,7.87L19.456,-0.857C19.456,-1.112 19.354,-1.314 19.151,-1.468L18.046,-2.077C17.283,-2.51 16.114,-2.935 14.54,-3.354C12.964,-3.773 11.363,-3.982 9.737,-3.982C5.927,-3.982 2.681,-2.655 0,0Z" style="fill:none;fill-rule:nonzero;stroke:rgb(97,144,53);stroke-width:1px;"/>
            </g>
            <g id="g94" transform="matrix(1,0,0,1,441.374,146.226)">
                <path id="path96" d="M0,0L0,12.12L-9.185,24.849C-9.337,25.103 -9.35,25.35 -9.223,25.592C-9.096,25.833 -8.88,25.954 -8.575,25.954L-6.783,25.954C-6.555,25.954 -6.352,25.84 -6.174,25.61L1.524,14.978L9.223,25.61C9.4,25.84 9.604,25.954 9.833,25.954L11.624,25.954C11.929,25.954 12.145,25.833 12.271,25.592C12.398,25.35 12.386,25.103 12.233,24.849L2.935,12.158L2.935,0C2.935,-0.178 2.858,-0.343 2.706,-0.495C2.554,-0.647 2.388,-0.724 2.211,-0.724L0.725,-0.724C0.521,-0.724 0.35,-0.654 0.21,-0.514C0.07,-0.375 0,-0.203 0,0" style="fill:rgb(97,144,53);fill-rule:nonzero;"/>
            </g>
            <g id="g98" transform="matrix(1,0,0,1,441.374,146.226)">
                <path id="path100" d="M0,0L0,12.12L-9.185,24.849C-9.337,25.103 -9.35,25.35 -9.223,25.592C-9.096,25.833 -8.88,25.954 -8.575,25.954L-6.783,25.954C-6.555,25.954 -6.352,25.84 -6.174,25.61L1.524,14.978L9.223,25.61C9.4,25.84 9.604,25.954 9.833,25.954L11.624,25.954C11.929,25.954 12.145,25.833 12.271,25.592C12.398,25.35 12.386,25.103 12.233,24.849L2.935,12.158L2.935,0C2.935,-0.178 2.858,-0.343 2.706,-0.495C2.554,-0.647 2.388,-0.724 2.211,-0.724L0.725,-0.724C0.521,-0.724 0.35,-0.654 0.21,-0.514C0.07,-0.375 0,-0.203 0,0Z" style="fill:none;fill-rule:nonzero;stroke:rgb(97,144,53);stroke-width:1px;"/>
            </g>
            <g id="g102" transform="matrix(1,0,0,1,461.001,166.615)">
                <path id="path104" d="M0,0C-2.159,-2.186 -3.239,-4.789 -3.239,-7.813C-3.239,-10.837 -2.159,-13.428 0,-15.587C2.159,-17.747 4.751,-18.826 7.774,-18.826C10.798,-18.826 13.396,-17.747 15.568,-15.587C17.741,-13.428 18.827,-10.837 18.827,-7.813C18.827,-4.789 17.741,-2.186 15.568,0C13.396,2.185 10.798,3.277 7.774,3.277C4.751,3.277 2.159,2.185 0,0M-1.925,-17.512C-4.58,-14.857 -5.907,-11.624 -5.907,-7.813C-5.907,-4.002 -4.58,-0.756 -1.925,1.925C0.73,4.604 3.964,5.945 7.774,5.945C11.586,5.945 14.825,4.604 17.493,1.925C20.161,-0.756 21.494,-4.002 21.494,-7.813C21.494,-11.624 20.161,-14.857 17.493,-17.512C14.825,-20.167 11.586,-21.494 7.774,-21.494C3.964,-21.494 0.73,-20.167 -1.925,-17.512" style="fill:rgb(97,144,53);fill-rule:nonzero;"/>
            </g>
            <g id="g106" transform="matrix(1,0,0,1,461.001,166.615)">
                <path id="path108" d="M0,0C-2.159,-2.186 -3.239,-4.789 -3.239,-7.813C-3.239,-10.837 -2.159,-13.428 0,-15.587C2.159,-17.747 4.751,-18.826 7.774,-18.826C10.798,-18.826 13.396,-17.747 15.568,-15.587C17.741,-13.428 18.827,-10.837 18.827,-7.813C18.827,-4.789 17.741,-2.186 15.568,0C13.396,2.185 10.798,3.277 7.774,3.277C4.751,3.277 2.159,2.185 0,0ZM-1.925,-17.512C-4.58,-14.857 -5.907,-11.624 -5.907,-7.813C-5.907,-4.002 -4.58,-0.756 -1.925,1.925C0.73,4.604 3.964,5.945 7.774,5.945C11.586,5.945 14.825,4.604 17.493,1.925C20.161,-0.756 21.494,-4.002 21.494,-7.813C21.494,-11.624 20.161,-14.857 17.493,-17.512C14.825,-20.167 11.586,-21.494 7.774,-21.494C3.964,-21.494 0.73,-20.167 -1.925,-17.512Z" style="fill:none;fill-rule:nonzero;stroke:rgb(97,144,53);stroke-width:1px;"/>
            </g>
            <g id="g110" transform="matrix(1,0,0,1,487.983,155.335)">
                <path id="path112" d="M0,0L0,16.12C0,16.298 0.07,16.463 0.21,16.616C0.35,16.769 0.521,16.845 0.725,16.845L2.173,16.845C2.376,16.845 2.547,16.774 2.688,16.635C2.826,16.495 2.896,16.323 2.896,16.12L2.896,0.229C2.896,-2.008 3.545,-3.856 4.841,-5.317C6.136,-6.778 7.876,-7.508 10.062,-7.508C12.272,-7.508 14.031,-6.784 15.34,-5.336C16.648,-3.888 17.303,-2.059 17.303,0.152L17.303,16.12C17.303,16.323 17.372,16.495 17.512,16.635C17.651,16.774 17.823,16.845 18.026,16.845L19.475,16.845C19.678,16.845 19.85,16.769 19.989,16.616C20.129,16.463 20.199,16.298 20.199,16.12L20.199,0C20.199,-2.923 19.252,-5.355 17.359,-7.299C15.467,-9.242 13.034,-10.214 10.062,-10.214C7.114,-10.214 4.7,-9.242 2.82,-7.299C0.94,-5.355 0,-2.923 0,0" style="fill:rgb(97,144,53);fill-rule:nonzero;"/>
            </g>
            <g id="g114" transform="matrix(1,0,0,1,487.983,155.335)">
                <path id="path116" d="M0,0L0,16.12C0,16.298 0.07,16.463 0.21,16.616C0.35,16.769 0.521,16.845 0.725,16.845L2.173,16.845C2.376,16.845 2.547,16.774 2.688,16.635C2.826,16.495 2.896,16.323 2.896,16.12L2.896,0.229C2.896,-2.008 3.545,-3.856 4.841,-5.317C6.136,-6.778 7.876,-7.508 10.062,-7.508C12.272,-7.508 14.031,-6.784 15.34,-5.336C16.648,-3.888 17.303,-2.059 17.303,0.152L17.303,16.12C17.303,16.323 17.372,16.495 17.512,16.635C17.651,16.774 17.823,16.845 18.026,16.845L19.475,16.845C19.678,16.845 19.85,16.769 19.989,16.616C20.129,16.463 20.199,16.298 20.199,16.12L20.199,0C20.199,-2.923 19.252,-5.355 17.359,-7.299C15.467,-9.242 13.034,-10.214 10.062,-10.214C7.114,-10.214 4.7,-9.242 2.82,-7.299C0.94,-5.355 0,-2.923 0,0Z" style="fill:none;fill-rule:nonzero;stroke:rgb(97,144,53);stroke-width:1px;"/>
            </g>
            <g id="g118" transform="matrix(1,0,0,1,269.155,116.081)">
                <path id="path120" d="M0,0L6.06,0C7.634,0 8.993,0.565 10.137,1.696C11.28,2.826 11.852,4.205 11.852,5.831C11.852,7.355 11.28,8.645 10.137,9.699C8.993,10.754 7.634,11.281 6.06,11.281L0,11.281L0,0ZM-2.896,-11.776L-2.896,13.453C-2.896,13.656 -2.827,13.828 -2.688,13.968C-2.548,14.107 -2.376,14.178 -2.173,14.178L6.25,14.178C8.587,14.178 10.595,13.352 12.271,11.7C13.948,10.049 14.786,8.066 14.786,5.755C14.786,3.393 13.954,1.372 12.29,-0.305C10.626,-1.981 8.625,-2.82 6.288,-2.82L0,-2.82L0,-11.776C0,-11.954 -0.077,-12.119 -0.229,-12.271C-0.382,-12.424 -0.547,-12.5 -0.725,-12.5L-2.173,-12.5C-2.376,-12.5 -2.548,-12.431 -2.688,-12.29C-2.827,-12.151 -2.896,-11.979 -2.896,-11.776" style="fill:rgb(97,144,53);fill-rule:nonzero;"/>
            </g>
            <g id="g122" transform="matrix(1,0,0,1,269.155,116.081)">
                <path id="path124" d="M0,0L6.06,0C7.634,0 8.993,0.565 10.137,1.696C11.28,2.826 11.852,4.205 11.852,5.831C11.852,7.355 11.28,8.645 10.137,9.699C8.993,10.754 7.634,11.281 6.06,11.281L0,11.281L0,0ZM-2.896,-11.776L-2.896,13.453C-2.896,13.656 -2.827,13.828 -2.688,13.968C-2.548,14.107 -2.376,14.178 -2.173,14.178L6.25,14.178C8.587,14.178 10.595,13.352 12.271,11.7C13.948,10.049 14.786,8.066 14.786,5.755C14.786,3.393 13.954,1.372 12.29,-0.305C10.626,-1.981 8.625,-2.82 6.288,-2.82L0,-2.82L0,-11.776C0,-11.954 -0.077,-12.119 -0.229,-12.271C-0.382,-12.424 -0.547,-12.5 -0.725,-12.5L-2.173,-12.5C-2.376,-12.5 -2.548,-12.431 -2.688,-12.29C-2.827,-12.151 -2.896,-11.979 -2.896,-11.776Z" style="fill:none;fill-rule:nonzero;stroke:rgb(97,144,53);stroke-width:1px;"/>
            </g>
            <g id="g126" transform="matrix(1,0,0,1,291.983,116.539)">
                <path id="path128" d="M0,0L7.393,0C8.866,0 10.149,0.539 11.242,1.619C12.334,2.699 12.881,4.014 12.881,5.563C12.881,7.012 12.334,8.27 11.242,9.337C10.149,10.404 8.866,10.938 7.393,10.938L0,10.938L0,0ZM-3.011,-12.234L-3.011,12.995C-3.011,13.198 -2.941,13.37 -2.802,13.51C-2.662,13.649 -2.49,13.72 -2.287,13.72L7.584,13.72C9.87,13.72 11.826,12.932 13.453,11.356C15.078,9.781 15.892,7.863 15.892,5.602C15.892,3.874 15.377,2.317 14.349,0.934C13.319,-0.452 11.953,-1.486 10.251,-2.173L15.473,-11.853C15.625,-12.107 15.631,-12.354 15.491,-12.596C15.352,-12.838 15.13,-12.958 14.824,-12.958L12.881,-12.958C12.602,-12.958 12.398,-12.844 12.271,-12.615L7.202,-2.516L-0.076,-2.516L-0.076,-12.234C-0.076,-12.412 -0.146,-12.577 -0.286,-12.729C-0.426,-12.882 -0.598,-12.958 -0.801,-12.958L-2.287,-12.958C-2.49,-12.958 -2.662,-12.889 -2.802,-12.748C-2.941,-12.609 -3.011,-12.438 -3.011,-12.234" style="fill:rgb(97,144,53);fill-rule:nonzero;"/>
            </g>
            <g id="g130" transform="matrix(1,0,0,1,291.983,116.539)">
                <path id="path132" d="M0,0L7.393,0C8.866,0 10.149,0.539 11.242,1.619C12.334,2.699 12.881,4.014 12.881,5.563C12.881,7.012 12.334,8.27 11.242,9.337C10.149,10.404 8.866,10.938 7.393,10.938L0,10.938L0,0ZM-3.011,-12.234L-3.011,12.995C-3.011,13.198 -2.941,13.37 -2.802,13.51C-2.662,13.649 -2.49,13.72 -2.287,13.72L7.584,13.72C9.87,13.72 11.826,12.932 13.453,11.356C15.078,9.781 15.892,7.863 15.892,5.602C15.892,3.874 15.377,2.317 14.349,0.934C13.319,-0.452 11.953,-1.486 10.251,-2.173L15.473,-11.853C15.625,-12.107 15.631,-12.354 15.491,-12.596C15.352,-12.838 15.13,-12.958 14.824,-12.958L12.881,-12.958C12.602,-12.958 12.398,-12.844 12.271,-12.615L7.202,-2.516L-0.076,-2.516L-0.076,-12.234C-0.076,-12.412 -0.146,-12.577 -0.286,-12.729C-0.426,-12.882 -0.598,-12.958 -0.801,-12.958L-2.287,-12.958C-2.49,-12.958 -2.662,-12.889 -2.802,-12.748C-2.941,-12.609 -3.011,-12.438 -3.011,-12.234Z" style="fill:none;fill-rule:nonzero;stroke:rgb(97,144,53);stroke-width:1px;"/>
            </g>
            <g id="g134" transform="matrix(1,0,0,1,314.164,104.305)">
                <path id="path136" d="M0,0L0,25.229C0,25.433 0.069,25.604 0.209,25.744C0.349,25.884 0.521,25.954 0.724,25.954L15.739,25.954C15.942,25.954 16.114,25.884 16.254,25.744C16.394,25.604 16.464,25.433 16.464,25.229L16.464,24.125C16.464,23.921 16.394,23.749 16.254,23.61C16.114,23.47 15.942,23.4 15.739,23.4L2.935,23.4L2.935,14.102L13.872,14.102C14.075,14.102 14.246,14.031 14.387,13.892C14.525,13.752 14.596,13.58 14.596,13.377L14.596,12.272C14.596,12.068 14.525,11.896 14.387,11.758C14.246,11.617 14.075,11.548 13.872,11.548L2.935,11.548L2.935,1.83L15.739,1.83C15.942,1.83 16.114,1.76 16.254,1.62C16.394,1.48 16.464,1.309 16.464,1.105L16.464,0C16.464,-0.203 16.394,-0.375 16.254,-0.514C16.114,-0.654 15.942,-0.724 15.739,-0.724L0.724,-0.724C0.521,-0.724 0.349,-0.654 0.209,-0.514C0.069,-0.375 0,-0.203 0,0" style="fill:rgb(97,144,53);fill-rule:nonzero;"/>
            </g>
            <g id="g138" transform="matrix(1,0,0,1,314.164,104.305)">
                <path id="path140" d="M0,0L0,25.229C0,25.433 0.069,25.604 0.209,25.744C0.349,25.884 0.521,25.954 0.724,25.954L15.739,25.954C15.942,25.954 16.114,25.884 16.254,25.744C16.394,25.604 16.464,25.433 16.464,25.229L16.464,24.125C16.464,23.921 16.394,23.749 16.254,23.61C16.114,23.47 15.942,23.4 15.739,23.4L2.935,23.4L2.935,14.102L13.872,14.102C14.075,14.102 14.246,14.031 14.387,13.892C14.525,13.752 14.596,13.58 14.596,13.377L14.596,12.272C14.596,12.068 14.525,11.896 14.387,11.758C14.246,11.617 14.075,11.548 13.872,11.548L2.935,11.548L2.935,1.83L15.739,1.83C15.942,1.83 16.114,1.76 16.254,1.62C16.394,1.48 16.464,1.309 16.464,1.105L16.464,0C16.464,-0.203 16.394,-0.375 16.254,-0.514C16.114,-0.654 15.942,-0.724 15.739,-0.724L0.724,-0.724C0.521,-0.724 0.349,-0.654 0.209,-0.514C0.069,-0.375 0,-0.203 0,0Z" style="fill:none;fill-rule:nonzero;stroke:rgb(97,144,53);stroke-width:1px;"/>
            </g>
            <g id="g142" transform="matrix(1,0,0,1,344.614,103.619)">
                <path id="path144" d="M0,0L-11.51,25.648C-11.637,25.902 -11.631,26.131 -11.49,26.335C-11.352,26.537 -11.142,26.64 -10.861,26.64L-9.337,26.64C-9.008,26.64 -8.791,26.499 -8.689,26.22L0.8,4.878L0.952,4.878L10.442,26.22C10.543,26.499 10.76,26.64 11.09,26.64L12.614,26.64C12.894,26.64 13.104,26.537 13.243,26.335C13.383,26.131 13.39,25.902 13.263,25.648L1.677,0C1.549,-0.279 1.334,-0.419 1.029,-0.419L0.647,-0.419C0.343,-0.419 0.127,-0.279 0,0" style="fill:rgb(97,144,53);fill-rule:nonzero;"/>
            </g>
            <g id="g146" transform="matrix(1,0,0,1,344.614,103.619)">
                <path id="path148" d="M0,0L-11.51,25.648C-11.637,25.902 -11.631,26.131 -11.49,26.335C-11.352,26.537 -11.142,26.64 -10.861,26.64L-9.337,26.64C-9.008,26.64 -8.791,26.499 -8.689,26.22L0.8,4.878L0.952,4.878L10.442,26.22C10.543,26.499 10.76,26.64 11.09,26.64L12.614,26.64C12.894,26.64 13.104,26.537 13.243,26.335C13.383,26.131 13.39,25.902 13.263,25.648L1.677,0C1.549,-0.279 1.334,-0.419 1.029,-0.419L0.647,-0.419C0.343,-0.419 0.127,-0.279 0,0Z" style="fill:none;fill-rule:nonzero;stroke:rgb(97,144,53);stroke-width:1px;"/>
            </g>
            <g id="g150" transform="matrix(1,0,0,1,362.03,104.305)">
                <path id="path152" d="M0,0L0,25.229C0,25.433 0.069,25.604 0.209,25.744C0.349,25.884 0.521,25.954 0.724,25.954L15.739,25.954C15.942,25.954 16.114,25.884 16.254,25.744C16.394,25.604 16.464,25.433 16.464,25.229L16.464,24.125C16.464,23.921 16.394,23.749 16.254,23.61C16.114,23.47 15.942,23.4 15.739,23.4L2.935,23.4L2.935,14.102L13.872,14.102C14.075,14.102 14.246,14.031 14.387,13.892C14.525,13.752 14.596,13.58 14.596,13.377L14.596,12.272C14.596,12.068 14.525,11.896 14.387,11.758C14.246,11.617 14.075,11.548 13.872,11.548L2.935,11.548L2.935,1.83L15.739,1.83C15.942,1.83 16.114,1.76 16.254,1.62C16.394,1.48 16.464,1.309 16.464,1.105L16.464,0C16.464,-0.203 16.394,-0.375 16.254,-0.514C16.114,-0.654 15.942,-0.724 15.739,-0.724L0.724,-0.724C0.521,-0.724 0.349,-0.654 0.209,-0.514C0.069,-0.375 0,-0.203 0,0" style="fill:rgb(97,144,53);fill-rule:nonzero;"/>
            </g>
            <g id="g154" transform="matrix(1,0,0,1,362.03,104.305)">
                <path id="path156" d="M0,0L0,25.229C0,25.433 0.069,25.604 0.209,25.744C0.349,25.884 0.521,25.954 0.724,25.954L15.739,25.954C15.942,25.954 16.114,25.884 16.254,25.744C16.394,25.604 16.464,25.433 16.464,25.229L16.464,24.125C16.464,23.921 16.394,23.749 16.254,23.61C16.114,23.47 15.942,23.4 15.739,23.4L2.935,23.4L2.935,14.102L13.872,14.102C14.075,14.102 14.246,14.031 14.387,13.892C14.525,13.752 14.596,13.58 14.596,13.377L14.596,12.272C14.596,12.068 14.525,11.896 14.387,11.758C14.246,11.617 14.075,11.548 13.872,11.548L2.935,11.548L2.935,1.83L15.739,1.83C15.942,1.83 16.114,1.76 16.254,1.62C16.394,1.48 16.464,1.309 16.464,1.105L16.464,0C16.464,-0.203 16.394,-0.375 16.254,-0.514C16.114,-0.654 15.942,-0.724 15.739,-0.724L0.724,-0.724C0.521,-0.724 0.349,-0.654 0.209,-0.514C0.069,-0.375 0,-0.203 0,0Z" style="fill:none;fill-rule:nonzero;stroke:rgb(97,144,53);stroke-width:1px;"/>
            </g>
            <g id="g158" transform="matrix(1,0,0,1,384.592,104.305)">
                <path id="path160" d="M0,0L0,25.649C0,25.826 0.069,25.985 0.209,26.125C0.349,26.265 0.521,26.335 0.724,26.335L1.677,26.335L18.864,4.917L18.94,4.917L18.94,25.229C18.94,25.433 19.011,25.604 19.15,25.744C19.289,25.884 19.461,25.954 19.665,25.954L20.999,25.954C21.176,25.954 21.342,25.878 21.494,25.726C21.646,25.572 21.723,25.407 21.723,25.229L21.723,-0.419C21.723,-0.597 21.652,-0.755 21.513,-0.896C21.373,-1.034 21.201,-1.104 20.999,-1.104L20.313,-1.104L2.819,20.732L2.781,20.732L2.781,0C2.781,-0.203 2.711,-0.375 2.572,-0.514C2.432,-0.654 2.261,-0.724 2.058,-0.724L0.724,-0.724C0.546,-0.724 0.381,-0.647 0.229,-0.495C0.076,-0.343 0,-0.178 0,0" style="fill:rgb(97,144,53);fill-rule:nonzero;"/>
            </g>
            <g id="g162" transform="matrix(1,0,0,1,384.592,104.305)">
                <path id="path164" d="M0,0L0,25.649C0,25.826 0.069,25.985 0.209,26.125C0.349,26.265 0.521,26.335 0.724,26.335L1.677,26.335L18.864,4.917L18.94,4.917L18.94,25.229C18.94,25.433 19.011,25.604 19.15,25.744C19.289,25.884 19.461,25.954 19.665,25.954L20.999,25.954C21.176,25.954 21.342,25.878 21.494,25.726C21.646,25.572 21.723,25.407 21.723,25.229L21.723,-0.419C21.723,-0.597 21.652,-0.755 21.513,-0.896C21.373,-1.034 21.201,-1.104 20.999,-1.104L20.313,-1.104L2.819,20.732L2.781,20.732L2.781,0C2.781,-0.203 2.711,-0.375 2.572,-0.514C2.432,-0.654 2.261,-0.724 2.058,-0.724L0.724,-0.724C0.546,-0.724 0.381,-0.647 0.229,-0.495C0.076,-0.343 0,-0.178 0,0Z" style="fill:none;fill-rule:nonzero;stroke:rgb(97,144,53);stroke-width:1px;"/>
            </g>
            <g id="g166" transform="matrix(1,0,0,1,417.861,104.305)">
                <path id="path168" d="M0,0L0,23.4L-6.631,23.4C-6.835,23.4 -7.006,23.47 -7.146,23.61C-7.285,23.749 -7.355,23.921 -7.355,24.125L-7.355,25.229C-7.355,25.433 -7.285,25.604 -7.146,25.744C-7.006,25.884 -6.835,25.954 -6.631,25.954L9.527,25.954C9.73,25.954 9.902,25.884 10.042,25.744C10.182,25.604 10.252,25.433 10.252,25.229L10.252,24.125C10.252,23.921 10.182,23.749 10.042,23.61C9.902,23.47 9.73,23.4 9.527,23.4L2.896,23.4L2.896,0C2.896,-0.178 2.826,-0.343 2.687,-0.495C2.547,-0.647 2.375,-0.724 2.173,-0.724L0.725,-0.724C0.521,-0.724 0.349,-0.647 0.21,-0.495C0.069,-0.343 0,-0.178 0,0" style="fill:rgb(97,144,53);fill-rule:nonzero;"/>
            </g>
            <g id="g170" transform="matrix(1,0,0,1,417.861,104.305)">
                <path id="path172" d="M0,0L0,23.4L-6.631,23.4C-6.835,23.4 -7.006,23.47 -7.146,23.61C-7.285,23.749 -7.355,23.921 -7.355,24.125L-7.355,25.229C-7.355,25.433 -7.285,25.604 -7.146,25.744C-7.006,25.884 -6.835,25.954 -6.631,25.954L9.527,25.954C9.73,25.954 9.902,25.884 10.042,25.744C10.182,25.604 10.252,25.433 10.252,25.229L10.252,24.125C10.252,23.921 10.182,23.749 10.042,23.61C9.902,23.47 9.73,23.4 9.527,23.4L2.896,23.4L2.896,0C2.896,-0.178 2.826,-0.343 2.687,-0.495C2.547,-0.647 2.375,-0.724 2.173,-0.724L0.725,-0.724C0.521,-0.724 0.349,-0.647 0.21,-0.495C0.069,-0.343 0,-0.178 0,0Z" style="fill:none;fill-rule:nonzero;stroke:rgb(97,144,53);stroke-width:1px;"/>
            </g>
            <g id="g174" transform="matrix(1,0,0,1,443.662,106.211)">
                <path id="path176" d="M0,0L5.716,0C8.841,0 11.42,1.01 13.452,3.029C15.485,5.05 16.501,7.622 16.501,10.747C16.501,13.872 15.485,16.438 13.452,18.445C11.42,20.452 8.841,21.456 5.716,21.456L0,21.456L0,0ZM-2.896,-1.906L-2.896,23.323C-2.896,23.526 -2.827,23.698 -2.688,23.838C-2.548,23.978 -2.389,24.048 -2.211,24.048L6.326,24.048C10.01,24.048 13.16,22.745 15.777,20.142C18.394,17.536 19.703,14.405 19.703,10.747C19.703,7.063 18.394,3.912 15.777,1.296C13.16,-1.321 10.01,-2.63 6.326,-2.63L-2.211,-2.63C-2.389,-2.63 -2.548,-2.561 -2.688,-2.42C-2.827,-2.281 -2.896,-2.109 -2.896,-1.906" style="fill:rgb(97,144,53);fill-rule:nonzero;"/>
            </g>
            <g id="g178" transform="matrix(1,0,0,1,443.662,106.211)">
                <path id="path180" d="M0,0L5.716,0C8.841,0 11.42,1.01 13.452,3.029C15.485,5.05 16.501,7.622 16.501,10.747C16.501,13.872 15.485,16.438 13.452,18.445C11.42,20.452 8.841,21.456 5.716,21.456L0,21.456L0,0ZM-2.896,-1.906L-2.896,23.323C-2.896,23.526 -2.827,23.698 -2.688,23.838C-2.548,23.978 -2.389,24.048 -2.211,24.048L6.326,24.048C10.01,24.048 13.16,22.745 15.777,20.142C18.394,17.536 19.703,14.405 19.703,10.747C19.703,7.063 18.394,3.912 15.777,1.296C13.16,-1.321 10.01,-2.63 6.326,-2.63L-2.211,-2.63C-2.389,-2.63 -2.548,-2.561 -2.688,-2.42C-2.827,-2.281 -2.896,-2.109 -2.896,-1.906Z" style="fill:none;fill-rule:nonzero;stroke:rgb(97,144,53);stroke-width:1px;"/>
            </g>
            <g id="g182" transform="matrix(1,0,0,1,469.234,104.305)">
                <path id="path184" d="M0,0L0,25.229C0,25.407 0.076,25.572 0.229,25.726C0.381,25.878 0.546,25.954 0.724,25.954L2.248,25.954C2.426,25.954 2.591,25.878 2.743,25.726C2.896,25.572 2.973,25.407 2.973,25.229L2.973,0C2.973,-0.178 2.896,-0.343 2.743,-0.495C2.591,-0.647 2.426,-0.724 2.248,-0.724L0.724,-0.724C0.546,-0.724 0.381,-0.647 0.229,-0.495C0.076,-0.343 0,-0.178 0,0" style="fill:rgb(97,144,53);fill-rule:nonzero;"/>
            </g>
            <g id="g186" transform="matrix(1,0,0,1,469.234,104.305)">
                <path id="path188" d="M0,0L0,25.229C0,25.407 0.076,25.572 0.229,25.726C0.381,25.878 0.546,25.954 0.724,25.954L2.248,25.954C2.426,25.954 2.591,25.878 2.743,25.726C2.896,25.572 2.973,25.407 2.973,25.229L2.973,0C2.973,-0.178 2.896,-0.343 2.743,-0.495C2.591,-0.647 2.426,-0.724 2.248,-0.724L0.724,-0.724C0.546,-0.724 0.381,-0.647 0.229,-0.495C0.076,-0.343 0,-0.178 0,0Z" style="fill:none;fill-rule:nonzero;stroke:rgb(97,144,53);stroke-width:1px;"/>
            </g>
            <g id="g190" transform="matrix(1,0,0,1,482.992,112.651)">
                <path id="path192" d="M0,0L11.433,0L5.868,12.5L5.563,12.5L0,0ZM-6.021,-9.07C-6.302,-9.07 -6.512,-8.969 -6.65,-8.766C-6.791,-8.563 -6.797,-8.334 -6.67,-8.079L4.916,17.569C5.068,17.849 5.284,17.988 5.563,17.988L5.945,17.988C6.225,17.988 6.44,17.849 6.593,17.569L18.103,-8.079C18.229,-8.334 18.223,-8.563 18.083,-8.766C17.943,-8.969 17.733,-9.07 17.454,-9.07L15.93,-9.07C15.6,-9.07 15.383,-8.931 15.282,-8.651L12.462,-2.363L-1.067,-2.363L-3.85,-8.651C-3.951,-8.931 -4.168,-9.07 -4.497,-9.07L-6.021,-9.07Z" style="fill:rgb(97,144,53);fill-rule:nonzero;"/>
            </g>
            <g id="g194" transform="matrix(1,0,0,1,482.992,112.651)">
                <path id="path196" d="M0,0L11.433,0L5.868,12.5L5.563,12.5L0,0ZM-6.021,-9.07C-6.302,-9.07 -6.512,-8.969 -6.65,-8.766C-6.791,-8.563 -6.797,-8.334 -6.67,-8.079L4.916,17.569C5.068,17.849 5.284,17.988 5.563,17.988L5.945,17.988C6.225,17.988 6.44,17.849 6.593,17.569L18.103,-8.079C18.229,-8.334 18.223,-8.563 18.083,-8.766C17.943,-8.969 17.733,-9.07 17.454,-9.07L15.93,-9.07C15.6,-9.07 15.383,-8.931 15.282,-8.651L12.462,-2.363L-1.067,-2.363L-3.85,-8.651C-3.951,-8.931 -4.168,-9.07 -4.497,-9.07L-6.021,-9.07Z" style="fill:none;fill-rule:nonzero;stroke:rgb(97,144,53);stroke-width:1px;"/>
            </g>
            <g id="g198" transform="matrix(1,0,0,1,508.106,118.292)">
                <path id="path200" d="M0,0L6.213,0C7.635,0 8.753,0.45 9.566,1.353C10.379,2.254 10.786,3.392 10.786,4.764C10.786,6.16 10.386,7.272 9.585,8.099C8.785,8.924 7.661,9.337 6.213,9.337L0,9.337L0,0ZM-0.076,-12.157L6.86,-12.157C8.232,-12.157 9.376,-11.694 10.29,-10.767C11.205,-9.839 11.662,-8.689 11.662,-7.317C11.662,-5.971 11.129,-4.854 10.062,-3.964C8.994,-3.074 7.711,-2.63 6.213,-2.63L-0.076,-2.63L-0.076,-12.157ZM-2.857,-13.987L-2.857,11.242C-2.857,11.445 -2.788,11.617 -2.648,11.757C-2.509,11.896 -2.337,11.967 -2.134,11.967L6.213,11.967C8.524,11.967 10.404,11.306 11.853,9.984C13.301,8.663 14.025,6.986 14.025,4.954C14.025,3.607 13.656,2.4 12.92,1.334C12.183,0.267 11.307,-0.56 10.29,-1.144C11.535,-1.652 12.608,-2.42 13.511,-3.449C14.412,-4.479 14.863,-5.78 14.863,-7.355C14.863,-9.49 14.088,-11.249 12.539,-12.634C10.989,-14.019 8.994,-14.711 6.556,-14.711L-2.134,-14.711C-2.337,-14.711 -2.509,-14.642 -2.648,-14.501C-2.788,-14.362 -2.857,-14.19 -2.857,-13.987" style="fill:rgb(97,144,53);fill-rule:nonzero;"/>
            </g>
            <g id="g202" transform="matrix(1,0,0,1,508.106,118.292)">
                <path id="path204" d="M0,0L6.213,0C7.635,0 8.753,0.45 9.566,1.353C10.379,2.254 10.786,3.392 10.786,4.764C10.786,6.16 10.386,7.272 9.585,8.099C8.785,8.924 7.661,9.337 6.213,9.337L0,9.337L0,0ZM-0.076,-12.157L6.86,-12.157C8.232,-12.157 9.376,-11.694 10.29,-10.767C11.205,-9.839 11.662,-8.689 11.662,-7.317C11.662,-5.971 11.129,-4.854 10.062,-3.964C8.994,-3.074 7.711,-2.63 6.213,-2.63L-0.076,-2.63L-0.076,-12.157ZM-2.857,-13.987L-2.857,11.242C-2.857,11.445 -2.788,11.617 -2.648,11.757C-2.509,11.896 -2.337,11.967 -2.134,11.967L6.213,11.967C8.524,11.967 10.404,11.306 11.853,9.984C13.301,8.663 14.025,6.986 14.025,4.954C14.025,3.607 13.656,2.4 12.92,1.334C12.183,0.267 11.307,-0.56 10.29,-1.144C11.535,-1.652 12.608,-2.42 13.511,-3.449C14.412,-4.479 14.863,-5.78 14.863,-7.355C14.863,-9.49 14.088,-11.249 12.539,-12.634C10.989,-14.019 8.994,-14.711 6.556,-14.711L-2.134,-14.711C-2.337,-14.711 -2.509,-14.642 -2.648,-14.501C-2.788,-14.362 -2.857,-14.19 -2.857,-13.987Z" style="fill:none;fill-rule:nonzero;stroke:rgb(97,144,53);stroke-width:1px;"/>
            </g>
            <g id="g206" transform="matrix(1,0,0,1,529.068,104.305)">
                <path id="path208" d="M0,0L0,25.229C0,25.433 0.069,25.604 0.209,25.744C0.349,25.884 0.521,25.954 0.724,25.954L15.739,25.954C15.942,25.954 16.114,25.884 16.254,25.744C16.394,25.604 16.464,25.433 16.464,25.229L16.464,24.125C16.464,23.921 16.394,23.749 16.254,23.61C16.114,23.47 15.942,23.4 15.739,23.4L2.935,23.4L2.935,14.102L13.872,14.102C14.075,14.102 14.246,14.031 14.387,13.892C14.525,13.752 14.596,13.58 14.596,13.377L14.596,12.272C14.596,12.068 14.525,11.896 14.387,11.758C14.246,11.617 14.075,11.548 13.872,11.548L2.935,11.548L2.935,1.83L15.739,1.83C15.942,1.83 16.114,1.76 16.254,1.62C16.394,1.48 16.464,1.309 16.464,1.105L16.464,0C16.464,-0.203 16.394,-0.375 16.254,-0.514C16.114,-0.654 15.942,-0.724 15.739,-0.724L0.724,-0.724C0.521,-0.724 0.349,-0.654 0.209,-0.514C0.069,-0.375 0,-0.203 0,0" style="fill:rgb(97,144,53);fill-rule:nonzero;"/>
            </g>
            <g id="g210" transform="matrix(1,0,0,1,529.068,104.305)">
                <path id="path212" d="M0,0L0,25.229C0,25.433 0.069,25.604 0.209,25.744C0.349,25.884 0.521,25.954 0.724,25.954L15.739,25.954C15.942,25.954 16.114,25.884 16.254,25.744C16.394,25.604 16.464,25.433 16.464,25.229L16.464,24.125C16.464,23.921 16.394,23.749 16.254,23.61C16.114,23.47 15.942,23.4 15.739,23.4L2.935,23.4L2.935,14.102L13.872,14.102C14.075,14.102 14.246,14.031 14.387,13.892C14.525,13.752 14.596,13.58 14.596,13.377L14.596,12.272C14.596,12.068 14.525,11.896 14.387,11.758C14.246,11.617 14.075,11.548 13.872,11.548L2.935,11.548L2.935,1.83L15.739,1.83C15.942,1.83 16.114,1.76 16.254,1.62C16.394,1.48 16.464,1.309 16.464,1.105L16.464,0C16.464,-0.203 16.394,-0.375 16.254,-0.514C16.114,-0.654 15.942,-0.724 15.739,-0.724L0.724,-0.724C0.521,-0.724 0.349,-0.654 0.209,-0.514C0.069,-0.375 0,-0.203 0,0Z" style="fill:none;fill-rule:nonzero;stroke:rgb(97,144,53);stroke-width:1px;"/>
            </g>
            <g id="g214" transform="matrix(1,0,0,1,555.402,104.305)">
                <path id="path216" d="M0,0L0,23.4L-6.631,23.4C-6.835,23.4 -7.006,23.47 -7.146,23.61C-7.285,23.749 -7.355,23.921 -7.355,24.125L-7.355,25.229C-7.355,25.433 -7.285,25.604 -7.146,25.744C-7.006,25.884 -6.835,25.954 -6.631,25.954L9.527,25.954C9.73,25.954 9.902,25.884 10.042,25.744C10.182,25.604 10.252,25.433 10.252,25.229L10.252,24.125C10.252,23.921 10.182,23.749 10.042,23.61C9.902,23.47 9.73,23.4 9.527,23.4L2.896,23.4L2.896,0C2.896,-0.178 2.826,-0.343 2.687,-0.495C2.547,-0.647 2.375,-0.724 2.173,-0.724L0.725,-0.724C0.521,-0.724 0.349,-0.647 0.21,-0.495C0.069,-0.343 0,-0.178 0,0" style="fill:rgb(97,144,53);fill-rule:nonzero;"/>
            </g>
            <g id="g218" transform="matrix(1,0,0,1,555.402,104.305)">
                <path id="path220" d="M0,0L0,23.4L-6.631,23.4C-6.835,23.4 -7.006,23.47 -7.146,23.61C-7.285,23.749 -7.355,23.921 -7.355,24.125L-7.355,25.229C-7.355,25.433 -7.285,25.604 -7.146,25.744C-7.006,25.884 -6.835,25.954 -6.631,25.954L9.527,25.954C9.73,25.954 9.902,25.884 10.042,25.744C10.182,25.604 10.252,25.433 10.252,25.229L10.252,24.125C10.252,23.921 10.182,23.749 10.042,23.61C9.902,23.47 9.73,23.4 9.527,23.4L2.896,23.4L2.896,0C2.896,-0.178 2.826,-0.343 2.687,-0.495C2.547,-0.647 2.375,-0.724 2.173,-0.724L0.725,-0.724C0.521,-0.724 0.349,-0.647 0.21,-0.495C0.069,-0.343 0,-0.178 0,0Z" style="fill:none;fill-rule:nonzero;stroke:rgb(97,144,53);stroke-width:1px;"/>
            </g>
            <g id="g222" transform="matrix(1,0,0,1,569.847,104.305)">
                <path id="path224" d="M0,0L0,25.229C0,25.433 0.069,25.604 0.209,25.744C0.349,25.884 0.521,25.954 0.724,25.954L15.739,25.954C15.942,25.954 16.114,25.884 16.254,25.744C16.394,25.604 16.464,25.433 16.464,25.229L16.464,24.125C16.464,23.921 16.394,23.749 16.254,23.61C16.114,23.47 15.942,23.4 15.739,23.4L2.935,23.4L2.935,14.102L13.872,14.102C14.075,14.102 14.246,14.031 14.387,13.892C14.525,13.752 14.596,13.58 14.596,13.377L14.596,12.272C14.596,12.068 14.525,11.896 14.387,11.758C14.246,11.617 14.075,11.548 13.872,11.548L2.935,11.548L2.935,1.83L15.739,1.83C15.942,1.83 16.114,1.76 16.254,1.62C16.394,1.48 16.464,1.309 16.464,1.105L16.464,0C16.464,-0.203 16.394,-0.375 16.254,-0.514C16.114,-0.654 15.942,-0.724 15.739,-0.724L0.724,-0.724C0.521,-0.724 0.349,-0.654 0.209,-0.514C0.069,-0.375 0,-0.203 0,0" style="fill:rgb(97,144,53);fill-rule:nonzero;"/>
            </g>
            <g id="g226" transform="matrix(1,0,0,1,569.847,104.305)">
                <path id="path228" d="M0,0L0,25.229C0,25.433 0.069,25.604 0.209,25.744C0.349,25.884 0.521,25.954 0.724,25.954L15.739,25.954C15.942,25.954 16.114,25.884 16.254,25.744C16.394,25.604 16.464,25.433 16.464,25.229L16.464,24.125C16.464,23.921 16.394,23.749 16.254,23.61C16.114,23.47 15.942,23.4 15.739,23.4L2.935,23.4L2.935,14.102L13.872,14.102C14.075,14.102 14.246,14.031 14.387,13.892C14.525,13.752 14.596,13.58 14.596,13.377L14.596,12.272C14.596,12.068 14.525,11.896 14.387,11.758C14.246,11.617 14.075,11.548 13.872,11.548L2.935,11.548L2.935,1.83L15.739,1.83C15.942,1.83 16.114,1.76 16.254,1.62C16.394,1.48 16.464,1.309 16.464,1.105L16.464,0C16.464,-0.203 16.394,-0.375 16.254,-0.514C16.114,-0.654 15.942,-0.724 15.739,-0.724L0.724,-0.724C0.521,-0.724 0.349,-0.654 0.209,-0.514C0.069,-0.375 0,-0.203 0,0Z" style="fill:none;fill-rule:nonzero;stroke:rgb(97,144,53);stroke-width:1px;"/>
            </g>
            <g id="g230" transform="matrix(1,0,0,1,590.922,106.287)">
                <path id="path232" d="M0,0C-0.458,0.381 -0.534,0.813 -0.229,1.296C-0.153,1.372 -0.052,1.492 0.076,1.657C0.203,1.822 0.291,1.943 0.343,2.02C0.8,2.63 1.244,2.744 1.677,2.362C3.938,0.432 6.084,-0.534 8.117,-0.534C9.616,-0.534 10.842,-0.128 11.795,0.686C12.748,1.499 13.224,2.489 13.224,3.658C13.224,4.903 12.696,5.977 11.643,6.879C10.588,7.78 8.892,8.714 6.555,9.68C4.217,10.695 2.515,11.757 1.448,12.862C0.381,13.968 -0.153,15.536 -0.153,17.568C-0.153,18.28 -0.007,19.004 0.285,19.741C0.577,20.478 1.022,21.202 1.619,21.913C2.216,22.624 3.067,23.209 4.173,23.667C5.278,24.124 6.542,24.353 7.965,24.353C9.082,24.353 10.181,24.187 11.262,23.857C12.341,23.526 13.147,23.209 13.682,22.904L14.481,22.409C14.659,22.333 14.786,22.192 14.862,21.989C14.939,21.786 14.888,21.494 14.71,21.113C14.659,21.037 14.583,20.916 14.481,20.751C14.38,20.586 14.304,20.465 14.253,20.389C13.896,19.855 13.453,19.741 12.919,20.046C10.886,21.214 9.223,21.799 7.927,21.799C6.122,21.799 4.795,21.354 3.944,20.465C3.093,19.575 2.667,18.623 2.667,17.606C2.667,16.388 3.093,15.364 3.944,14.539C4.795,13.713 6.084,12.944 7.813,12.233C10.733,11.039 12.874,9.845 14.234,8.651C15.593,7.456 16.272,5.831 16.272,3.772C16.272,1.816 15.466,0.184 13.853,-1.124C12.239,-2.434 10.302,-3.087 8.041,-3.087C6.694,-3.087 5.366,-2.84 4.059,-2.344C2.75,-1.849 1.835,-1.417 1.314,-1.048C0.793,-0.681 0.355,-0.331 0,0" style="fill:rgb(97,144,53);fill-rule:nonzero;"/>
            </g>
            <g id="g234" transform="matrix(1,0,0,1,590.922,106.287)">
                <path id="path236" d="M0,0C-0.458,0.381 -0.534,0.813 -0.229,1.296C-0.153,1.372 -0.052,1.492 0.076,1.657C0.203,1.822 0.291,1.943 0.343,2.02C0.8,2.63 1.244,2.744 1.677,2.362C3.938,0.432 6.084,-0.534 8.117,-0.534C9.616,-0.534 10.842,-0.128 11.795,0.686C12.748,1.499 13.224,2.489 13.224,3.658C13.224,4.903 12.696,5.977 11.643,6.879C10.588,7.78 8.892,8.714 6.555,9.68C4.217,10.695 2.515,11.757 1.448,12.862C0.381,13.968 -0.153,15.536 -0.153,17.568C-0.153,18.28 -0.007,19.004 0.285,19.741C0.577,20.478 1.022,21.202 1.619,21.913C2.216,22.624 3.067,23.209 4.173,23.667C5.278,24.124 6.542,24.353 7.965,24.353C9.082,24.353 10.181,24.187 11.262,23.857C12.341,23.526 13.147,23.209 13.682,22.904L14.481,22.409C14.659,22.333 14.786,22.192 14.862,21.989C14.939,21.786 14.888,21.494 14.71,21.113C14.659,21.037 14.583,20.916 14.481,20.751C14.38,20.586 14.304,20.465 14.253,20.389C13.896,19.855 13.453,19.741 12.919,20.046C10.886,21.214 9.223,21.799 7.927,21.799C6.122,21.799 4.795,21.354 3.944,20.465C3.093,19.575 2.667,18.623 2.667,17.606C2.667,16.388 3.093,15.364 3.944,14.539C4.795,13.713 6.084,12.944 7.813,12.233C10.733,11.039 12.874,9.845 14.234,8.651C15.593,7.456 16.272,5.831 16.272,3.772C16.272,1.816 15.466,0.184 13.853,-1.124C12.239,-2.434 10.302,-3.087 8.041,-3.087C6.694,-3.087 5.366,-2.84 4.059,-2.344C2.75,-1.849 1.835,-1.417 1.314,-1.048C0.793,-0.681 0.355,-0.331 0,0Z" style="fill:none;fill-rule:nonzero;stroke:rgb(97,144,53);stroke-width:1px;"/>
            </g>
            <g id="g238" transform="matrix(1,0,0,1,266.259,62.3828)">
                <path id="path240" d="M0,0L0,25.229C0,25.407 0.076,25.572 0.229,25.726C0.381,25.878 0.546,25.954 0.724,25.954L2.21,25.954C2.413,25.954 2.585,25.884 2.725,25.744C2.864,25.604 2.935,25.433 2.935,25.229L2.935,14.102L18.407,14.102L18.407,25.229C18.407,25.433 18.477,25.604 18.616,25.744C18.756,25.884 18.928,25.954 19.131,25.954L20.617,25.954C20.795,25.954 20.961,25.878 21.113,25.726C21.266,25.572 21.342,25.407 21.342,25.229L21.342,0C21.342,-0.178 21.266,-0.343 21.113,-0.495C20.961,-0.647 20.795,-0.724 20.617,-0.724L19.131,-0.724C18.928,-0.724 18.756,-0.654 18.616,-0.514C18.477,-0.375 18.407,-0.203 18.407,0L18.407,11.548L2.935,11.548L2.935,0C2.935,-0.203 2.864,-0.375 2.725,-0.514C2.585,-0.654 2.413,-0.724 2.21,-0.724L0.724,-0.724C0.546,-0.724 0.381,-0.647 0.229,-0.495C0.076,-0.343 0,-0.178 0,0" style="fill:rgb(97,144,53);fill-rule:nonzero;"/>
            </g>
            <g id="g242" transform="matrix(1,0,0,1,266.259,62.3828)">
                <path id="path244" d="M0,0L0,25.229C0,25.407 0.076,25.572 0.229,25.726C0.381,25.878 0.546,25.954 0.724,25.954L2.21,25.954C2.413,25.954 2.585,25.884 2.725,25.744C2.864,25.604 2.935,25.433 2.935,25.229L2.935,14.102L18.407,14.102L18.407,25.229C18.407,25.433 18.477,25.604 18.616,25.744C18.756,25.884 18.928,25.954 19.131,25.954L20.617,25.954C20.795,25.954 20.961,25.878 21.113,25.726C21.266,25.572 21.342,25.407 21.342,25.229L21.342,0C21.342,-0.178 21.266,-0.343 21.113,-0.495C20.961,-0.647 20.795,-0.724 20.617,-0.724L19.131,-0.724C18.928,-0.724 18.756,-0.654 18.616,-0.514C18.477,-0.375 18.407,-0.203 18.407,0L18.407,11.548L2.935,11.548L2.935,0C2.935,-0.203 2.864,-0.375 2.725,-0.514C2.585,-0.654 2.413,-0.724 2.21,-0.724L0.724,-0.724C0.546,-0.724 0.381,-0.647 0.229,-0.495C0.076,-0.343 0,-0.178 0,0Z" style="fill:none;fill-rule:nonzero;stroke:rgb(97,144,53);stroke-width:1px;"/>
            </g>
            <g id="g246" transform="matrix(1,0,0,1,295.375,62.3828)">
                <path id="path248" d="M0,0L0,25.229C0,25.433 0.069,25.604 0.209,25.744C0.349,25.884 0.521,25.954 0.724,25.954L15.739,25.954C15.942,25.954 16.114,25.884 16.254,25.744C16.394,25.604 16.464,25.433 16.464,25.229L16.464,24.125C16.464,23.921 16.394,23.749 16.254,23.61C16.114,23.47 15.942,23.4 15.739,23.4L2.935,23.4L2.935,14.102L13.872,14.102C14.075,14.102 14.246,14.031 14.387,13.892C14.525,13.752 14.596,13.58 14.596,13.377L14.596,12.272C14.596,12.068 14.525,11.896 14.387,11.758C14.246,11.617 14.075,11.548 13.872,11.548L2.935,11.548L2.935,1.83L15.739,1.83C15.942,1.83 16.114,1.76 16.254,1.62C16.394,1.48 16.464,1.309 16.464,1.105L16.464,0C16.464,-0.203 16.394,-0.375 16.254,-0.514C16.114,-0.654 15.942,-0.724 15.739,-0.724L0.724,-0.724C0.521,-0.724 0.349,-0.654 0.209,-0.514C0.069,-0.375 0,-0.203 0,0" style="fill:rgb(97,144,53);fill-rule:nonzero;"/>
            </g>
            <g id="g250" transform="matrix(1,0,0,1,295.375,62.3828)">
                <path id="path252" d="M0,0L0,25.229C0,25.433 0.069,25.604 0.209,25.744C0.349,25.884 0.521,25.954 0.724,25.954L15.739,25.954C15.942,25.954 16.114,25.884 16.254,25.744C16.394,25.604 16.464,25.433 16.464,25.229L16.464,24.125C16.464,23.921 16.394,23.749 16.254,23.61C16.114,23.47 15.942,23.4 15.739,23.4L2.935,23.4L2.935,14.102L13.872,14.102C14.075,14.102 14.246,14.031 14.387,13.892C14.525,13.752 14.596,13.58 14.596,13.377L14.596,12.272C14.596,12.068 14.525,11.896 14.387,11.758C14.246,11.617 14.075,11.548 13.872,11.548L2.935,11.548L2.935,1.83L15.739,1.83C15.942,1.83 16.114,1.76 16.254,1.62C16.394,1.48 16.464,1.309 16.464,1.105L16.464,0C16.464,-0.203 16.394,-0.375 16.254,-0.514C16.114,-0.654 15.942,-0.724 15.739,-0.724L0.724,-0.724C0.521,-0.724 0.349,-0.654 0.209,-0.514C0.069,-0.375 0,-0.203 0,0Z" style="fill:none;fill-rule:nonzero;stroke:rgb(97,144,53);stroke-width:1px;"/>
            </g>
            <g id="g254" transform="matrix(1,0,0,1,320.947,70.7295)">
                <path id="path256" d="M0,0L11.433,0L5.868,12.5L5.563,12.5L0,0ZM-6.021,-9.07C-6.302,-9.07 -6.512,-8.969 -6.65,-8.766C-6.791,-8.563 -6.797,-8.334 -6.67,-8.079L4.916,17.569C5.068,17.849 5.284,17.988 5.563,17.988L5.945,17.988C6.225,17.988 6.44,17.849 6.593,17.569L18.103,-8.079C18.229,-8.334 18.223,-8.563 18.083,-8.766C17.943,-8.969 17.733,-9.07 17.454,-9.07L15.93,-9.07C15.6,-9.07 15.383,-8.931 15.282,-8.651L12.462,-2.363L-1.067,-2.363L-3.85,-8.651C-3.951,-8.931 -4.168,-9.07 -4.497,-9.07L-6.021,-9.07Z" style="fill:rgb(97,144,53);fill-rule:nonzero;"/>
            </g>
            <g id="g258" transform="matrix(1,0,0,1,320.947,70.7295)">
                <path id="path260" d="M0,0L11.433,0L5.868,12.5L5.563,12.5L0,0ZM-6.021,-9.07C-6.302,-9.07 -6.512,-8.969 -6.65,-8.766C-6.791,-8.563 -6.797,-8.334 -6.67,-8.079L4.916,17.569C5.068,17.849 5.284,17.988 5.563,17.988L5.945,17.988C6.225,17.988 6.44,17.849 6.593,17.569L18.103,-8.079C18.229,-8.334 18.223,-8.563 18.083,-8.766C17.943,-8.969 17.733,-9.07 17.454,-9.07L15.93,-9.07C15.6,-9.07 15.383,-8.931 15.282,-8.651L12.462,-2.363L-1.067,-2.363L-3.85,-8.651C-3.951,-8.931 -4.168,-9.07 -4.497,-9.07L-6.021,-9.07Z" style="fill:none;fill-rule:nonzero;stroke:rgb(97,144,53);stroke-width:1px;"/>
            </g>
            <g id="g262" transform="matrix(1,0,0,1,346.215,74.6172)">
                <path id="path264" d="M0,0L7.393,0C8.866,0 10.149,0.539 11.242,1.619C12.334,2.699 12.881,4.014 12.881,5.563C12.881,7.012 12.334,8.27 11.242,9.337C10.149,10.404 8.866,10.938 7.393,10.938L0,10.938L0,0ZM-3.011,-12.234L-3.011,12.995C-3.011,13.198 -2.941,13.37 -2.802,13.51C-2.662,13.649 -2.49,13.72 -2.287,13.72L7.584,13.72C9.87,13.72 11.826,12.932 13.453,11.356C15.078,9.781 15.892,7.863 15.892,5.602C15.892,3.874 15.377,2.317 14.349,0.934C13.319,-0.452 11.953,-1.486 10.251,-2.173L15.473,-11.853C15.625,-12.107 15.631,-12.354 15.491,-12.596C15.352,-12.838 15.13,-12.958 14.824,-12.958L12.881,-12.958C12.602,-12.958 12.398,-12.844 12.271,-12.615L7.202,-2.516L-0.076,-2.516L-0.076,-12.234C-0.076,-12.412 -0.146,-12.577 -0.286,-12.729C-0.426,-12.882 -0.598,-12.958 -0.801,-12.958L-2.287,-12.958C-2.49,-12.958 -2.662,-12.889 -2.802,-12.748C-2.941,-12.609 -3.011,-12.438 -3.011,-12.234" style="fill:rgb(97,144,53);fill-rule:nonzero;"/>
            </g>
            <g id="g266" transform="matrix(1,0,0,1,346.215,74.6172)">
                <path id="path268" d="M0,0L7.393,0C8.866,0 10.149,0.539 11.242,1.619C12.334,2.699 12.881,4.014 12.881,5.563C12.881,7.012 12.334,8.27 11.242,9.337C10.149,10.404 8.866,10.938 7.393,10.938L0,10.938L0,0ZM-3.011,-12.234L-3.011,12.995C-3.011,13.198 -2.941,13.37 -2.802,13.51C-2.662,13.649 -2.49,13.72 -2.287,13.72L7.584,13.72C9.87,13.72 11.826,12.932 13.453,11.356C15.078,9.781 15.892,7.863 15.892,5.602C15.892,3.874 15.377,2.317 14.349,0.934C13.319,-0.452 11.953,-1.486 10.251,-2.173L15.473,-11.853C15.625,-12.107 15.631,-12.354 15.491,-12.596C15.352,-12.838 15.13,-12.958 14.824,-12.958L12.881,-12.958C12.602,-12.958 12.398,-12.844 12.271,-12.615L7.202,-2.516L-0.076,-2.516L-0.076,-12.234C-0.076,-12.412 -0.146,-12.577 -0.286,-12.729C-0.426,-12.882 -0.598,-12.958 -0.801,-12.958L-2.287,-12.958C-2.49,-12.958 -2.662,-12.889 -2.802,-12.748C-2.941,-12.609 -3.011,-12.438 -3.011,-12.234Z" style="fill:none;fill-rule:nonzero;stroke:rgb(97,144,53);stroke-width:1px;"/>
            </g>
            <g id="g270" transform="matrix(1,0,0,1,372.168,62.3828)">
                <path id="path272" d="M0,0L0,23.4L-6.631,23.4C-6.835,23.4 -7.006,23.47 -7.146,23.61C-7.285,23.749 -7.355,23.921 -7.355,24.125L-7.355,25.229C-7.355,25.433 -7.285,25.604 -7.146,25.744C-7.006,25.884 -6.835,25.954 -6.631,25.954L9.527,25.954C9.73,25.954 9.902,25.884 10.042,25.744C10.182,25.604 10.252,25.433 10.252,25.229L10.252,24.125C10.252,23.921 10.182,23.749 10.042,23.61C9.902,23.47 9.73,23.4 9.527,23.4L2.896,23.4L2.896,0C2.896,-0.178 2.826,-0.343 2.687,-0.495C2.547,-0.647 2.375,-0.724 2.173,-0.724L0.725,-0.724C0.521,-0.724 0.349,-0.647 0.21,-0.495C0.069,-0.343 0,-0.178 0,0" style="fill:rgb(97,144,53);fill-rule:nonzero;"/>
            </g>
            <g id="g274" transform="matrix(1,0,0,1,372.168,62.3828)">
                <path id="path276" d="M0,0L0,23.4L-6.631,23.4C-6.835,23.4 -7.006,23.47 -7.146,23.61C-7.285,23.749 -7.355,23.921 -7.355,24.125L-7.355,25.229C-7.355,25.433 -7.285,25.604 -7.146,25.744C-7.006,25.884 -6.835,25.954 -6.631,25.954L9.527,25.954C9.73,25.954 9.902,25.884 10.042,25.744C10.182,25.604 10.252,25.433 10.252,25.229L10.252,24.125C10.252,23.921 10.182,23.749 10.042,23.61C9.902,23.47 9.73,23.4 9.527,23.4L2.896,23.4L2.896,0C2.896,-0.178 2.826,-0.343 2.687,-0.495C2.547,-0.647 2.375,-0.724 2.173,-0.724L0.725,-0.724C0.521,-0.724 0.349,-0.647 0.21,-0.495C0.069,-0.343 0,-0.178 0,0Z" style="fill:none;fill-rule:nonzero;stroke:rgb(97,144,53);stroke-width:1px;"/>
            </g>
            <g id="g278" transform="matrix(1,0,0,1,397.969,64.2891)">
                <path id="path280" d="M0,0L5.716,0C8.841,0 11.42,1.01 13.452,3.029C15.485,5.05 16.501,7.622 16.501,10.747C16.501,13.872 15.485,16.438 13.452,18.445C11.42,20.452 8.841,21.456 5.716,21.456L0,21.456L0,0ZM-2.896,-1.906L-2.896,23.323C-2.896,23.526 -2.827,23.698 -2.688,23.838C-2.548,23.978 -2.389,24.048 -2.211,24.048L6.326,24.048C10.01,24.048 13.16,22.745 15.777,20.142C18.394,17.536 19.703,14.405 19.703,10.747C19.703,7.063 18.394,3.912 15.777,1.296C13.16,-1.321 10.01,-2.63 6.326,-2.63L-2.211,-2.63C-2.389,-2.63 -2.548,-2.561 -2.688,-2.42C-2.827,-2.281 -2.896,-2.109 -2.896,-1.906" style="fill:rgb(97,144,53);fill-rule:nonzero;"/>
            </g>
            <g id="g282" transform="matrix(1,0,0,1,397.969,64.2891)">
                <path id="path284" d="M0,0L5.716,0C8.841,0 11.42,1.01 13.452,3.029C15.485,5.05 16.501,7.622 16.501,10.747C16.501,13.872 15.485,16.438 13.452,18.445C11.42,20.452 8.841,21.456 5.716,21.456L0,21.456L0,0ZM-2.896,-1.906L-2.896,23.323C-2.896,23.526 -2.827,23.698 -2.688,23.838C-2.548,23.978 -2.389,24.048 -2.211,24.048L6.326,24.048C10.01,24.048 13.16,22.745 15.777,20.142C18.394,17.536 19.703,14.405 19.703,10.747C19.703,7.063 18.394,3.912 15.777,1.296C13.16,-1.321 10.01,-2.63 6.326,-2.63L-2.211,-2.63C-2.389,-2.63 -2.548,-2.561 -2.688,-2.42C-2.827,-2.281 -2.896,-2.109 -2.896,-1.906Z" style="fill:none;fill-rule:nonzero;stroke:rgb(97,144,53);stroke-width:1px;"/>
            </g>
            <g id="g286" transform="matrix(1,0,0,1,423.541,62.3828)">
                <path id="path288" d="M0,0L0,25.229C0,25.407 0.076,25.572 0.229,25.726C0.381,25.878 0.546,25.954 0.724,25.954L2.248,25.954C2.426,25.954 2.591,25.878 2.743,25.726C2.896,25.572 2.973,25.407 2.973,25.229L2.973,0C2.973,-0.178 2.896,-0.343 2.743,-0.495C2.591,-0.647 2.426,-0.724 2.248,-0.724L0.724,-0.724C0.546,-0.724 0.381,-0.647 0.229,-0.495C0.076,-0.343 0,-0.178 0,0" style="fill:rgb(97,144,53);fill-rule:nonzero;"/>
            </g>
            <g id="g290" transform="matrix(1,0,0,1,423.541,62.3828)">
                <path id="path292" d="M0,0L0,25.229C0,25.407 0.076,25.572 0.229,25.726C0.381,25.878 0.546,25.954 0.724,25.954L2.248,25.954C2.426,25.954 2.591,25.878 2.743,25.726C2.896,25.572 2.973,25.407 2.973,25.229L2.973,0C2.973,-0.178 2.896,-0.343 2.743,-0.495C2.591,-0.647 2.426,-0.724 2.248,-0.724L0.724,-0.724C0.546,-0.724 0.381,-0.647 0.229,-0.495C0.076,-0.343 0,-0.178 0,0Z" style="fill:none;fill-rule:nonzero;stroke:rgb(97,144,53);stroke-width:1px;"/>
            </g>
            <g id="g294" transform="matrix(1,0,0,1,432.802,64.3652)">
                <path id="path296" d="M0,0C-0.458,0.381 -0.534,0.813 -0.229,1.296C-0.153,1.372 -0.052,1.492 0.076,1.657C0.203,1.822 0.291,1.943 0.343,2.02C0.8,2.63 1.244,2.744 1.677,2.362C3.938,0.432 6.084,-0.534 8.117,-0.534C9.616,-0.534 10.842,-0.128 11.795,0.686C12.748,1.499 13.224,2.489 13.224,3.658C13.224,4.903 12.696,5.977 11.643,6.879C10.588,7.78 8.892,8.714 6.555,9.68C4.217,10.695 2.515,11.757 1.448,12.862C0.381,13.968 -0.153,15.536 -0.153,17.568C-0.153,18.28 -0.007,19.004 0.285,19.741C0.577,20.478 1.022,21.202 1.619,21.913C2.216,22.624 3.067,23.209 4.173,23.667C5.278,24.124 6.542,24.353 7.965,24.353C9.082,24.353 10.181,24.187 11.262,23.857C12.341,23.526 13.147,23.209 13.682,22.904L14.481,22.409C14.659,22.333 14.786,22.192 14.862,21.989C14.939,21.786 14.888,21.494 14.71,21.113C14.659,21.037 14.583,20.916 14.481,20.751C14.38,20.586 14.304,20.465 14.253,20.389C13.896,19.855 13.453,19.741 12.919,20.046C10.886,21.214 9.223,21.799 7.927,21.799C6.122,21.799 4.795,21.354 3.944,20.465C3.093,19.575 2.667,18.623 2.667,17.606C2.667,16.388 3.093,15.364 3.944,14.539C4.795,13.713 6.084,12.944 7.813,12.233C10.733,11.039 12.874,9.845 14.234,8.651C15.593,7.456 16.272,5.831 16.272,3.772C16.272,1.816 15.466,0.184 13.853,-1.124C12.239,-2.434 10.302,-3.087 8.041,-3.087C6.694,-3.087 5.366,-2.84 4.059,-2.344C2.75,-1.849 1.835,-1.417 1.314,-1.048C0.793,-0.681 0.355,-0.331 0,0" style="fill:rgb(97,144,53);fill-rule:nonzero;"/>
            </g>
            <g id="g298" transform="matrix(1,0,0,1,432.802,64.3652)">
                <path id="path300" d="M0,0C-0.458,0.381 -0.534,0.813 -0.229,1.296C-0.153,1.372 -0.052,1.492 0.076,1.657C0.203,1.822 0.291,1.943 0.343,2.02C0.8,2.63 1.244,2.744 1.677,2.362C3.938,0.432 6.084,-0.534 8.117,-0.534C9.616,-0.534 10.842,-0.128 11.795,0.686C12.748,1.499 13.224,2.489 13.224,3.658C13.224,4.903 12.696,5.977 11.643,6.879C10.588,7.78 8.892,8.714 6.555,9.68C4.217,10.695 2.515,11.757 1.448,12.862C0.381,13.968 -0.153,15.536 -0.153,17.568C-0.153,18.28 -0.007,19.004 0.285,19.741C0.577,20.478 1.022,21.202 1.619,21.913C2.216,22.624 3.067,23.209 4.173,23.667C5.278,24.124 6.542,24.353 7.965,24.353C9.082,24.353 10.181,24.187 11.262,23.857C12.341,23.526 13.147,23.209 13.682,22.904L14.481,22.409C14.659,22.333 14.786,22.192 14.862,21.989C14.939,21.786 14.888,21.494 14.71,21.113C14.659,21.037 14.583,20.916 14.481,20.751C14.38,20.586 14.304,20.465 14.253,20.389C13.896,19.855 13.453,19.741 12.919,20.046C10.886,21.214 9.223,21.799 7.927,21.799C6.122,21.799 4.795,21.354 3.944,20.465C3.093,19.575 2.667,18.623 2.667,17.606C2.667,16.388 3.093,15.364 3.944,14.539C4.795,13.713 6.084,12.944 7.813,12.233C10.733,11.039 12.874,9.845 14.234,8.651C15.593,7.456 16.272,5.831 16.272,3.772C16.272,1.816 15.466,0.184 13.853,-1.124C12.239,-2.434 10.302,-3.087 8.041,-3.087C6.694,-3.087 5.366,-2.84 4.059,-2.344C2.75,-1.849 1.835,-1.417 1.314,-1.048C0.793,-0.681 0.355,-0.331 0,0Z" style="fill:none;fill-rule:nonzero;stroke:rgb(97,144,53);stroke-width:1px;"/>
            </g>
            <g id="g302" transform="matrix(1,0,0,1,454.601,62.3828)">
                <path id="path304" d="M0,0L0,25.229C0,25.433 0.069,25.604 0.209,25.744C0.349,25.884 0.521,25.954 0.724,25.954L15.739,25.954C15.942,25.954 16.114,25.884 16.254,25.744C16.394,25.604 16.464,25.433 16.464,25.229L16.464,24.125C16.464,23.921 16.394,23.749 16.254,23.61C16.114,23.47 15.942,23.4 15.739,23.4L2.935,23.4L2.935,14.102L13.872,14.102C14.075,14.102 14.246,14.031 14.387,13.892C14.525,13.752 14.596,13.58 14.596,13.377L14.596,12.272C14.596,12.068 14.525,11.896 14.387,11.758C14.246,11.617 14.075,11.548 13.872,11.548L2.935,11.548L2.935,1.83L15.739,1.83C15.942,1.83 16.114,1.76 16.254,1.62C16.394,1.48 16.464,1.309 16.464,1.105L16.464,0C16.464,-0.203 16.394,-0.375 16.254,-0.514C16.114,-0.654 15.942,-0.724 15.739,-0.724L0.724,-0.724C0.521,-0.724 0.349,-0.654 0.209,-0.514C0.069,-0.375 0,-0.203 0,0" style="fill:rgb(97,144,53);fill-rule:nonzero;"/>
            </g>
            <g id="g306" transform="matrix(1,0,0,1,454.601,62.3828)">
                <path id="path308" d="M0,0L0,25.229C0,25.433 0.069,25.604 0.209,25.744C0.349,25.884 0.521,25.954 0.724,25.954L15.739,25.954C15.942,25.954 16.114,25.884 16.254,25.744C16.394,25.604 16.464,25.433 16.464,25.229L16.464,24.125C16.464,23.921 16.394,23.749 16.254,23.61C16.114,23.47 15.942,23.4 15.739,23.4L2.935,23.4L2.935,14.102L13.872,14.102C14.075,14.102 14.246,14.031 14.387,13.892C14.525,13.752 14.596,13.58 14.596,13.377L14.596,12.272C14.596,12.068 14.525,11.896 14.387,11.758C14.246,11.617 14.075,11.548 13.872,11.548L2.935,11.548L2.935,1.83L15.739,1.83C15.942,1.83 16.114,1.76 16.254,1.62C16.394,1.48 16.464,1.309 16.464,1.105L16.464,0C16.464,-0.203 16.394,-0.375 16.254,-0.514C16.114,-0.654 15.942,-0.724 15.739,-0.724L0.724,-0.724C0.521,-0.724 0.349,-0.654 0.209,-0.514C0.069,-0.375 0,-0.203 0,0Z" style="fill:none;fill-rule:nonzero;stroke:rgb(97,144,53);stroke-width:1px;"/>
            </g>
            <g id="g310" transform="matrix(1,0,0,1,480.173,70.7295)">
                <path id="path312" d="M0,0L11.433,0L5.868,12.5L5.563,12.5L0,0ZM-6.021,-9.07C-6.302,-9.07 -6.512,-8.969 -6.65,-8.766C-6.791,-8.563 -6.797,-8.334 -6.67,-8.079L4.916,17.569C5.068,17.849 5.284,17.988 5.563,17.988L5.945,17.988C6.225,17.988 6.44,17.849 6.593,17.569L18.103,-8.079C18.229,-8.334 18.223,-8.563 18.083,-8.766C17.943,-8.969 17.733,-9.07 17.454,-9.07L15.93,-9.07C15.6,-9.07 15.383,-8.931 15.282,-8.651L12.462,-2.363L-1.067,-2.363L-3.85,-8.651C-3.951,-8.931 -4.168,-9.07 -4.497,-9.07L-6.021,-9.07Z" style="fill:rgb(97,144,53);fill-rule:nonzero;"/>
            </g>
            <g id="g314" transform="matrix(1,0,0,1,480.173,70.7295)">
                <path id="path316" d="M0,0L11.433,0L5.868,12.5L5.563,12.5L0,0ZM-6.021,-9.07C-6.302,-9.07 -6.512,-8.969 -6.65,-8.766C-6.791,-8.563 -6.797,-8.334 -6.67,-8.079L4.916,17.569C5.068,17.849 5.284,17.988 5.563,17.988L5.945,17.988C6.225,17.988 6.44,17.849 6.593,17.569L18.103,-8.079C18.229,-8.334 18.223,-8.563 18.083,-8.766C17.943,-8.969 17.733,-9.07 17.454,-9.07L15.93,-9.07C15.6,-9.07 15.383,-8.931 15.282,-8.651L12.462,-2.363L-1.067,-2.363L-3.85,-8.651C-3.951,-8.931 -4.168,-9.07 -4.497,-9.07L-6.021,-9.07Z" style="fill:none;fill-rule:nonzero;stroke:rgb(97,144,53);stroke-width:1px;"/>
            </g>
            <g id="g318" transform="matrix(1,0,0,1,500.943,64.3652)">
                <path id="path320" d="M0,0C-0.458,0.381 -0.534,0.813 -0.229,1.296C-0.153,1.372 -0.052,1.492 0.076,1.657C0.203,1.822 0.291,1.943 0.343,2.02C0.8,2.63 1.244,2.744 1.677,2.362C3.938,0.432 6.084,-0.534 8.117,-0.534C9.616,-0.534 10.842,-0.128 11.795,0.686C12.748,1.499 13.224,2.489 13.224,3.658C13.224,4.903 12.696,5.977 11.643,6.879C10.588,7.78 8.892,8.714 6.555,9.68C4.217,10.695 2.515,11.757 1.448,12.862C0.381,13.968 -0.153,15.536 -0.153,17.568C-0.153,18.28 -0.007,19.004 0.285,19.741C0.577,20.478 1.022,21.202 1.619,21.913C2.216,22.624 3.067,23.209 4.173,23.667C5.278,24.124 6.542,24.353 7.965,24.353C9.082,24.353 10.181,24.187 11.262,23.857C12.341,23.526 13.147,23.209 13.682,22.904L14.481,22.409C14.659,22.333 14.786,22.192 14.862,21.989C14.939,21.786 14.888,21.494 14.71,21.113C14.659,21.037 14.583,20.916 14.481,20.751C14.38,20.586 14.304,20.465 14.253,20.389C13.896,19.855 13.453,19.741 12.919,20.046C10.886,21.214 9.223,21.799 7.927,21.799C6.122,21.799 4.795,21.354 3.944,20.465C3.093,19.575 2.667,18.623 2.667,17.606C2.667,16.388 3.093,15.364 3.944,14.539C4.795,13.713 6.084,12.944 7.813,12.233C10.733,11.039 12.874,9.845 14.234,8.651C15.593,7.456 16.272,5.831 16.272,3.772C16.272,1.816 15.466,0.184 13.853,-1.124C12.239,-2.434 10.302,-3.087 8.041,-3.087C6.694,-3.087 5.366,-2.84 4.059,-2.344C2.75,-1.849 1.835,-1.417 1.314,-1.048C0.793,-0.681 0.355,-0.331 0,0" style="fill:rgb(97,144,53);fill-rule:nonzero;"/>
            </g>
            <g id="g322" transform="matrix(1,0,0,1,500.943,64.3652)">
                <path id="path324" d="M0,0C-0.458,0.381 -0.534,0.813 -0.229,1.296C-0.153,1.372 -0.052,1.492 0.076,1.657C0.203,1.822 0.291,1.943 0.343,2.02C0.8,2.63 1.244,2.744 1.677,2.362C3.938,0.432 6.084,-0.534 8.117,-0.534C9.616,-0.534 10.842,-0.128 11.795,0.686C12.748,1.499 13.224,2.489 13.224,3.658C13.224,4.903 12.696,5.977 11.643,6.879C10.588,7.78 8.892,8.714 6.555,9.68C4.217,10.695 2.515,11.757 1.448,12.862C0.381,13.968 -0.153,15.536 -0.153,17.568C-0.153,18.28 -0.007,19.004 0.285,19.741C0.577,20.478 1.022,21.202 1.619,21.913C2.216,22.624 3.067,23.209 4.173,23.667C5.278,24.124 6.542,24.353 7.965,24.353C9.082,24.353 10.181,24.187 11.262,23.857C12.341,23.526 13.147,23.209 13.682,22.904L14.481,22.409C14.659,22.333 14.786,22.192 14.862,21.989C14.939,21.786 14.888,21.494 14.71,21.113C14.659,21.037 14.583,20.916 14.481,20.751C14.38,20.586 14.304,20.465 14.253,20.389C13.896,19.855 13.453,19.741 12.919,20.046C10.886,21.214 9.223,21.799 7.927,21.799C6.122,21.799 4.795,21.354 3.944,20.465C3.093,19.575 2.667,18.623 2.667,17.606C2.667,16.388 3.093,15.364 3.944,14.539C4.795,13.713 6.084,12.944 7.813,12.233C10.733,11.039 12.874,9.845 14.234,8.651C15.593,7.456 16.272,5.831 16.272,3.772C16.272,1.816 15.466,0.184 13.853,-1.124C12.239,-2.434 10.302,-3.087 8.041,-3.087C6.694,-3.087 5.366,-2.84 4.059,-2.344C2.75,-1.849 1.835,-1.417 1.314,-1.048C0.793,-0.681 0.355,-0.331 0,0Z" style="fill:none;fill-rule:nonzero;stroke:rgb(97,144,53);stroke-width:1px;"/>
            </g>
            <g id="g326" transform="matrix(1,0,0,1,522.742,62.3828)">
                <path id="path328" d="M0,0L0,25.229C0,25.433 0.069,25.604 0.209,25.744C0.349,25.884 0.521,25.954 0.724,25.954L15.739,25.954C15.942,25.954 16.114,25.884 16.254,25.744C16.394,25.604 16.464,25.433 16.464,25.229L16.464,24.125C16.464,23.921 16.394,23.749 16.254,23.61C16.114,23.47 15.942,23.4 15.739,23.4L2.935,23.4L2.935,14.102L13.872,14.102C14.075,14.102 14.246,14.031 14.387,13.892C14.525,13.752 14.596,13.58 14.596,13.377L14.596,12.272C14.596,12.068 14.525,11.896 14.387,11.758C14.246,11.617 14.075,11.548 13.872,11.548L2.935,11.548L2.935,1.83L15.739,1.83C15.942,1.83 16.114,1.76 16.254,1.62C16.394,1.48 16.464,1.309 16.464,1.105L16.464,0C16.464,-0.203 16.394,-0.375 16.254,-0.514C16.114,-0.654 15.942,-0.724 15.739,-0.724L0.724,-0.724C0.521,-0.724 0.349,-0.654 0.209,-0.514C0.069,-0.375 0,-0.203 0,0" style="fill:rgb(97,144,53);fill-rule:nonzero;"/>
            </g>
            <g id="g330" transform="matrix(1,0,0,1,522.742,62.3828)">
                <path id="path332" d="M0,0L0,25.229C0,25.433 0.069,25.604 0.209,25.744C0.349,25.884 0.521,25.954 0.724,25.954L15.739,25.954C15.942,25.954 16.114,25.884 16.254,25.744C16.394,25.604 16.464,25.433 16.464,25.229L16.464,24.125C16.464,23.921 16.394,23.749 16.254,23.61C16.114,23.47 15.942,23.4 15.739,23.4L2.935,23.4L2.935,14.102L13.872,14.102C14.075,14.102 14.246,14.031 14.387,13.892C14.525,13.752 14.596,13.58 14.596,13.377L14.596,12.272C14.596,12.068 14.525,11.896 14.387,11.758C14.246,11.617 14.075,11.548 13.872,11.548L2.935,11.548L2.935,1.83L15.739,1.83C15.942,1.83 16.114,1.76 16.254,1.62C16.394,1.48 16.464,1.309 16.464,1.105L16.464,0C16.464,-0.203 16.394,-0.375 16.254,-0.514C16.114,-0.654 15.942,-0.724 15.739,-0.724L0.724,-0.724C0.521,-0.724 0.349,-0.654 0.209,-0.514C0.069,-0.375 0,-0.203 0,0Z" style="fill:none;fill-rule:nonzero;stroke:rgb(97,144,53);stroke-width:1px;"/>
            </g>
            <g id="g334" transform="matrix(1,0,0,1,560.547,77.2842)">
                <path id="path336" d="M0,0C0.66,0.406 1.162,0.725 1.506,0.953C1.849,1.182 2.318,1.55 2.916,2.059C3.513,2.566 3.957,3.106 4.249,3.678C4.541,4.25 4.688,4.853 4.688,5.488C4.688,6.479 4.325,7.343 3.602,8.08C2.878,8.816 1.905,9.185 0.687,9.185C-0.533,9.185 -1.499,8.804 -2.21,8.042C-2.922,7.279 -3.277,6.327 -3.277,5.184C-3.303,4.421 -3.112,3.71 -2.706,3.049C-2.3,2.389 -1.677,1.651 -0.838,0.839L0,0ZM-4.878,-9.032C-4.878,-10.354 -4.415,-11.452 -3.487,-12.328C-2.56,-13.205 -1.423,-13.644 -0.076,-13.644C2.49,-13.644 4.662,-12.563 6.44,-10.404L-0.609,-3.011C-3.455,-4.738 -4.878,-6.745 -4.878,-9.032M-7.546,-8.994C-7.546,-5.996 -5.78,-3.455 -2.248,-1.372L-2.248,-1.295L-3.163,-0.305C-4.992,1.626 -5.882,3.48 -5.831,5.26C-5.831,6.886 -5.247,8.321 -4.078,9.566C-2.909,10.811 -1.245,11.434 0.915,11.434C2.896,11.434 4.465,10.868 5.621,9.737C6.777,8.606 7.355,7.216 7.355,5.564C7.355,3.023 5.475,0.585 1.715,-1.753L8.003,-8.041C9.02,-5.958 9.527,-3.696 9.527,-1.257C9.527,-0.876 9.591,-0.635 9.719,-0.533C9.845,-0.432 10.074,-0.381 10.404,-0.381L11.319,-0.381C11.802,-0.381 12.043,-0.647 12.043,-1.181L12.043,-1.257C12.043,-4.306 11.293,-7.164 9.795,-9.832L13.453,-13.491C13.732,-13.796 13.885,-14.043 13.91,-14.234C13.936,-14.425 13.771,-14.762 13.415,-15.244L12.958,-15.663C12.424,-16.146 11.891,-16.107 11.357,-15.549L8.117,-12.195C5.856,-14.736 3.087,-16.006 -0.19,-16.006C-2.503,-16.006 -4.307,-15.333 -5.603,-13.986C-6.897,-12.64 -7.546,-10.976 -7.546,-8.994" style="fill:rgb(97,144,53);fill-rule:nonzero;"/>
            </g>
            <g id="g338" transform="matrix(1,0,0,1,560.547,77.2842)">
                <path id="path340" d="M0,0C0.66,0.406 1.162,0.725 1.506,0.953C1.849,1.182 2.318,1.55 2.916,2.059C3.513,2.566 3.957,3.106 4.249,3.678C4.541,4.25 4.688,4.853 4.688,5.488C4.688,6.479 4.325,7.343 3.602,8.08C2.878,8.816 1.905,9.185 0.687,9.185C-0.533,9.185 -1.499,8.804 -2.21,8.042C-2.922,7.279 -3.277,6.327 -3.277,5.184C-3.303,4.421 -3.112,3.71 -2.706,3.049C-2.3,2.389 -1.677,1.651 -0.838,0.839L0,0ZM-4.878,-9.032C-4.878,-10.354 -4.415,-11.452 -3.487,-12.328C-2.56,-13.205 -1.423,-13.644 -0.076,-13.644C2.49,-13.644 4.662,-12.563 6.44,-10.404L-0.609,-3.011C-3.455,-4.738 -4.878,-6.745 -4.878,-9.032ZM-7.546,-8.994C-7.546,-5.996 -5.78,-3.455 -2.248,-1.372L-2.248,-1.295L-3.163,-0.305C-4.992,1.626 -5.882,3.48 -5.831,5.26C-5.831,6.886 -5.247,8.321 -4.078,9.566C-2.909,10.811 -1.245,11.434 0.915,11.434C2.896,11.434 4.465,10.868 5.621,9.737C6.777,8.606 7.355,7.216 7.355,5.564C7.355,3.023 5.475,0.585 1.715,-1.753L8.003,-8.041C9.02,-5.958 9.527,-3.696 9.527,-1.257C9.527,-0.876 9.591,-0.635 9.719,-0.533C9.845,-0.432 10.074,-0.381 10.404,-0.381L11.319,-0.381C11.802,-0.381 12.043,-0.647 12.043,-1.181L12.043,-1.257C12.043,-4.306 11.293,-7.164 9.795,-9.832L13.453,-13.491C13.732,-13.796 13.885,-14.043 13.91,-14.234C13.936,-14.425 13.771,-14.762 13.415,-15.244L12.958,-15.663C12.424,-16.146 11.891,-16.107 11.357,-15.549L8.117,-12.195C5.856,-14.736 3.087,-16.006 -0.19,-16.006C-2.503,-16.006 -4.307,-15.333 -5.603,-13.986C-6.897,-12.64 -7.546,-10.976 -7.546,-8.994Z" style="fill:none;fill-rule:nonzero;stroke:rgb(97,144,53);stroke-width:1px;"/>
            </g>
            <g id="g342" transform="matrix(1,0,0,1,586.118,64.3652)">
                <path id="path344" d="M0,0C-0.458,0.381 -0.534,0.813 -0.229,1.296C-0.153,1.372 -0.052,1.492 0.076,1.657C0.203,1.822 0.291,1.943 0.343,2.02C0.8,2.63 1.244,2.744 1.677,2.362C3.938,0.432 6.084,-0.534 8.117,-0.534C9.616,-0.534 10.842,-0.128 11.795,0.686C12.748,1.499 13.224,2.489 13.224,3.658C13.224,4.903 12.696,5.977 11.643,6.879C10.588,7.78 8.892,8.714 6.555,9.68C4.217,10.695 2.515,11.757 1.448,12.862C0.381,13.968 -0.153,15.536 -0.153,17.568C-0.153,18.28 -0.007,19.004 0.285,19.741C0.577,20.478 1.022,21.202 1.619,21.913C2.216,22.624 3.067,23.209 4.173,23.667C5.278,24.124 6.542,24.353 7.965,24.353C9.082,24.353 10.181,24.187 11.262,23.857C12.341,23.526 13.147,23.209 13.682,22.904L14.481,22.409C14.659,22.333 14.786,22.192 14.862,21.989C14.939,21.786 14.888,21.494 14.71,21.113C14.659,21.037 14.583,20.916 14.481,20.751C14.38,20.586 14.304,20.465 14.253,20.389C13.896,19.855 13.453,19.741 12.919,20.046C10.886,21.214 9.223,21.799 7.927,21.799C6.122,21.799 4.795,21.354 3.944,20.465C3.093,19.575 2.667,18.623 2.667,17.606C2.667,16.388 3.093,15.364 3.944,14.539C4.795,13.713 6.084,12.944 7.813,12.233C10.733,11.039 12.874,9.845 14.234,8.651C15.593,7.456 16.272,5.831 16.272,3.772C16.272,1.816 15.466,0.184 13.853,-1.124C12.239,-2.434 10.302,-3.087 8.041,-3.087C6.694,-3.087 5.366,-2.84 4.059,-2.344C2.75,-1.849 1.835,-1.417 1.314,-1.048C0.793,-0.681 0.355,-0.331 0,0" style="fill:rgb(97,144,53);fill-rule:nonzero;"/>
            </g>
            <g id="g346" transform="matrix(1,0,0,1,586.118,64.3652)">
                <path id="path348" d="M0,0C-0.458,0.381 -0.534,0.813 -0.229,1.296C-0.153,1.372 -0.052,1.492 0.076,1.657C0.203,1.822 0.291,1.943 0.343,2.02C0.8,2.63 1.244,2.744 1.677,2.362C3.938,0.432 6.084,-0.534 8.117,-0.534C9.616,-0.534 10.842,-0.128 11.795,0.686C12.748,1.499 13.224,2.489 13.224,3.658C13.224,4.903 12.696,5.977 11.643,6.879C10.588,7.78 8.892,8.714 6.555,9.68C4.217,10.695 2.515,11.757 1.448,12.862C0.381,13.968 -0.153,15.536 -0.153,17.568C-0.153,18.28 -0.007,19.004 0.285,19.741C0.577,20.478 1.022,21.202 1.619,21.913C2.216,22.624 3.067,23.209 4.173,23.667C5.278,24.124 6.542,24.353 7.965,24.353C9.082,24.353 10.181,24.187 11.262,23.857C12.341,23.526 13.147,23.209 13.682,22.904L14.481,22.409C14.659,22.333 14.786,22.192 14.862,21.989C14.939,21.786 14.888,21.494 14.71,21.113C14.659,21.037 14.583,20.916 14.481,20.751C14.38,20.586 14.304,20.465 14.253,20.389C13.896,19.855 13.453,19.741 12.919,20.046C10.886,21.214 9.223,21.799 7.927,21.799C6.122,21.799 4.795,21.354 3.944,20.465C3.093,19.575 2.667,18.623 2.667,17.606C2.667,16.388 3.093,15.364 3.944,14.539C4.795,13.713 6.084,12.944 7.813,12.233C10.733,11.039 12.874,9.845 14.234,8.651C15.593,7.456 16.272,5.831 16.272,3.772C16.272,1.816 15.466,0.184 13.853,-1.124C12.239,-2.434 10.302,-3.087 8.041,-3.087C6.694,-3.087 5.366,-2.84 4.059,-2.344C2.75,-1.849 1.835,-1.417 1.314,-1.048C0.793,-0.681 0.355,-0.331 0,0Z" style="fill:none;fill-rule:nonzero;stroke:rgb(97,144,53);stroke-width:1px;"/>
            </g>
            <g id="g350" transform="matrix(1,0,0,1,611.689,62.3828)">
                <path id="path352" d="M0,0L0,23.4L-6.631,23.4C-6.835,23.4 -7.006,23.47 -7.146,23.61C-7.285,23.749 -7.355,23.921 -7.355,24.125L-7.355,25.229C-7.355,25.433 -7.285,25.604 -7.146,25.744C-7.006,25.884 -6.835,25.954 -6.631,25.954L9.527,25.954C9.73,25.954 9.902,25.884 10.042,25.744C10.182,25.604 10.252,25.433 10.252,25.229L10.252,24.125C10.252,23.921 10.182,23.749 10.042,23.61C9.902,23.47 9.73,23.4 9.527,23.4L2.896,23.4L2.896,0C2.896,-0.178 2.826,-0.343 2.687,-0.495C2.547,-0.647 2.375,-0.724 2.173,-0.724L0.725,-0.724C0.521,-0.724 0.349,-0.647 0.21,-0.495C0.069,-0.343 0,-0.178 0,0" style="fill:rgb(97,144,53);fill-rule:nonzero;"/>
            </g>
            <g id="g354" transform="matrix(1,0,0,1,611.689,62.3828)">
                <path id="path356" d="M0,0L0,23.4L-6.631,23.4C-6.835,23.4 -7.006,23.47 -7.146,23.61C-7.285,23.749 -7.355,23.921 -7.355,24.125L-7.355,25.229C-7.355,25.433 -7.285,25.604 -7.146,25.744C-7.006,25.884 -6.835,25.954 -6.631,25.954L9.527,25.954C9.73,25.954 9.902,25.884 10.042,25.744C10.182,25.604 10.252,25.433 10.252,25.229L10.252,24.125C10.252,23.921 10.182,23.749 10.042,23.61C9.902,23.47 9.73,23.4 9.527,23.4L2.896,23.4L2.896,0C2.896,-0.178 2.826,-0.343 2.687,-0.495C2.547,-0.647 2.375,-0.724 2.173,-0.724L0.725,-0.724C0.521,-0.724 0.349,-0.647 0.21,-0.495C0.069,-0.343 0,-0.178 0,0Z" style="fill:none;fill-rule:nonzero;stroke:rgb(97,144,53);stroke-width:1px;"/>
            </g>
            <g id="g358" transform="matrix(1,0,0,1,629.144,74.6172)">
                <path id="path360" d="M0,0L7.393,0C8.866,0 10.149,0.539 11.242,1.619C12.334,2.699 12.881,4.014 12.881,5.563C12.881,7.012 12.334,8.27 11.242,9.337C10.149,10.404 8.866,10.938 7.393,10.938L0,10.938L0,0ZM-3.011,-12.234L-3.011,12.995C-3.011,13.198 -2.941,13.37 -2.802,13.51C-2.662,13.649 -2.49,13.72 -2.287,13.72L7.584,13.72C9.87,13.72 11.826,12.932 13.453,11.356C15.078,9.781 15.892,7.863 15.892,5.602C15.892,3.874 15.377,2.317 14.349,0.934C13.319,-0.452 11.953,-1.486 10.251,-2.173L15.473,-11.853C15.625,-12.107 15.631,-12.354 15.491,-12.596C15.352,-12.838 15.13,-12.958 14.824,-12.958L12.881,-12.958C12.602,-12.958 12.398,-12.844 12.271,-12.615L7.202,-2.516L-0.076,-2.516L-0.076,-12.234C-0.076,-12.412 -0.146,-12.577 -0.286,-12.729C-0.426,-12.882 -0.598,-12.958 -0.801,-12.958L-2.287,-12.958C-2.49,-12.958 -2.662,-12.889 -2.802,-12.748C-2.941,-12.609 -3.011,-12.438 -3.011,-12.234" style="fill:rgb(97,144,53);fill-rule:nonzero;"/>
            </g>
            <g id="g362" transform="matrix(1,0,0,1,629.144,74.6172)">
                <path id="path364" d="M0,0L7.393,0C8.866,0 10.149,0.539 11.242,1.619C12.334,2.699 12.881,4.014 12.881,5.563C12.881,7.012 12.334,8.27 11.242,9.337C10.149,10.404 8.866,10.938 7.393,10.938L0,10.938L0,0ZM-3.011,-12.234L-3.011,12.995C-3.011,13.198 -2.941,13.37 -2.802,13.51C-2.662,13.649 -2.49,13.72 -2.287,13.72L7.584,13.72C9.87,13.72 11.826,12.932 13.453,11.356C15.078,9.781 15.892,7.863 15.892,5.602C15.892,3.874 15.377,2.317 14.349,0.934C13.319,-0.452 11.953,-1.486 10.251,-2.173L15.473,-11.853C15.625,-12.107 15.631,-12.354 15.491,-12.596C15.352,-12.838 15.13,-12.958 14.824,-12.958L12.881,-12.958C12.602,-12.958 12.398,-12.844 12.271,-12.615L7.202,-2.516L-0.076,-2.516L-0.076,-12.234C-0.076,-12.412 -0.146,-12.577 -0.286,-12.729C-0.426,-12.882 -0.598,-12.958 -0.801,-12.958L-2.287,-12.958C-2.49,-12.958 -2.662,-12.889 -2.802,-12.748C-2.941,-12.609 -3.011,-12.438 -3.011,-12.234Z" style="fill:none;fill-rule:nonzero;stroke:rgb(97,144,53);stroke-width:1px;"/>
            </g>
            <g id="g366" transform="matrix(1,0,0,1,655.288,82.7725)">
                <path id="path368" d="M0,0C-2.159,-2.186 -3.239,-4.789 -3.239,-7.813C-3.239,-10.837 -2.159,-13.428 0,-15.587C2.159,-17.747 4.751,-18.826 7.774,-18.826C10.798,-18.826 13.396,-17.747 15.568,-15.587C17.741,-13.428 18.827,-10.837 18.827,-7.813C18.827,-4.789 17.741,-2.186 15.568,0C13.396,2.185 10.798,3.277 7.774,3.277C4.751,3.277 2.159,2.185 0,0M-1.925,-17.512C-4.58,-14.857 -5.907,-11.624 -5.907,-7.813C-5.907,-4.002 -4.58,-0.756 -1.925,1.925C0.73,4.604 3.964,5.945 7.774,5.945C11.586,5.945 14.825,4.604 17.493,1.925C20.161,-0.756 21.494,-4.002 21.494,-7.813C21.494,-11.624 20.161,-14.857 17.493,-17.512C14.825,-20.167 11.586,-21.494 7.774,-21.494C3.964,-21.494 0.73,-20.167 -1.925,-17.512" style="fill:rgb(97,144,53);fill-rule:nonzero;"/>
            </g>
            <g id="g370" transform="matrix(1,0,0,1,655.288,82.7725)">
                <path id="path372" d="M0,0C-2.159,-2.186 -3.239,-4.789 -3.239,-7.813C-3.239,-10.837 -2.159,-13.428 0,-15.587C2.159,-17.747 4.751,-18.826 7.774,-18.826C10.798,-18.826 13.396,-17.747 15.568,-15.587C17.741,-13.428 18.827,-10.837 18.827,-7.813C18.827,-4.789 17.741,-2.186 15.568,0C13.396,2.185 10.798,3.277 7.774,3.277C4.751,3.277 2.159,2.185 0,0ZM-1.925,-17.512C-4.58,-14.857 -5.907,-11.624 -5.907,-7.813C-5.907,-4.002 -4.58,-0.756 -1.925,1.925C0.73,4.604 3.964,5.945 7.774,5.945C11.586,5.945 14.825,4.604 17.493,1.925C20.161,-0.756 21.494,-4.002 21.494,-7.813C21.494,-11.624 20.161,-14.857 17.493,-17.512C14.825,-20.167 11.586,-21.494 7.774,-21.494C3.964,-21.494 0.73,-20.167 -1.925,-17.512Z" style="fill:none;fill-rule:nonzero;stroke:rgb(97,144,53);stroke-width:1px;"/>
            </g>
            <g id="g374" transform="matrix(1,0,0,1,682.614,62.5742)">
                <path id="path376" d="M0,0L0,24.848C0,25.102 0.088,25.317 0.267,25.496C0.443,25.673 0.66,25.763 0.914,25.763L2.02,25.763C2.273,25.763 2.489,25.673 2.667,25.496C2.845,25.317 2.935,25.102 2.935,24.848L2.935,14.063L14.824,25.381C15.027,25.635 15.269,25.763 15.549,25.763L17.416,25.763C17.771,25.763 18.007,25.61 18.121,25.305C18.235,25 18.152,24.708 17.873,24.429L5.83,13.186L18.445,0.267C18.623,0.139 18.654,-0.09 18.54,-0.42C18.426,-0.75 18.179,-0.915 17.797,-0.915L15.854,-0.915C15.523,-0.915 15.295,-0.826 15.168,-0.648L2.935,12.119L2.935,0C2.935,-0.255 2.845,-0.471 2.667,-0.648C2.489,-0.826 2.273,-0.915 2.02,-0.915L0.914,-0.915C0.66,-0.915 0.443,-0.826 0.267,-0.648C0.088,-0.471 0,-0.255 0,0" style="fill:rgb(97,144,53);fill-rule:nonzero;"/>
            </g>
            <g id="g378" transform="matrix(1,0,0,1,682.614,62.5742)">
                <path id="path380" d="M0,0L0,24.848C0,25.102 0.088,25.317 0.267,25.496C0.443,25.673 0.66,25.763 0.914,25.763L2.02,25.763C2.273,25.763 2.489,25.673 2.667,25.496C2.845,25.317 2.935,25.102 2.935,24.848L2.935,14.063L14.824,25.381C15.027,25.635 15.269,25.763 15.549,25.763L17.416,25.763C17.771,25.763 18.007,25.61 18.121,25.305C18.235,25 18.152,24.708 17.873,24.429L5.83,13.186L18.445,0.267C18.623,0.139 18.654,-0.09 18.54,-0.42C18.426,-0.75 18.179,-0.915 17.797,-0.915L15.854,-0.915C15.523,-0.915 15.295,-0.826 15.168,-0.648L2.935,12.119L2.935,0C2.935,-0.255 2.845,-0.471 2.667,-0.648C2.489,-0.826 2.273,-0.915 2.02,-0.915L0.914,-0.915C0.66,-0.915 0.443,-0.826 0.267,-0.648C0.088,-0.471 0,-0.255 0,0Z" style="fill:none;fill-rule:nonzero;stroke:rgb(97,144,53);stroke-width:1px;"/>
            </g>
            <g id="g382" transform="matrix(1,0,0,1,705.976,62.3828)">
                <path id="path384" d="M0,0L0,25.229C0,25.433 0.069,25.604 0.209,25.744C0.349,25.884 0.521,25.954 0.724,25.954L15.739,25.954C15.942,25.954 16.114,25.884 16.254,25.744C16.394,25.604 16.464,25.433 16.464,25.229L16.464,24.125C16.464,23.921 16.394,23.749 16.254,23.61C16.114,23.47 15.942,23.4 15.739,23.4L2.935,23.4L2.935,14.102L13.872,14.102C14.075,14.102 14.246,14.031 14.387,13.892C14.525,13.752 14.596,13.58 14.596,13.377L14.596,12.272C14.596,12.068 14.525,11.896 14.387,11.758C14.246,11.617 14.075,11.548 13.872,11.548L2.935,11.548L2.935,1.83L15.739,1.83C15.942,1.83 16.114,1.76 16.254,1.62C16.394,1.48 16.464,1.309 16.464,1.105L16.464,0C16.464,-0.203 16.394,-0.375 16.254,-0.514C16.114,-0.654 15.942,-0.724 15.739,-0.724L0.724,-0.724C0.521,-0.724 0.349,-0.654 0.209,-0.514C0.069,-0.375 0,-0.203 0,0" style="fill:rgb(97,144,53);fill-rule:nonzero;"/>
            </g>
            <g id="g386" transform="matrix(1,0,0,1,705.976,62.3828)">
                <path id="path388" d="M0,0L0,25.229C0,25.433 0.069,25.604 0.209,25.744C0.349,25.884 0.521,25.954 0.724,25.954L15.739,25.954C15.942,25.954 16.114,25.884 16.254,25.744C16.394,25.604 16.464,25.433 16.464,25.229L16.464,24.125C16.464,23.921 16.394,23.749 16.254,23.61C16.114,23.47 15.942,23.4 15.739,23.4L2.935,23.4L2.935,14.102L13.872,14.102C14.075,14.102 14.246,14.031 14.387,13.892C14.525,13.752 14.596,13.58 14.596,13.377L14.596,12.272C14.596,12.068 14.525,11.896 14.387,11.758C14.246,11.617 14.075,11.548 13.872,11.548L2.935,11.548L2.935,1.83L15.739,1.83C15.942,1.83 16.114,1.76 16.254,1.62C16.394,1.48 16.464,1.309 16.464,1.105L16.464,0C16.464,-0.203 16.394,-0.375 16.254,-0.514C16.114,-0.654 15.942,-0.724 15.739,-0.724L0.724,-0.724C0.521,-0.724 0.349,-0.654 0.209,-0.514C0.069,-0.375 0,-0.203 0,0Z" style="fill:none;fill-rule:nonzero;stroke:rgb(97,144,53);stroke-width:1px;"/>
            </g>
            <g id="g390">
                <g id="g404">
                    <g id="g402">
                        <clipPath id="_clip1">
                            <rect x="44.122" y="55.006" width="175.468" height="161.495"/>
                        </clipPath>
                        <g clip-path="url(#_clip1)">
                            <g id="g400" transform="matrix(1,0,0,1,99.6807,55.2451)">
                                <path id="path398" d="M0,0C-35.888,3.126 -54.405,28.843 -55.559,77.152L-54.338,91.116C-51.36,125.342 -32.656,147.819 1.751,158.55C9.964,160.52 22.767,161.412 40.157,161.233C94.344,152.827 120.425,137.16 118.431,114.234C119.763,114.115 120.191,111.408 119.73,106.082L118.167,88.145C116.632,70.532 102.154,50.359 74.729,27.638C46.509,7.332 21.604,-1.884 0,0" style="fill:rgb(128,204,40);fill-rule:nonzero;"/>
                            </g>
                        </g>
                    </g>
                </g>
            </g>
            <g id="g406">
                <g id="g420">
                    <g id="g418">
                        <clipPath id="_clip2">
                            <rect x="147.18" y="184.28" width="95.987" height="92.795"/>
                        </clipPath>
                        <g clip-path="url(#_clip2)">
                            <g id="g416" transform="matrix(1,0,0,1,149.988,248.315)">
                                <path id="path414" d="M0,0C3.229,16.069 13.398,25.655 30.494,28.759C40.646,28.656 46.896,28.372 49.221,27.906C82.852,16.786 97.183,-1.118 92.222,-25.803L91.381,-29.99C81.989,-56.222 67.17,-67.283 46.91,-63.215L37.124,-61.249C15.234,-56.847 1.924,-41.097 -2.809,-13.977L0,0Z" style="fill:rgb(97,144,53);fill-rule:nonzero;"/>
                            </g>
                        </g>
                    </g>
                </g>
            </g>
            <g id="g422">
                <g id="g436">
                    <g id="g434">
                        <clipPath id="_clip3">
                            <rect x="97.164" y="247.574" width="117.564" height="106.079"/>
                        </clipPath>
                        <g clip-path="url(#_clip3)">
                            <g id="g432" transform="matrix(1,0,0,1,211.352,311.664)">
                                <path id="path430" d="M0,0C7.09,-18.287 3.007,-34.504 -12.229,-48.652C-22.551,-55.084 -29.036,-58.817 -31.678,-59.846C-72.752,-70.29 -98.734,-61.459 -109.636,-33.367L-111.478,-28.603C-118.901,3.896 -111.077,24.609 -88.016,33.545L-76.886,37.867C-51.97,47.527 -28.404,40.211 -6.173,15.903L0,0Z" style="fill:rgb(243,105,23);fill-rule:nonzero;"/>
                            </g>
                        </g>
                    </g>
                </g>
            </g>
        </g>
    </g>
</svg>
