<?xml version="1.0" encoding="UTF-8" standalone="no"?>
<!DOCTYPE svg PUBLIC "-//W3C//DTD SVG 1.1//EN" "http://www.w3.org/Graphics/SVG/1.1/DTD/svg11.dtd">
<svg width="100%" height="100%" viewBox="0 0 400 227" version="1.1" xmlns="http://www.w3.org/2000/svg" xmlns:xlink="http://www.w3.org/1999/xlink" xml:space="preserve" xmlns:serif="http://www.serif.com/" style="fill-rule:evenodd;clip-rule:evenodd;stroke-linejoin:round;stroke-miterlimit:2;">
    <g id="_-Path-" serif:id="&lt;Path&gt;" transform="matrix(1,0,0,1,-226.8,-185)">
        <path d="M395.4,268.7L409.5,268.7L409.5,307.3L423.5,307.3L423.5,268.7L437.6,268.7L437.6,256.2L395.4,256.2L395.4,268.7Z" style="fill:rgb(35,31,32);fill-rule:nonzero;"/>
    </g>
    <g id="_-Compound-Path-" serif:id="&lt;Compound Path&gt;" transform="matrix(1,0,0,1,-226.8,-185)">
        <path d="M468.3,255C453,255 440.7,266.5 440.7,281.7C440.7,296.9 453,308.4 468.3,308.4C483.7,308.4 496,296.9 496,281.7C496,266.5 483.7,255 468.3,255ZM468.3,294.5C461.2,294.5 455.4,288.7 455.4,281.7C455.4,274.7 461.2,268.9 468.3,268.9C475.4,268.9 481.3,274.7 481.3,281.7C481.3,288.7 475.4,294.5 468.3,294.5Z" style="fill:rgb(35,31,32);fill-rule:nonzero;"/>
    </g>
    <g id="_-Compound-Path-1" serif:id="&lt;Compound Path&gt;" transform="matrix(1,0,0,1,-226.8,-185)">
        <path d="M545.8,274.8C545.8,264.1 537.2,256.2 526.4,256.2L502.9,256.2L502.9,307.3L516.9,307.3L516.9,293.4L523.6,293.4L530,307.3L545.7,307.3L537,290.1C541.9,286.7 545.8,281.7 545.8,274.8ZM526.4,280.8L516.9,280.8L516.9,268.7L526.4,268.7C529.5,268.7 531.6,272.3 531.6,274.8C531.6,277.3 529.5,280.8 526.4,280.8Z" style="fill:rgb(35,31,32);fill-rule:nonzero;"/>
    </g>
    <g id="_-Path-1" serif:id="&lt;Path&gt;" transform="matrix(1,0,0,1,-226.8,-185)">
        <rect x="554.4" y="256.2" width="14" height="51.1" style="fill:rgb(35,31,32);fill-rule:nonzero;"/>
    </g>
    <g id="_-Compound-Path-2" serif:id="&lt;Compound Path&gt;" transform="matrix(1,0,0,1,-226.8,-185)">
        <path d="M602.8,256.2L597.6,256.2L573.9,307.3L589,307.3L591.4,301.5L609,301.5L611.5,307.3L626.5,307.3L602.8,256.2ZM595.7,289.3L600,279.4L600.3,279.4L604.7,289.3L595.7,289.3Z" style="fill:rgb(35,31,32);fill-rule:nonzero;"/>
    </g>
    <g id="_-Compound-Path-3" serif:id="&lt;Compound Path&gt;" transform="matrix(1,0,0,1,-226.8,-185)">
        <path d="M368.2,307.9C353.2,307.9 341.3,296.6 341.3,281.7C341.3,266.8 353.2,255.5 368.2,255.5C377.8,255.5 386.2,260.6 390.7,268.2L379,275.3C376.8,271.7 372.8,269.1 368.2,269.1C361.3,269.1 355.7,274.8 355.7,281.7C355.7,288.6 361.3,294.3 368.2,294.3C372.8,294.3 376.8,291.8 379,288.1L386.7,292.7L436.7,185L226.8,185L260,256.7L275.5,256.7L288.2,284.1L300.9,256.7L316.4,256.7L293.2,306.8L283.2,306.8L331.7,411.4L381.3,304.4C377.5,306.6 373,307.9 368.2,307.9ZM335,306.8L320.6,306.8L320.6,256.7L335,256.7L335,306.8Z" style="fill:rgb(35,31,32);fill-rule:nonzero;"/>
    </g>
    <g id="_-Group-" serif:id="&lt;Group&gt;" transform="matrix(1,0,0,1,-226.8,-185)">
        <path id="_-Compound-Path-4" serif:id="&lt;Compound Path&gt;" d="M423.9,333.5C422,332.4 419.8,331.5 417.2,331.5C414.6,331.5 412.7,332.6 412.7,334.3C412.7,336.1 414.8,336.6 417.6,337.1L418.9,337.3C423.1,338 426.4,339.8 426.4,343.8C426.4,349 421.8,351.5 416.8,351.5C413.2,351.5 409.4,350.4 406.9,348.4L409.3,344.6C411,346 413.8,347.2 416.8,347.2C419.4,347.2 421.4,346.1 421.4,344.3C421.4,342.7 419.7,342.1 416.4,341.6L414.9,341.4C410.8,340.7 407.8,338.9 407.8,334.6C407.8,329.8 412.1,327.2 417.1,327.2C420.4,327.2 423.1,327.9 426.1,329.7L423.9,333.5Z" style="fill:rgb(35,31,32);fill-rule:nonzero;"/>
        <path id="_-Compound-Path-5" serif:id="&lt;Compound Path&gt;" d="M441,338.7L435.1,338.7L435.1,344.6C435.1,346.7 436.2,347.4 437.6,347.4C438.6,347.4 439.7,346.9 440.6,346.3L442.2,349.8C440.8,350.7 439.1,351.5 436.8,351.5C432.8,351.5 430.8,349.2 430.8,345L430.8,338.7L427.6,338.7L427.6,334.8L430.8,334.8L430.8,330L435.1,330L435.1,334.8L441,334.8L441,338.7Z" style="fill:rgb(35,31,32);fill-rule:nonzero;"/>
        <path id="_-Compound-Path-6" serif:id="&lt;Compound Path&gt;" d="M459.9,351.1L455.7,351.1L455.7,349.3C454.6,350.6 453,351.5 450.8,351.5C446.3,351.5 442.9,347.8 442.9,342.9C442.9,338.1 446.3,334.4 450.8,334.4C453,334.4 454.6,335.3 455.7,336.6L455.7,334.8L459.9,334.8L459.9,351.1ZM447.4,343C447.4,345.5 449,347.5 451.6,347.5C454.1,347.5 455.8,345.6 455.8,343C455.8,340.4 454.1,338.5 451.6,338.5C449,338.5 447.4,340.5 447.4,343Z" style="fill:rgb(35,31,32);fill-rule:nonzero;"/>
        <path id="_-Compound-Path-7" serif:id="&lt;Compound Path&gt;" d="M475.6,338.7L469.7,338.7L469.7,344.6C469.7,346.7 470.8,347.4 472.1,347.4C473.2,347.4 474.3,346.9 475.2,346.3L476.8,349.8C475.4,350.7 473.7,351.5 471.4,351.5C467.4,351.5 465.3,349.2 465.3,345L465.3,338.7L462.2,338.7L462.2,334.8L465.3,334.8L465.3,330L469.7,330L469.7,334.8L475.6,334.8L475.6,338.7Z" style="fill:rgb(35,31,32);fill-rule:nonzero;"/>
        <path id="_-Compound-Path-8" serif:id="&lt;Compound Path&gt;" d="M493.6,342.9C493.6,343.4 493.6,344 493.5,344.4L482,344.4C482.5,346.7 484.1,347.8 486.2,347.8C487.6,347.8 489.1,347.2 490.3,346.2L492.8,349C491,350.7 488.7,351.5 485.9,351.5C481,351.5 477.5,348.1 477.5,343C477.5,337.9 480.9,334.4 485.7,334.4C490.4,334.4 493.6,337.9 493.6,342.9ZM482,341.4L489.2,341.4C488.8,339.3 487.6,338.2 485.7,338.2C483.6,338.2 482.4,339.4 482,341.4Z" style="fill:rgb(35,31,32);fill-rule:nonzero;"/>
        <path id="_-Compound-Path-9" serif:id="&lt;Compound Path&gt;" d="M428.1,361L424.8,364.3C423.4,362.7 421.5,361.8 419.1,361.8C414.8,361.8 411.7,364.9 411.7,369.5C411.7,374.3 415,377.3 419,377.3C422.8,377.3 425.1,375.5 425.7,372.1L419.7,372.1L419.7,368.2L430.5,368.2C430.567,368.667 430.6,369.1 430.6,369.5C430.6,376.6 425.8,381.7 419.1,381.7C412.6,381.7 406.9,377.1 406.9,369.5C406.9,362.4 412,357.4 419.2,357.4C422.9,357.4 426,358.7 428.1,361Z" style="fill:rgb(35,31,32);fill-rule:nonzero;"/>
        <path id="_-Compound-Path-10" serif:id="&lt;Compound Path&gt;" d="M450.3,373.1C450.3,378 446.5,381.7 441.5,381.7C436.4,381.7 432.7,378 432.7,373.1C432.7,368.2 436.4,364.6 441.5,364.6C446.5,364.6 450.3,368.2 450.3,373.1ZM437.2,373.1C437.2,375.7 439,377.6 441.5,377.6C444,377.6 445.8,375.7 445.8,373.1C445.8,370.5 444,368.6 441.5,368.6C439,368.6 437.2,370.5 437.2,373.1Z" style="fill:rgb(35,31,32);fill-rule:nonzero;"/>
        <path id="_-Compound-Path-11" serif:id="&lt;Compound Path&gt;" d="M462.1,381.2L457.1,381.2L450.7,365L455.4,365L459.6,376.6L463.9,365L468.5,365L462.1,381.2Z" style="fill:rgb(35,31,32);fill-rule:nonzero;"/>
        <path id="_-Compound-Path-12" serif:id="&lt;Compound Path&gt;" d="M485,373.1C485,373.6 484.9,374.2 484.9,374.6L473.4,374.6C473.9,376.9 475.5,377.9 477.6,377.9C479,377.9 480.5,377.4 481.7,376.4L484.2,379.2C482.4,380.9 480,381.7 477.3,381.7C472.3,381.7 468.9,378.3 468.9,373.2C468.9,368.1 472.2,364.6 477.1,364.6C481.8,364.6 485,368 485,373.1ZM473.4,371.6L480.6,371.6C480.2,369.5 478.9,368.3 477.1,368.3C475,368.3 473.8,369.6 473.4,371.6Z" style="fill:rgb(35,31,32);fill-rule:nonzero;"/>
        <path id="_-Compound-Path-13" serif:id="&lt;Compound Path&gt;" d="M498.9,364.9L498.3,369.3C497.6,368.9 496.5,368.7 495.6,368.7C493.6,368.7 492.2,370 492.2,372.4L492.2,381.2L487.8,381.2L487.8,365L492.1,365L492.1,366.8C493.1,365.3 494.7,364.6 496.6,364.6C497.6,364.6 498.3,364.7 498.9,364.9Z" style="fill:rgb(35,31,32);fill-rule:nonzero;"/>
        <path id="_-Compound-Path-14" serif:id="&lt;Compound Path&gt;" d="M516.5,370.9L516.5,381.2L512.2,381.2L512.2,372.3C512.2,370 511,368.7 509,368.7C507.1,368.7 505.6,369.9 505.6,372.3L505.6,381.2L501.2,381.2L501.2,365L505.4,365L505.4,366.9C506.6,365.2 508.4,364.6 510.2,364.6C513.9,364.6 516.5,367.1 516.5,370.9Z" style="fill:rgb(35,31,32);fill-rule:nonzero;"/>
        <path id="_-Compound-Path-15" serif:id="&lt;Compound Path&gt;" d="M546.6,370.9L546.6,381.2L542.2,381.2L542.2,372.3C542.2,370 541,368.7 539.1,368.7C537.2,368.7 535.6,369.9 535.6,372.3L535.6,381.2L531.2,381.2L531.2,372.3C531.2,370 530.1,368.7 528.1,368.7C526.2,368.7 524.6,369.9 524.6,372.3L524.6,381.2L520.3,381.2L520.3,365L524.5,365L524.5,366.9C525.7,365.2 527.5,364.6 529.3,364.6C531.7,364.6 533.6,365.6 534.7,367.3C535.9,365.3 538,364.6 540.2,364.6C544,364.6 546.6,367.1 546.6,370.9Z" style="fill:rgb(35,31,32);fill-rule:nonzero;"/>
        <path id="_-Compound-Path-16" serif:id="&lt;Compound Path&gt;" d="M565.4,373.1C565.4,373.6 565.4,374.2 565.3,374.6L553.8,374.6C554.3,376.9 555.9,377.9 558,377.9C559.4,377.9 560.9,377.4 562.1,376.4L564.6,379.2C562.8,380.9 560.5,381.7 557.7,381.7C552.8,381.7 549.3,378.3 549.3,373.2C549.3,368.1 552.7,364.6 557.5,364.6C562.2,364.6 565.4,368 565.4,373.1ZM553.8,371.6L561,371.6C560.6,369.5 559.4,368.3 557.5,368.3C555.4,368.3 554.2,369.6 553.8,371.6Z" style="fill:rgb(35,31,32);fill-rule:nonzero;"/>
        <path id="_-Compound-Path-17" serif:id="&lt;Compound Path&gt;" d="M583.6,370.9L583.6,381.2L579.2,381.2L579.2,372.3C579.2,370 578.1,368.7 576.1,368.7C574.2,368.7 572.6,369.9 572.6,372.3L572.6,381.2L568.3,381.2L568.3,365L572.5,365L572.5,366.9C573.7,365.2 575.4,364.6 577.3,364.6C581,364.6 583.6,367.1 583.6,370.9Z" style="fill:rgb(35,31,32);fill-rule:nonzero;"/>
        <path id="_-Compound-Path-18" serif:id="&lt;Compound Path&gt;" d="M598.9,368.9L593.1,368.9L593.1,374.8C593.1,376.8 594.1,377.6 595.5,377.6C596.5,377.6 597.7,377.1 598.5,376.5L600.1,379.9C598.7,380.9 597.1,381.7 594.8,381.7C590.8,381.7 588.7,379.4 588.7,375.2L588.7,368.9L585.6,368.9L585.6,365L588.7,365L588.7,360.2L593.1,360.2L593.1,365L598.9,365L598.9,368.9Z" style="fill:rgb(35,31,32);fill-rule:nonzero;"/>
    </g>
</svg>
