<svg width="20" height="20" viewBox="0 0 20 20" fill="none" xmlns="http://www.w3.org/2000/svg">
<path id="Vector" fill-rule="evenodd" clip-rule="evenodd" d="M9.69064 7.05185L11.3929 8.76462L15.1963 6.89956C15.6917 6.65699 16.1598 7.28092 15.7925 7.68954L15.7935 7.69029L11.0683 12.9441C10.871 13.1634 10.5324 13.1724 10.3153 12.9424L8.61332 11.2296L4.80993 13.0947C4.31428 13.3372 3.8464 12.7133 4.21375 12.3047L4.21275 12.3039L8.93791 7.05035C9.13922 6.82604 9.49008 6.82804 9.69064 7.05185ZM10.003 0C2.1804 0 -2.52701 8.55605 1.42992 15.1408L0.0340074 19.3285C-0.0965316 19.7199 0.27658 20.0972 0.670197 19.9665L4.8592 18.57C11.4449 22.5272 20 17.8191 20 9.99698C20 4.47609 15.5241 0 10.003 0ZM16.3561 3.64384C12.8476 0.13504 7.15838 0.13504 3.64959 3.64384C0.675449 6.61823 0.162045 11.2601 2.41047 14.8034L2.40897 14.8044C2.48699 14.9275 2.51125 15.0833 2.46198 15.2325L1.30914 18.6911L4.72641 17.552C4.8747 17.4885 5.0505 17.4967 5.1968 17.5897C11.1101 21.3401 18.9877 17.1199 18.9877 9.99698C18.9877 7.51599 17.9819 5.26957 16.3561 3.64384ZM10.9315 9.73265L9.33203 8.12292L6.7075 11.041L8.46927 10.177C8.66208 10.0688 8.91091 10.097 9.0742 10.2613L10.6737 11.871L13.2982 8.95292L11.5364 9.81693C11.3439 9.92521 11.0951 9.8972 10.9315 9.73265Z" fill="black"/>
</svg>
