<svg width="19" height="20" viewBox="0 0 19 20" fill="none" xmlns="http://www.w3.org/2000/svg">
<path id="Vector" d="M10.9302 0H2.55814C1.87983 0.000492779 1.22944 0.270169 0.749806 0.749806C0.270169 1.22944 0.000492779 1.87983 0 2.55814V12.6577C0.000738684 13.3359 0.270493 13.9862 0.750077 14.4657C1.22966 14.9453 1.87991 15.2151 2.55814 15.2158H4.53954V17.4419C4.54003 18.1202 4.8097 18.7706 5.28934 19.2502C5.76898 19.7298 6.41936 19.9995 7.09767 20H15.5814C16.2597 19.9995 16.9101 19.7298 17.3897 19.2502C17.8694 18.7706 18.139 18.1202 18.1395 17.4419V7.2093C18.139 6.53099 17.8694 5.88061 17.3897 5.40097C16.9101 4.92133 16.2597 4.65166 15.5814 4.65116H13.4884V2.55814C13.4879 1.87983 13.2182 1.22944 12.7386 0.749806C12.2589 0.270169 11.6085 0.000492779 10.9302 0ZM1.39535 12.6577V2.55814C1.39584 2.2499 1.51851 1.95442 1.73647 1.73647C1.95442 1.51851 2.2499 1.39584 2.55814 1.39535H10.9302C11.2385 1.39584 11.5339 1.51851 11.7519 1.73647C11.9699 1.95442 12.0925 2.2499 12.093 2.55814V12.6577C12.0925 12.9659 11.9699 13.2614 11.7519 13.4793C11.5339 13.6973 11.2385 13.82 10.9302 13.8205H2.55814C2.2499 13.82 1.95442 13.6973 1.73647 13.4793C1.51851 13.2614 1.39584 12.9659 1.39535 12.6577ZM15.5814 6.04651C15.8896 6.047 16.1851 6.16967 16.4031 6.38763C16.621 6.60559 16.7437 6.90106 16.7442 7.2093V17.4419C16.7437 17.7501 16.621 18.0456 16.4031 18.2635C16.1851 18.4815 15.8896 18.6042 15.5814 18.6047H7.09767C6.78936 18.6044 6.49374 18.4818 6.27573 18.2638C6.05772 18.0458 5.93513 17.7502 5.93488 17.4419V15.2158H10.9302C11.6085 15.2151 12.2587 14.9453 12.7383 14.4657C13.2179 13.9862 13.4876 13.3359 13.4884 12.6577V6.04651H15.5814Z" fill="black"/>
</svg>
