<svg width="20" height="20" fill="none" xmlns="http://www.w3.org/2000/svg"><g fill="#000"><path d="M15.031 11.21l-1.754-1.283a1.224 1.224 0 00-.919-.222c-.326.05-.61.225-.806.492l-.542.744-.018.026c-.083.012-.521.021-1.57-.815l-.113-.08c-1.096-.728-1.22-1.146-1.236-1.232.006-.01.015-.018.021-.027l.542-.744c.4-.548.282-1.321-.27-1.724L6.58 5.04a1.233 1.233 0 00-1.725.27l-.548.752a2.807 2.807 0 00-.37 2.56c.435 1.266 1.528 2.602 3.26 3.977a.55.55 0 00.103.095c.041.03.086.06.127.089l.125.095c.038.03.08.053.121.071 1.838 1.227 3.444 1.864 4.783 1.89h.056c.875 0 1.71-.43 2.238-1.155l.548-.753a1.22 1.22 0 00.222-.918 1.203 1.203 0 00-.489-.803zm-.687 1.026l-.548.752c-.314.43-.818.676-1.313.667-.8-.018-2.199-.35-4.35-1.828-2.066-1.6-2.81-2.83-3.07-3.586a1.633 1.633 0 01.204-1.476l.548-.752A.05.05 0 015.883 6L7.67 7.305a.05.05 0 01.012.068l-.518.708a1.126 1.126 0 00-.273.833c.047.684.622 1.387 1.742 2.13l.069.05c1.07.854 1.914 1.19 2.58 1.026.36-.089.593-.31.709-.512l.518-.709c.015-.017.05-.023.069-.011l1.757 1.283c.018.009.02.044.009.065z"/><path d="M9.747 0C4.374 0 0 4.371 0 9.747c0 2.264.785 4.445 2.217 6.187L.572 19.138a.591.591 0 00.696.838l4.49-1.333a9.632 9.632 0 003.986.85c5.372 0 9.746-4.37 9.746-9.746S15.12 0 9.747 0zm0 18.305a8.441 8.441 0 01-3.684-.833.6.6 0 00-.424-.032l-3.375 1.004 1.191-2.323a.594.594 0 00-.086-.667 8.546 8.546 0 01-2.184-5.707c0-4.721 3.84-8.562 8.562-8.562 4.72 0 8.558 3.84 8.558 8.562 0 4.72-3.838 8.558-8.558 8.558z"/></g></svg>