<svg width="13" height="20" viewBox="0 0 13 20" fill="none" xmlns="http://www.w3.org/2000/svg">
<g id="Vector">
<mask id="path-1-inside-1_2049_5007" fill="white">
<path d="M10 4.7619H11.9048C12.167 4.7619 12.381 4.54799 12.381 4.28571V0.47619C12.381 0.213905 12.167 0 11.9048 0H9.04762C6.15976 0 3.80952 2.35026 3.80952 5.2381V7.65714H0.47619C0.213905 7.65714 0 7.87106 0 8.13333V11.9048C0 12.167 0.213914 12.381 0.47619 12.381H3.47833V19.5238C3.47833 19.7861 3.69225 20 3.95452 20H7.93048C8.19276 20 8.40667 19.7861 8.40667 19.5238V12.381H10.9114C11.1281 12.381 11.3188 12.2359 11.3737 12.0238L12.367 8.21429C12.4051 8.07106 12.3744 7.91945 12.2833 7.80226C12.1931 7.68601 12.0545 7.61625 11.9075 7.61625H8.5742V6.18768C8.5742 5.39992 9.21501 4.75911 10.0028 4.75911L10 4.7619ZM8.09524 8.57143H11.2881L10.5431 11.4286H7.92883C7.66655 11.4286 7.45264 11.6425 7.45264 11.9048V19.0476H4.42907V11.9048C4.42907 11.6425 4.21516 11.4286 3.95288 11.4286H0.950738V8.60952H4.28407C4.54636 8.60952 4.76026 8.39561 4.76026 8.13333V5.2381C4.76026 2.87574 6.68176 0.952381 9.04598 0.952381H11.4269V3.80952H9.99836C8.68605 3.80952 7.6174 4.87817 7.6174 6.19048V8.09524C7.6174 8.35752 7.83132 8.57143 8.0936 8.57143H8.09524Z"/>
</mask>
<path d="M10 4.7619H11.9048C12.167 4.7619 12.381 4.54799 12.381 4.28571V0.47619C12.381 0.213905 12.167 0 11.9048 0H9.04762C6.15976 0 3.80952 2.35026 3.80952 5.2381V7.65714H0.47619C0.213905 7.65714 0 7.87106 0 8.13333V11.9048C0 12.167 0.213914 12.381 0.47619 12.381H3.47833V19.5238C3.47833 19.7861 3.69225 20 3.95452 20H7.93048C8.19276 20 8.40667 19.7861 8.40667 19.5238V12.381H10.9114C11.1281 12.381 11.3188 12.2359 11.3737 12.0238L12.367 8.21429C12.4051 8.07106 12.3744 7.91945 12.2833 7.80226C12.1931 7.68601 12.0545 7.61625 11.9075 7.61625H8.5742V6.18768C8.5742 5.39992 9.21501 4.75911 10.0028 4.75911L10 4.7619ZM8.09524 8.57143H11.2881L10.5431 11.4286H7.92883C7.66655 11.4286 7.45264 11.6425 7.45264 11.9048V19.0476H4.42907V11.9048C4.42907 11.6425 4.21516 11.4286 3.95288 11.4286H0.950738V8.60952H4.28407C4.54636 8.60952 4.76026 8.39561 4.76026 8.13333V5.2381C4.76026 2.87574 6.68176 0.952381 9.04598 0.952381H11.4269V3.80952H9.99836C8.68605 3.80952 7.6174 4.87817 7.6174 6.19048V8.09524C7.6174 8.35752 7.83132 8.57143 8.0936 8.57143H8.09524Z" fill="black"/>
<path d="M10 4.7619L9.28967 4.05803L7.60129 5.7619H10V4.7619ZM3.80952 7.65714V8.65714H4.80952V7.65714H3.80952ZM3.47833 12.381H4.47833V11.381H3.47833V12.381ZM8.40667 12.381V11.381H7.40667V12.381H8.40667ZM11.3737 12.0238L10.406 11.7715L10.4056 11.7733L11.3737 12.0238ZM12.367 8.21429L11.4006 7.957L11.3993 7.96198L12.367 8.21429ZM12.2833 7.80226L11.4932 8.41533L11.4939 8.41619L12.2833 7.80226ZM8.5742 7.61625H7.5742V8.61625H8.5742V7.61625ZM10.0028 4.75911L10.7131 5.46298L12.4015 3.75911H10.0028V4.75911ZM11.2881 8.57143L12.2557 8.82374L12.5823 7.57143H11.2881V8.57143ZM10.5431 11.4286V12.4286H11.3158L11.5108 11.6809L10.5431 11.4286ZM7.45264 19.0476V20.0476H8.45264V19.0476H7.45264ZM4.42907 19.0476H3.42907V20.0476H4.42907V19.0476ZM0.950738 11.4286H-0.0492621V12.4286H0.950738V11.4286ZM0.950738 8.60952V7.60952H-0.0492621V8.60952H0.950738ZM11.4269 0.952381H12.4269V-0.047619H11.4269V0.952381ZM11.4269 3.80952V4.80952H12.4269V3.80952H11.4269ZM10 5.7619H11.9048V3.7619H10V5.7619ZM11.9048 5.7619C12.7193 5.7619 13.381 5.10026 13.381 4.28571H11.381C11.381 3.99572 11.6147 3.7619 11.9048 3.7619V5.7619ZM13.381 4.28571V0.47619H11.381V4.28571H13.381ZM13.381 0.47619C13.381 -0.338393 12.7193 -1 11.9048 -1V1C11.6148 1 11.381 0.766203 11.381 0.47619H13.381ZM11.9048 -1H9.04762V1H11.9048V-1ZM9.04762 -1C5.60747 -1 2.80952 1.79798 2.80952 5.2381H4.80952C4.80952 2.90254 6.71205 1 9.04762 1V-1ZM2.80952 5.2381V7.65714H4.80952V5.2381H2.80952ZM3.80952 6.65714H0.47619V8.65714H3.80952V6.65714ZM0.47619 6.65714C-0.338393 6.65714 -1 7.31879 -1 8.13333H1C1 8.42333 0.766203 8.65714 0.47619 8.65714V6.65714ZM-1 8.13333V11.9048H1V8.13333H-1ZM-1 11.9048C-1 12.7193 -0.338357 13.381 0.47619 13.381V11.381C0.766186 11.381 1 11.6147 1 11.9048H-1ZM0.47619 13.381H3.47833V11.381H0.47619V13.381ZM2.47833 12.381V19.5238H4.47833V12.381H2.47833ZM2.47833 19.5238C2.47833 20.3384 3.13998 21 3.95452 21V19C4.24452 19 4.47833 19.2338 4.47833 19.5238H2.47833ZM3.95452 21H7.93048V19H3.95452V21ZM7.93048 21C8.74506 21 9.40667 20.3384 9.40667 19.5238H7.40667C7.40667 19.2338 7.64046 19 7.93048 19V21ZM9.40667 19.5238V12.381H7.40667V19.5238H9.40667ZM8.40667 13.381H10.9114V11.381H8.40667V13.381ZM10.9114 13.381C11.5787 13.381 12.1714 12.9327 12.3418 12.2744L10.4056 11.7733C10.4662 11.5391 10.6775 11.381 10.9114 11.381V13.381ZM12.3413 12.2761L13.3346 8.46659L11.3993 7.96198L10.406 11.7715L12.3413 12.2761ZM13.3333 8.47156C13.4518 8.02647 13.3559 7.55249 13.0726 7.18833L11.4939 8.41619C11.393 8.28642 11.3584 8.11564 11.4006 7.95701L13.3333 8.47156ZM13.0733 7.18919C12.7992 6.83598 12.3724 6.61625 11.9075 6.61625V8.61625C11.7366 8.61625 11.5869 8.53603 11.4932 8.41533L13.0733 7.18919ZM11.9075 6.61625H8.5742V8.61625H11.9075V6.61625ZM9.5742 7.61625V6.18768H7.5742V7.61625H9.5742ZM9.5742 6.18768C9.5742 5.9522 9.76729 5.75911 10.0028 5.75911V3.75911C8.66273 3.75911 7.5742 4.84763 7.5742 6.18768H9.5742ZM9.29244 4.05524L9.28967 4.05803L10.7103 5.46578L10.7131 5.46298L9.29244 4.05524ZM8.09524 9.57143H11.2881V7.57143H8.09524V9.57143ZM10.3204 8.31912L9.57547 11.1763L11.5108 11.6809L12.2557 8.82374L10.3204 8.31912ZM10.5431 10.4286H7.92883V12.4286H10.5431V10.4286ZM7.92883 10.4286C7.11425 10.4286 6.45264 11.0902 6.45264 11.9048H8.45264C8.45264 12.1948 8.21885 12.4286 7.92883 12.4286V10.4286ZM6.45264 11.9048V19.0476H8.45264V11.9048H6.45264ZM7.45264 18.0476H4.42907V20.0476H7.45264V18.0476ZM5.42907 19.0476V11.9048H3.42907V19.0476H5.42907ZM5.42907 11.9048C5.42907 11.0902 4.76743 10.4286 3.95288 10.4286V12.4286C3.66289 12.4286 3.42907 12.1948 3.42907 11.9048H5.42907ZM3.95288 10.4286H0.950738V12.4286H3.95288V10.4286ZM1.95074 11.4286V8.60952H-0.0492621V11.4286H1.95074ZM0.950738 9.60952H4.28407V7.60952H0.950738V9.60952ZM4.28407 9.60952C5.09865 9.60952 5.76026 8.94788 5.76026 8.13333H3.76026C3.76026 7.84334 3.99406 7.60952 4.28407 7.60952V9.60952ZM5.76026 8.13333V5.2381H3.76026V8.13333H5.76026ZM5.76026 5.2381C5.76026 3.42774 7.23433 1.95238 9.04598 1.95238V-0.047619C6.1292 -0.047619 3.76026 2.32374 3.76026 5.2381H5.76026ZM9.04598 1.95238H11.4269V-0.047619H9.04598V1.95238ZM10.4269 0.952381V3.80952H12.4269V0.952381H10.4269ZM11.4269 2.80952H9.99836V4.80952H11.4269V2.80952ZM9.99836 2.80952C8.13376 2.80952 6.6174 4.32588 6.6174 6.19048H8.6174C8.6174 5.43045 9.23833 4.80952 9.99836 4.80952V2.80952ZM6.6174 6.19048V8.09524H8.6174V6.19048H6.6174ZM6.6174 8.09524C6.6174 8.90982 7.27905 9.57143 8.0936 9.57143V7.57143C8.38359 7.57143 8.6174 7.80523 8.6174 8.09524H6.6174ZM8.0936 9.57143H8.09524V7.57143H8.0936V9.57143Z" fill="black" mask="url(#path-1-inside-1_2049_5007)"/>
</g>
</svg>
