<svg width="20" height="14" viewBox="0 0 20 14" fill="none" xmlns="http://www.w3.org/2000/svg">
<path id="Vector" d="M17.5 0H2.1C0.940621 0 0 0.940621 0 2.1V11.9C0 13.0594 0.940621 14 2.1 14H17.5C18.6594 14 19.6 13.0594 19.6 11.9V2.1C19.6 0.940621 18.6594 0 17.5 0ZM17.052 1.4L9.8 7L2.548 1.4H17.052ZM17.5 12.6H2.1C1.71324 12.6 1.4 12.2868 1.4 11.9V2.28189L8.95306 8.11283C9.45356 8.49345 10.1466 8.49345 10.6471 8.11283L18.2001 2.28189V11.9C18.2001 12.0855 18.1266 12.264 17.9954 12.3952C17.8641 12.5265 17.6855 12.6 17.5 12.6Z" fill="black"/>
</svg>
